<svg width="32" height="32" viewBox="0 0 32 32" fill="none" xmlns="http://www.w3.org/2000/svg">
<rect x="0.5" y="0.5" width="31" height="31" rx="15.5" fill="#EAEBED"/>
<rect x="0.5" y="0.5" width="31" height="31" rx="15.5" stroke="#EAEBED"/>
<path d="M13.7602 16.9597L15.3602 18.8797L17.6002 15.9997L20.4802 19.8397H11.5202M21.7602 20.4797V11.5197C21.7602 11.1803 21.6254 10.8547 21.3853 10.6146C21.1453 10.3746 20.8197 10.2397 20.4802 10.2397H11.5202C11.1808 10.2397 10.8552 10.3746 10.6151 10.6146C10.3751 10.8547 10.2402 11.1803 10.2402 11.5197V20.4797C10.2402 20.8192 10.3751 21.1448 10.6151 21.3848C10.8552 21.6249 11.1808 21.7597 11.5202 21.7597H20.4802C20.8197 21.7597 21.1453 21.6249 21.3853 21.3848C21.6254 21.1448 21.7602 20.8192 21.7602 20.4797Z" fill="white"/>
</svg>
