<svg width="100" height="100" viewBox="0 0 100 100" fill="none" xmlns="http://www.w3.org/2000/svg">
<rect x="0.5" y="0.5" width="99" height="99" rx="49.5" fill="white"/>
<rect x="0.5" y="0.5" width="99" height="99" rx="49.5" stroke="#EAEBED"/>
<path d="M38.3697 45.2165C40.3505 45.2165 41.9562 43.6108 41.9562 41.63C41.9562 39.6492 40.3505 38.0435 38.3697 38.0435C36.3889 38.0435 34.7832 39.6492 34.7832 41.63C34.7832 43.6108 36.3889 45.2165 38.3697 45.2165Z" fill="black"/>
<path d="M61.3258 45.2165C63.3066 45.2165 64.9123 43.6108 64.9123 41.63C64.9123 39.6492 63.3066 38.0435 61.3258 38.0435C59.345 38.0435 57.7393 39.6492 57.7393 41.63C57.7393 43.6108 59.345 45.2165 61.3258 45.2165Z" fill="black"/>
<path d="M58.9117 59.8223C58.9117 62.8934 52.1018 65.2969 49.5647 65.2969C47.5618 65.2969 40.2178 62.8934 40.2178 59.8223C40.2178 56.7512 44.3571 54.3477 49.5647 54.3477C54.7723 54.3477 58.9117 56.7512 58.9117 59.8223Z" fill="black"/>
<path d="M39 51.6552C45.0194 46.8643 54.4785 46.7414 60.6208 51.5324L60.3751 52.1466C53.1272 50.4268 46.125 51.4096 39 51.7781V51.6552Z" fill="#EAEBED"/>
</svg>
