<svg width="24" height="24" viewBox="0 0 24 24" fill="none" xmlns="http://www.w3.org/2000/svg">
<path d="M12 4.5C7.85938 4.5 4.5 7.85938 4.5 12C4.5 16.1406 7.85938 19.5 12 19.5C12.6914 19.5 13.25 20.0586 13.25 20.75C13.25 21.4414 12.6914 22 12 22C6.47656 22 2 17.5234 2 12C2 6.47656 6.47656 2 12 2C17.5234 2 22 6.47656 22 12V13.25C22 15.3203 20.3203 17 18.25 17C17.1055 17 16.0781 16.4844 15.3906 15.6758C14.5 16.4961 13.3086 17 12 17C9.23828 17 7 14.7617 7 12C7 9.23828 9.23828 7 12 7C13.0898 7 14.0977 7.34766 14.918 7.94141C15.1406 7.74609 15.4297 7.625 15.75 7.625C16.4414 7.625 17 8.18359 17 8.875V12V13.25C17 13.9414 17.5586 14.5 18.25 14.5C18.9414 14.5 19.5 13.9414 19.5 13.25V12C19.5 7.85938 16.1406 4.5 12 4.5ZM14.5 12C14.5 11.337 14.2366 10.7011 13.7678 10.2322C13.2989 9.76339 12.663 9.5 12 9.5C11.337 9.5 10.7011 9.76339 10.2322 10.2322C9.76339 10.7011 9.5 11.337 9.5 12C9.5 12.663 9.76339 13.2989 10.2322 13.7678C10.7011 14.2366 11.337 14.5 12 14.5C12.663 14.5 13.2989 14.2366 13.7678 13.7678C14.2366 13.2989 14.5 12.663 14.5 12Z" fill="#5266EC"/>
</svg>
