<svg width="42" height="39" viewBox="0 0 42 39" fill="none" xmlns="http://www.w3.org/2000/svg">
<path d="M19.9807 16.0783C25.7639 15.5202 26.6126 19.5757 30.0701 22.7798C32.5492 25.0772 36.0126 26.2191 37.6903 29.3444C39.836 33.3409 37.6617 38.0107 32.9874 38.3542C28.7554 38.6653 24.1118 37.2222 19.7492 37.363C14.9899 37.5165 5.34959 40.8741 3.75787 34.1264C2.26607 27.8029 8.49641 26.0449 12.0043 22.7798C14.4705 20.4843 16.2532 16.4376 19.9807 16.0783Z" fill="#7486FF"/>
<path d="M13.6567 0.650538C21.4412 -0.329878 21.9754 13.7326 14.4224 13.895C7.45113 14.0446 6.86054 1.50693 13.6567 0.650538Z" fill="#7486FF"/>
<path d="M26.9893 0.653389C33.456 -0.12425 35.4563 10.2607 29.9748 13.2521C25.9723 15.4364 22.3309 11.6466 22.0756 7.74762C21.8798 4.75519 23.7346 1.04516 26.9893 0.653389Z" fill="#7486FF"/>
<path d="M36.076 11.6589C43.0087 11.1204 44.2968 21.3164 37.5827 22.5891C29.9328 24.0381 28.4321 12.2524 36.076 11.6589Z" fill="#7486FF"/>
<path d="M4.97161 11.6581C11.8944 11.0203 13.3427 21.3353 6.49704 22.6071C-1.03318 24.0068 -2.62984 12.359 4.97161 11.6581Z" fill="#7486FF"/>
</svg>
