<svg width="81" height="108" viewBox="0 0 81 108" fill="none" xmlns="http://www.w3.org/2000/svg">
<path d="M80.0666 34.3224C80.0666 27.3674 75.43 21.5999 69.2101 20.2428C67.9096 13.6837 62.4814 8.76436 55.9222 8.76436C54.5652 8.76436 53.2647 9.04708 52.0207 9.44289C50.0982 3.9581 45.1789 0 39.2983 0C33.4176 0 28.6679 3.78846 26.6889 9.10362C25.7842 8.87744 24.8229 8.76436 23.8051 8.76436C17.1894 8.76436 11.7047 13.7402 10.4607 20.3559C4.467 21.8826 0 27.537 0 34.3224C0 37.9977 1.35706 41.2773 3.50574 43.8218C2.99684 45.3485 2.65758 46.9883 2.65758 48.6846C2.65758 56.6008 8.76436 63.0468 16.2282 63.0468C16.3978 63.0468 16.5109 63.0468 16.624 63.0468L11.8177 76.1651C10.9696 81.5933 14.9277 86.5692 20.1863 86.5692H58.2971C63.3295 86.5692 67.2311 81.9891 66.7222 76.7305L61.6332 63.0468C61.6332 63.0468 62.029 63.1034 62.2552 63.1034C69.7756 63.1034 75.8258 56.6573 75.8258 48.7411C75.8258 47.4972 75.5996 46.3097 75.3169 45.1223C78.1441 42.4647 80.0101 38.6763 80.0101 34.3789L80.0666 34.3224Z" fill="#F7F8FA"/>
<path d="M31.8677 31.4405C32.9607 31.4405 33.8468 30.5545 33.8468 29.4615C33.8468 28.3685 32.9607 27.4824 31.8677 27.4824C30.7747 27.4824 29.8887 28.3685 29.8887 29.4615C29.8887 30.5545 30.7747 31.4405 31.8677 31.4405Z" fill="black"/>
<path d="M46.1685 31.4405C47.2615 31.4405 48.1476 30.5545 48.1476 29.4615C48.1476 28.3685 47.2615 27.4824 46.1685 27.4824C45.0755 27.4824 44.1895 28.3685 44.1895 29.4615C44.1895 30.5545 45.0755 31.4405 46.1685 31.4405Z" fill="black"/>
<path d="M39.077 46.2903C40.073 46.2903 40.8805 45.8148 40.8805 44.4867C40.8805 43.1587 39.6781 42.082 39.077 42.082C38.4758 42.082 37.2734 43.1587 37.2734 44.4867C37.2734 45.8148 38.0809 46.2903 39.077 46.2903Z" fill="black"/>
<path d="M45.1495 37.1503C45.1495 39.0728 40.7956 40.656 39.1558 40.656C37.8553 40.656 33.1621 39.0728 33.1621 37.1503C33.1621 35.2278 35.8197 33.6445 39.1558 33.6445C42.4919 33.6445 45.1495 35.2278 45.1495 37.1503Z" fill="black"/>
<path d="M27.4812 34.2658C23.2404 33.3045 19.9043 34.4354 17.5859 34.0962C20.187 31.9475 25.276 31.8344 27.4812 34.2658Z" fill="#EAEBED"/>
<path d="M61.948 34.0602C57.7072 33.099 54.371 34.2299 52.0527 33.8906C54.6538 31.7419 59.7427 31.6288 61.948 34.0602Z" fill="#EAEBED"/>
<path d="M16.5135 62.9933C27.7092 62.8802 39.3574 62.9933 50.44 62.7106C78.4294 61.1274 47.9521 69.3828 39.2443 68.5347C31.3846 68.4216 23.4119 67.2341 16.4004 63.5588L16.57 62.9933H16.5135Z" fill="#E6E9FF"/>
<g clip-path="url(#clip0_10005_16477)">
<path d="M25.6914 80.8598C26.1017 79.4858 27.3655 78.5442 28.7995 78.5442H51.2669C52.7009 78.5442 53.9647 79.4858 54.375 80.8598L58.2493 93.8342C58.8705 95.9146 57.3123 98.0061 55.1411 98.0061H24.9252C22.7541 98.0061 21.1958 95.9146 21.8171 93.8342L25.6914 80.8598Z" fill="#7486FF"/>
<path d="M47.7959 88.5373C48.2533 88.0799 48.5102 87.4595 48.5102 86.8127C48.5102 86.1659 48.2533 85.5455 47.7959 85.0881C47.3385 84.6307 46.7182 84.3738 46.0713 84.3738C45.4245 84.3738 44.8041 84.6307 44.3468 85.0881C43.8928 85.5469 43.6382 86.1666 43.6406 86.8127H36.4317C36.433 86.493 36.3713 86.1761 36.2501 85.8802C36.129 85.5843 35.9507 85.3151 35.7255 85.0881C35.2681 84.6307 34.6478 84.3738 34.0009 84.3738C33.3541 84.3738 32.7338 84.6307 32.2764 85.0881C31.819 85.5455 31.562 86.1659 31.562 86.8127C31.562 87.4595 31.819 88.0799 32.2764 88.5373C31.819 88.9947 31.562 89.615 31.562 90.2618C31.562 90.9087 31.819 91.529 32.2764 91.9864C32.7338 92.4438 33.3541 92.7007 34.0009 92.7007C34.6478 92.7007 35.2681 92.4438 35.7255 91.9864C35.9507 91.7594 36.129 91.4903 36.2501 91.1944C36.3713 90.8985 36.433 90.5816 36.4317 90.2618H43.6406C43.6382 90.908 43.8928 91.5276 44.3468 91.9864C44.8041 92.4438 45.4245 92.7007 46.0713 92.7007C46.7182 92.7007 47.3385 92.4438 47.7959 91.9864C48.2533 91.529 48.5102 90.9087 48.5102 90.2618C48.5102 89.615 48.2533 88.9947 47.7959 88.5373Z" fill="#F7F8FA"/>
</g>
<defs>
<clipPath id="clip0_10005_16477">
<rect width="38.9254" height="38.9254" fill="white" transform="translate(20.5703 69.0746)"/>
</clipPath>
</defs>
</svg>
