<svg width="277" height="249" viewBox="0 0 277 249" fill="none" xmlns="http://www.w3.org/2000/svg">
<path d="M146.623 99.7956H132.725L123.268 73.7182C121.549 69.9929 114.241 69.8496 112.665 73.575L102.922 95.9269C101.776 98.506 101.059 101.372 100.773 104.237L92.4623 191.926C92.4623 191.926 90.1698 205.538 90.3131 205.824H132.295L179.434 192.499H181.727C181.727 192.499 182.157 192.212 182.157 192.069C203.219 189.633 218.55 159.544 218.55 138.052V133.897C218.55 126.876 214.825 121.574 209.094 121.574H178.288C176.999 121.574 175.996 120.571 175.852 119.425L174.133 100.225C174.133 100.225 174.133 99.7956 174.133 99.6523L166.253 74.1481C164.82 70.4228 157.799 70.2795 156.509 74.1481L146.909 100.369L146.623 99.7956Z" fill="#F7F8FA"/>
<path d="M138.028 123.436C139.848 123.436 141.323 121.96 141.323 120.14C141.323 118.32 139.848 116.845 138.028 116.845C136.208 116.845 134.732 118.32 134.732 120.14C134.732 121.96 136.208 123.436 138.028 123.436Z" fill="black"/>
<path d="M157.939 123.436C159.759 123.436 161.235 121.96 161.235 120.14C161.235 118.32 159.759 116.845 157.939 116.845C156.119 116.845 154.644 118.32 154.644 120.14C154.644 121.96 156.119 123.436 157.939 123.436Z" fill="black"/>
<path d="M193.109 148.814C201.542 148.056 207.994 143.162 207.52 137.881C207.046 132.601 199.825 128.934 191.392 129.691C182.959 130.448 176.506 135.342 176.98 140.623C177.455 145.904 184.675 149.571 193.109 148.814Z" fill="black"/>
<path d="M182.441 211.261L80.9972 248.371C77.4151 249.517 74.1196 245.792 75.2659 241.923L87.3016 196.073C87.7314 194.497 100.34 195.5 108.364 196.36C112.519 196.789 116.674 196.789 120.83 196.503L181.151 192.348C183.73 192.348 185.88 194.64 185.88 197.506V206.246C185.88 208.539 184.447 210.544 182.441 211.261Z" fill="#E6E9FF"/>
<path d="M127.426 99.2113C123.128 101.074 112.668 102.937 109.659 99.6411C115.247 97.6352 122.268 96.4889 127.426 99.2113Z" fill="#EAEBED"/>
<path d="M169.262 99.652C164.677 101.085 154.217 101.945 151.495 98.3625C157.226 96.7864 164.39 96.4998 169.262 99.652Z" fill="#EAEBED"/>
<path d="M91.602 192.498C89.8826 196.94 79.9962 197.226 69.5366 193.358C59.077 189.489 53.3457 178.17 53.3457 178.17C53.3457 178.17 64.665 173.871 75.4111 177.31C87.4468 181.179 93.1781 188.056 91.602 192.498Z" fill="#E6E9FF"/>
<path d="M95.0418 202.954C99.6315 202.954 103.352 199.618 103.352 195.503C103.352 191.389 99.6315 188.053 95.0418 188.053C90.4521 188.053 86.7314 191.389 86.7314 195.503C86.7314 199.618 90.4521 202.954 95.0418 202.954Z" fill="#E6E9FF"/>
<path d="M185.884 197.94C171.269 199.802 157.371 209.116 144.905 213.414C154.362 201.235 171.412 199.372 185.741 196.937V197.796L185.884 197.94Z" fill="#B4BEFF"/>
<path d="M88.4462 191.343C82.7149 183.893 72.9718 184.896 64.8047 182.89C64.8047 179.594 75.9807 180.454 78.4165 182.173C82.7149 184.036 86.7268 186.758 89.1626 190.77L88.4462 191.2V191.343Z" fill="#B4BEFF"/>
<path d="M34.3013 84.5734C15.4687 87.0325 14.7706 59.0231 22.2333 60.8077C29.696 62.5924 22.0778 84.1388 1.82633 69.8502" stroke="#B4BEFF" stroke-width="3.33417" stroke-linecap="round"/>
<path d="M199.344 16.8535C200.166 16.254 201.322 16.8357 201.33 17.8533L201.374 23.0549C201.378 23.4901 201.518 23.9133 201.774 24.265L204.838 28.4683C205.438 29.2907 204.856 30.4466 203.838 30.4552L198.637 30.4988C198.202 30.5025 197.778 30.6423 197.427 30.8987L193.223 33.963C192.401 34.5626 191.245 33.9809 191.237 32.9632L191.193 27.7616C191.189 27.3264 191.049 26.9032 190.793 26.5515L187.729 22.3482C187.129 21.5258 187.711 20.3699 188.729 20.3614L193.93 20.3177C194.365 20.3141 194.789 20.1742 195.14 19.9178L199.344 16.8535Z" fill="#B4BEFF" stroke="#B4BEFF" stroke-width="0.833542"/>
<path d="M55.5246 78.2715C54.7022 77.6719 53.5463 78.2536 53.5378 79.2713L53.4941 84.4729C53.4904 84.9081 53.3506 85.3313 53.0942 85.683L50.0299 89.8863C49.4304 90.7087 50.0121 91.8646 51.0297 91.8731L56.2313 91.9168C56.6665 91.9205 57.0897 92.0603 57.4414 92.3167L61.6447 95.381C62.4671 95.9805 63.623 95.3988 63.6316 94.3812L63.6752 89.1796C63.6789 88.7444 63.8187 88.3212 64.0751 87.9695L67.1394 83.7662C67.7389 82.9438 67.1573 81.7879 66.1396 81.7793L60.938 81.7357C60.5028 81.732 60.0796 81.5922 59.7279 81.3358L55.5246 78.2715Z" fill="#B4BEFF" stroke="#B4BEFF" stroke-width="0.833542"/>
<rect x="20.6922" y="35.0277" width="39.795" height="49.1709" rx="5.00125" transform="rotate(-47.5565 20.6922 35.0277)" stroke="#E6E9FF" stroke-width="3.33417"/>
<rect x="27.208" y="35.6221" width="31.8781" height="28.7528" rx="3.33417" transform="rotate(-47.5565 27.208 35.6221)" fill="#E6E9FF"/>
<rect x="215.271" y="42.6165" width="59.1814" height="45.0112" rx="5.00125" transform="rotate(15.8945 215.271 42.6165)" stroke="#E6E9FF" stroke-width="3.33417"/>
<rect x="252.599" y="45.4456" width="15.8373" height="7.50187" rx="1.66708" transform="rotate(15.8945 252.599 45.4456)" stroke="#E6E9FF" stroke-width="3.33417"/>
<circle cx="237.453" cy="72.7667" r="8.75219" transform="rotate(15.8945 237.453 72.7667)" fill="#E6E9FF"/>
<circle cx="237.453" cy="72.7677" r="14.587" transform="rotate(15.8945 237.453 72.7677)" stroke="#E6E9FF" stroke-width="3.33417"/>
<rect x="60.5599" y="9.5134" width="39.795" height="49.1709" rx="5.00125" transform="rotate(-10.9507 60.5599 9.5134)" fill="white" stroke="#E6E9FF" stroke-width="3.33417"/>
<rect x="65.4346" y="13.873" width="31.8781" height="28.7528" rx="3.33417" transform="rotate(-10.9507 65.4346 13.873)" fill="#E6E9FF"/>
</svg>
