<svg width="254" height="234" viewBox="0 0 254 234" fill="none" xmlns="http://www.w3.org/2000/svg">
<path d="M2.59351 85.6922C15.683 101.792 37.2815 80.1011 30.0215 75.9095C22.7615 71.718 12.6151 94.5315 39.4133 98.4143" stroke="#B4BEFF" stroke-width="3.64266" stroke-linecap="round"/>
<path d="M208.851 26.8786C204.231 41.7141 185.707 30.3441 191.008 25.6018C196.308 20.8595 204.893 41.1213 189.378 43.1127" stroke="#B4BEFF" stroke-width="3.55609" stroke-linecap="round"/>
<path d="M56.0023 111.828C55.2975 110.968 53.9153 111.266 53.6266 112.339L52.1509 117.828C52.0274 118.287 51.7633 118.696 51.3955 118.997L47.0001 122.6C46.1402 123.304 46.4376 124.687 47.5113 124.975L52.9994 126.451C53.4586 126.574 53.8676 126.839 54.169 127.206L57.7714 131.602C58.4763 132.462 59.8584 132.164 60.1471 131.091L61.6228 125.602C61.7463 125.143 62.0104 124.734 62.3782 124.433L66.7736 120.83C67.6335 120.126 67.3361 118.744 66.2624 118.455L60.7743 116.979C60.3151 116.856 59.9061 116.591 59.6047 116.224L56.0023 111.828Z" fill="#B4BEFF" stroke="#B4BEFF" stroke-width="0.910665"/>
<path d="M241.328 61.5114L239.296 64.46C239.026 64.8515 238.64 65.1487 238.193 65.3099L234.823 66.5235C233.777 66.9003 233.596 68.3023 234.511 68.9334L237.46 70.9659C237.851 71.2357 238.148 71.6214 238.31 72.0688L239.523 75.4382C239.9 76.4842 241.302 76.6659 241.933 75.7505L243.966 72.8019C244.235 72.4104 244.621 72.1132 245.068 71.9521L248.438 70.7384C249.484 70.3616 249.666 68.9596 248.75 68.3286L245.802 66.296C245.41 66.0262 245.113 65.6405 244.952 65.1931L243.738 61.8238C243.361 60.7777 241.959 60.596 241.328 61.5114Z" fill="#B4BEFF" stroke="#B4BEFF" stroke-width="0.910665"/>
<path d="M98.0918 194.325C96.6176 198.133 88.1413 198.379 79.1735 195.062C70.2058 191.745 65.292 182.04 65.292 182.04C65.292 182.04 74.9968 178.355 84.2102 181.303C94.5293 184.62 99.4431 190.517 98.0918 194.325Z" fill="#E6E9FF"/>
<path d="M95.3867 193.467C90.4729 187.079 82.1194 187.938 75.1172 186.219C75.1172 183.393 84.6991 184.13 86.7875 185.604C90.4729 187.201 93.9126 189.535 96.0009 192.975L95.3867 193.344V193.467Z" fill="#B4BEFF"/>
<path d="M177.819 194.325C179.293 198.133 187.77 198.379 196.738 195.062C205.705 191.745 210.619 182.04 210.619 182.04C210.619 182.04 200.914 178.355 191.701 181.303C181.382 184.62 176.468 190.517 177.819 194.325Z" fill="#E6E9FF"/>
<path d="M179.781 192.972C184.081 186.462 193.294 182.039 200.788 185.356V186.093C193.786 187.813 185.432 186.953 180.518 193.341L179.904 192.972H179.781Z" fill="#B4BEFF"/>
<path d="M182.121 85.6025H93.9177C86.3013 85.6025 80.0361 91.8677 80.0361 99.4841V112.137C80.0361 114.84 82.2474 117.051 84.95 117.051H91.3379C94.0405 117.051 98.463 113.611 98.7087 110.909L85.4413 224.05C84.8271 229.332 89.0039 234 94.2862 234H181.629C186.912 234 191.089 229.332 190.474 224.05L177.207 110.909C177.453 113.611 181.875 117.051 184.578 117.051H190.966C193.668 117.051 195.88 114.84 195.88 112.137V99.4841C195.88 91.8677 189.614 85.6025 181.998 85.6025L182.121 85.6025Z" fill="#F7F8FA"/>
<path d="M176.714 107.714C174.011 104.643 169.589 96.7805 171.431 93.3408C174.625 97.2719 177.451 102.8 176.714 107.714Z" fill="#F7F8FA"/>
<path d="M99.1953 107.839C99.1953 103.785 101.284 94.9404 104.969 93.7119C104.723 98.7486 103.126 104.768 99.1953 107.839Z" fill="#F7F8FA"/>
<path d="M124.26 121.35C126.634 121.35 128.559 119.425 128.559 117.051C128.559 114.676 126.634 112.751 124.26 112.751C121.885 112.751 119.96 114.676 119.96 117.051C119.96 119.425 121.885 121.35 124.26 121.35Z" fill="black"/>
<path d="M151.78 121.35C154.155 121.35 156.08 119.425 156.08 117.051C156.08 114.676 154.155 112.751 151.78 112.751C149.405 112.751 147.48 114.676 147.48 117.051C147.48 119.425 149.405 121.35 151.78 121.35Z" fill="black"/>
<path d="M146.618 132.412C146.618 135.237 140.353 137.448 138.019 137.448C136.176 137.448 129.42 135.237 129.42 132.412C129.42 129.586 133.228 127.375 138.019 127.375C142.81 127.375 146.618 129.586 146.618 132.412Z" fill="black"/>
<path d="M88.7584 196.533C113.082 196.288 138.388 196.533 162.466 195.919C223.274 192.479 157.061 210.415 138.142 208.572C121.067 208.326 103.746 205.747 88.5127 197.762L88.8812 196.533H88.7584Z" fill="#E6E9FF"/>
<path d="M126.835 125.776C132.854 120.985 142.314 120.863 148.456 125.653L148.21 126.268C140.962 124.548 133.96 125.531 126.835 125.899V125.776Z" fill="#F7F8FA"/>
<path d="M57.5508 38.7031C65.2914 46.4438 68.9341 49.0624 80.3174 61.9251C85.916 68.2513 89.0604 71.4871 92.0243 77.422C93.4514 82.003 104.649 85.6024 118.371 85.6024C132.093 85.6024 136.484 81.8939 138.679 77.531C151.743 75.4587 165.465 75.5677 165.465 65.315C165.465 57.789 153.938 50.4812 130.336 51.681C122.213 52.1172 114.748 53.0989 108.491 54.5168C105.527 49.9358 95.9763 36.1927 89.0604 28.2305" stroke="#E6E9FF" stroke-width="3.64266" stroke-linecap="round" stroke-linejoin="round"/>
<path d="M128.472 9.09714C124.732 16.6566 128.945 23.7552 131.703 29.6091C132.676 31.6736 133.627 33.6361 135.171 34.4C136.715 35.164 138.851 34.7309 141.084 34.2492C147.411 32.8942 155.609 31.9353 159.349 24.3774C163.089 16.8196 157.252 7.25344 146.708 11.0844C143.357 0.377998 132.213 1.53773 128.472 9.09714Z" fill="#B4BEFF"/>
</svg>
