<svg width="238" height="211" viewBox="0 0 238 211" fill="none" xmlns="http://www.w3.org/2000/svg">
<path d="M187.326 114.079C187.326 101.263 178.781 90.6342 167.319 88.1334C164.923 76.0463 154.92 66.981 142.832 66.981C140.332 66.981 137.935 67.502 135.643 68.2314C132.1 58.124 123.035 50.8301 112.198 50.8301C101.361 50.8301 92.6083 57.8114 88.9614 67.6062C87.2942 67.1894 85.5228 66.981 83.6472 66.981C71.4559 66.981 61.3486 76.1505 59.0562 88.3418C48.011 91.1552 39.7793 101.575 39.7793 114.079C39.7793 120.852 42.2801 126.896 46.2397 131.585C45.3019 134.398 44.6767 137.42 44.6767 140.546C44.6767 155.134 55.9302 167.012 69.6845 167.012C69.9971 167.012 70.2055 167.012 70.4139 167.012L61.557 191.187C59.994 201.19 67.2879 210.359 76.9785 210.359H147.209C156.483 210.359 163.672 201.919 162.734 192.229L153.357 167.012C153.357 167.012 154.086 167.117 154.503 167.117C168.361 167.117 179.511 155.238 179.511 140.65C179.511 138.358 179.094 136.169 178.573 133.981C183.783 129.084 187.221 122.102 187.221 114.183L187.326 114.079Z" fill="#F7F8FA"/>
<path d="M98.5034 108.769C100.518 108.769 102.15 107.136 102.15 105.122C102.15 103.107 100.518 101.475 98.5034 101.475C96.4893 101.475 94.8564 103.107 94.8564 105.122C94.8564 107.136 96.4893 108.769 98.5034 108.769Z" fill="black"/>
<path d="M124.864 108.769C126.878 108.769 128.511 107.136 128.511 105.122C128.511 103.107 126.878 101.475 124.864 101.475C122.85 101.475 121.217 103.107 121.217 105.122C121.217 107.136 122.85 108.769 124.864 108.769Z" fill="black"/>
<path d="M122.977 119.29C122.977 122.833 114.954 125.751 111.932 125.751C109.535 125.751 100.887 122.833 100.887 119.29C100.887 115.748 105.784 112.83 111.932 112.83C118.08 112.83 122.977 115.748 122.977 119.29Z" fill="black"/>
<path d="M90.4195 113.974C82.6045 112.202 76.4567 114.286 72.1846 113.661C76.9777 109.702 86.3557 109.493 90.4195 113.974Z" fill="#EAEBED"/>
<path d="M153.936 113.596C146.121 111.824 139.973 113.908 135.701 113.283C140.494 109.324 149.872 109.115 153.936 113.596Z" fill="#EAEBED"/>
<path d="M70.2055 166.913C90.8369 166.705 112.302 166.913 132.725 166.392C184.304 163.475 128.14 178.688 112.094 177.125C97.6099 176.916 82.9178 174.728 69.9971 167.955L70.3097 166.913H70.2055Z" fill="#E6E9FF"/>
<path d="M225.272 92.9936L223.551 92.9027L223.46 94.6234C223.349 96.7297 222.406 98.7057 220.837 100.116C219.269 101.527 217.205 102.257 215.099 102.146C212.992 102.035 211.016 101.091 209.606 99.5232C208.196 97.9562 207.466 95.8938 207.576 93.7891C207.699 91.6879 208.646 89.7212 210.216 88.3197L211.506 87.1678L210.349 85.8821L191.22 64.6197L190.063 63.3334L188.781 64.4959C188.009 65.1962 187.107 65.7376 186.126 66.0891C185.146 66.4402 184.106 66.595 183.066 66.5446C180.961 66.4325 178.986 65.4893 177.577 63.922C176.166 62.3539 175.436 60.2896 175.547 58.1832C175.658 56.0769 176.602 54.101 178.17 52.6902C179.738 51.2794 181.802 50.5494 183.909 50.6606L185.629 50.7515L185.72 49.0309C185.831 46.9245 186.775 44.9486 188.343 43.5378C189.911 42.127 191.975 41.397 194.082 41.5082C196.188 41.6195 198.164 42.5629 199.575 44.131C200.985 45.6982 201.715 47.7609 201.604 49.8659C201.545 50.9055 201.282 51.9232 200.829 52.8611C200.376 53.7998 199.743 54.6401 198.965 55.334L197.674 56.4859L198.831 57.7721L217.96 79.0346L219.117 80.3203L220.398 79.1588C221.957 77.7457 224.013 77.0108 226.115 77.1096C228.22 77.222 230.194 78.1653 231.604 79.7322C233.015 81.3003 233.745 83.3646 233.633 85.471C233.522 87.5774 232.579 89.5533 231.011 90.964C229.442 92.3748 227.378 93.1049 225.272 92.9936Z" stroke="#E6E9FF" stroke-width="3.44608"/>
<path fill-rule="evenodd" clip-rule="evenodd" d="M183.53 11.7956C183.805 11.1726 183.524 10.4441 182.901 10.1684C182.278 9.89282 181.549 10.1744 181.273 10.7975L179.702 14.3485L178.302 10.7261C178.056 10.0906 177.342 9.77465 176.707 10.0203C176.071 10.2659 175.755 10.9802 176.001 11.6156L177.401 15.2381L173.85 13.6671C173.227 13.3915 172.499 13.6731 172.223 14.2961C171.948 14.9191 172.229 15.6476 172.852 15.9232L176.403 17.4941L172.78 18.8945C172.145 19.1401 171.829 19.8544 172.075 20.4898C172.32 21.1252 173.034 21.4412 173.67 21.1956L177.293 19.795L175.721 23.3472C175.446 23.9703 175.727 24.6987 176.35 24.9744C176.973 25.25 177.702 24.9684 177.977 24.3454L179.549 20.7934L180.949 24.4156C181.195 25.051 181.909 25.367 182.544 25.1213C183.18 24.8757 183.496 24.1614 183.25 23.526L181.85 19.9039L185.402 21.4753C186.025 21.7509 186.753 21.4693 187.029 20.8463C187.305 20.2233 187.023 19.4948 186.4 19.2191L182.848 17.6476L186.47 16.2474C187.105 16.0018 187.421 15.2875 187.176 14.6521C186.93 14.0167 186.216 13.7007 185.58 13.9463L181.959 15.3463L183.53 11.7956Z" fill="#B4BEFF"/>
<path fill-rule="evenodd" clip-rule="evenodd" d="M13.4022 87.0623C13.4022 86.0835 12.6087 85.29 11.6299 85.29C10.6511 85.29 9.85765 86.0835 9.85765 87.0623V92.6421L5.91266 88.6971C5.22055 88.005 4.09841 88.005 3.4063 88.6971C2.71418 89.3892 2.71418 90.5114 3.4063 91.2035L7.35043 95.1476H1.77227C0.793471 95.1476 4.27826e-08 95.9411 0 96.9199C-4.27863e-08 97.8987 0.793471 98.6922 1.77227 98.6922H7.35154L3.40623 102.637C2.71411 103.33 2.71411 104.452 3.40623 105.144C4.09834 105.836 5.22048 105.836 5.91259 105.144L9.85765 101.199V106.779C9.85765 107.758 10.6511 108.551 11.6299 108.551C12.6087 108.551 13.4022 107.758 13.4022 106.779V101.199L17.348 105.145C18.0401 105.837 19.1622 105.837 19.8543 105.145C20.5464 104.453 20.5464 103.331 19.8543 102.639L15.9077 98.6922H21.4888C22.4675 98.6922 23.261 97.8987 23.261 96.9199C23.261 95.9411 22.4675 95.1476 21.4888 95.1476H15.9088L19.8543 91.2022C20.5464 90.5101 20.5464 89.3879 19.8543 88.6958C19.1621 88.0037 18.04 88.0037 17.3479 88.6958L13.4022 92.6415V87.0623Z" fill="#B4BEFF"/>
<path d="M104.083 9.35776C104.066 24.0575 84.1427 18.9752 87.6029 13.2047C91.0631 7.43429 104.499 23.3362 91.0376 29.4839" stroke="#B4BEFF" stroke-width="3.36418" stroke-linecap="round"/>
<path d="M117.256 133.117C117.256 133.117 118.548 135.259 119.766 136.366C121.866 138.274 123.939 138.853 126.302 138.705C128.222 138.557 129.748 136.896 129.748 134.828C129.748 133.204 128.405 133.191 127.076 132.674C126.043 132.305 125.083 131.936 124.197 131.345C124.049 131.271 122.572 130.09 122.498 130.09L117.256 133.117Z" fill="#FFD8DE"/>
<path d="M100.025 130.09C100.025 130.09 111.396 137.843 123.506 130.09" stroke="black" stroke-width="1.84594" stroke-linecap="round" stroke-linejoin="round"/>
<path d="M54.1196 53.9906C65.7963 47.5257 70.0214 32.819 63.5564 21.1422C57.0915 9.46547 42.3848 5.24045 30.7081 11.7054C19.0313 18.1703 14.8063 32.877 21.2712 44.5538C27.7361 56.2305 42.4428 60.4555 54.1196 53.9906Z" stroke="#E6E9FF" stroke-width="3.44608" stroke-linecap="round" stroke-linejoin="round"/>
<path d="M64.5201 42.4919C56.6951 41.8734 49.3059 37.4693 45.2291 30.1059C41.4384 23.2593 41.3064 15.3998 44.2227 8.77806" stroke="#E6E9FF" stroke-width="3.44608" stroke-linecap="round" stroke-linejoin="round"/>
<path d="M39.1141 56.5585C42.7432 49.5984 42.9325 40.9983 38.8558 33.635C34.779 26.2717 28.4741 22.505 21.3142 21.4619" stroke="#E6E9FF" stroke-width="3.44608" stroke-linecap="round" stroke-linejoin="round"/>
</svg>
