<svg width="42" height="38" viewBox="0 0 42 38" fill="none" xmlns="http://www.w3.org/2000/svg">
<path d="M19.9807 15.4767C25.7639 14.9186 26.6126 18.9741 30.0701 22.1782C32.5492 24.4757 36.0126 25.6175 37.6903 28.7429C39.836 32.7393 37.6617 37.4091 32.9874 37.7526C28.7554 38.0637 24.1118 36.6206 19.7492 36.7614C14.9899 36.915 5.34959 40.2726 3.75787 33.5248C2.26607 27.2014 8.49641 25.4433 12.0043 22.1782C14.4705 19.8827 16.2532 15.836 19.9807 15.4767Z" fill="#7486FF"/>
<path d="M13.6567 0.0489756C21.4412 -0.93144 21.9754 13.131 14.4224 13.2934C7.45113 13.4431 6.86054 0.905363 13.6567 0.0489756Z" fill="#7486FF"/>
<path d="M26.9893 0.0521932C33.456 -0.725446 35.4563 9.65948 29.9748 12.6509C25.9723 14.8352 22.3309 11.0454 22.0756 7.14643C21.8798 4.15399 23.7346 0.443966 26.9893 0.0521932Z" fill="#7486FF"/>
<path d="M36.0756 11.0577C43.0083 10.5192 44.2963 20.7152 37.5822 21.9879C29.9323 23.4369 28.4316 11.6513 36.0756 11.0577Z" fill="#7486FF"/>
<path d="M4.97161 11.0567C11.8944 10.4188 13.3427 20.7339 6.49704 22.0057C-1.03318 23.4054 -2.62984 11.7576 4.97161 11.0567Z" fill="#7486FF"/>
</svg>
