<svg width="48" height="48" viewBox="0 0 48 48" fill="none" xmlns="http://www.w3.org/2000/svg">
<path fill-rule="evenodd" clip-rule="evenodd" d="M24 44C35.0457 44 44 35.0457 44 24C44 12.9543 35.0457 4 24 4C12.9543 4 4 12.9543 4 24C4 35.0457 12.9543 44 24 44ZM26.5051 23.7949C25.6566 22.7286 24.9324 21.8183 23.0391 22.001C21.8566 22.115 21.1067 23.0494 20.3795 23.9556C20.0697 24.3416 19.764 24.7225 19.4307 25.0327C19.0262 25.4092 18.5416 25.7415 18.0552 26.0749C16.6338 27.0495 15.1974 28.0343 15.7002 30.1657C16.2632 32.5526 19.0524 32.1444 21.2715 31.8197L21.2715 31.8196C21.8904 31.7291 22.4649 31.645 22.9344 31.6299C23.8748 31.5995 24.844 31.7319 25.8082 31.8635H25.8082H25.8082H25.8083H25.8083L25.8083 31.8635C26.8676 32.0081 27.9209 32.1519 28.9231 32.0783C31.0377 31.9229 32.0213 29.8103 31.0507 28.0024C30.5675 27.1024 29.757 26.566 28.9424 26.0269C28.4774 25.7191 28.011 25.4104 27.6034 25.0327C27.1712 24.6321 26.8291 24.2022 26.5051 23.795L26.5051 23.795L26.5051 23.7949L26.5051 23.7949ZM20.1783 15.0222C23.6999 14.5786 23.9415 20.9403 20.5247 21.0137C17.371 21.0814 17.1038 15.4096 20.1783 15.0222ZM27.5603 20.7231C30.04 19.3698 29.1352 14.6718 26.2097 15.0236C24.7373 15.2009 23.8982 16.8792 23.9868 18.2329C24.1023 19.9968 25.7496 21.7112 27.5603 20.7231ZM30.3202 20.0025C33.4564 19.7589 34.0391 24.3714 31.0017 24.9471C27.541 25.6026 26.8621 20.271 30.3202 20.0025ZM16.2491 20.0021C19.3808 19.7135 20.036 24.3799 16.9392 24.9552C13.5326 25.5884 12.8103 20.3192 16.2491 20.0021Z" fill="currentColor"/>
</svg>
