<svg width="162" height="148" viewBox="0 0 162 148" fill="none" xmlns="http://www.w3.org/2000/svg">
<path d="M119.908 79.5C127.255 70 130.5 55 127.059 38.0929C126.038 33.0807 123.438 25.9136 117.976 15.7986C115.858 11.8764 110.338 6.18825 104.163 4.67189C101.804 3.6221 97.6568 3.01296 95.0777 3C92.7449 3 91.721 4.36084 91.721 6.18825L90.9823 22.0388L80.8343 20.4965C82.7783 6.18825 71.762 3 63.9599 3C62.1325 3.03888 60.6032 4.36084 60.6032 6.18825C60.6032 6.18825 65.3363 54.8137 36.8491 55.6394" stroke="#1A1D33" stroke-width="5" stroke-linecap="round" stroke-linejoin="round"/>
<path d="M101.255 60.6149C100.158 72.6464 83.7227 83.3551 65.7843 82.1802C53.2239 81.3574 37.2617 74.7596 37.2617 55.8457" stroke="#1A1D33" stroke-width="5" stroke-linecap="round" stroke-linejoin="round"/>
<path d="M57.0135 61.7475C57.9115 61.0451 58.3337 60.3747 58.4698 59.7655C58.858 58.0276 58.3371 56.1921 56.7636 54.4816C55.1647 52.7436 52.5208 51.2166 49.013 50.4282L57.0135 61.7475ZM57.0135 61.7475C56.1102 62.4542 54.8633 63.0796 53.4001 63.5909M57.0135 61.7475L53.4001 63.5909M53.4001 63.5909C50.6501 64.5518 47.5726 64.961 45.6602 64.9652M53.4001 63.5909L45.6602 64.9652M45.6602 64.9652C44.2061 64.3633 41.6958 62.7091 39.557 60.5857C38.4298 59.4666 37.5254 58.3323 36.9707 57.3058C36.3967 56.2438 36.3488 55.5869 36.4225 55.2562L45.6602 64.9652ZM40.7333 51.1044C38.2195 52.1242 36.7768 53.6704 36.4226 55.256L40.7333 51.1044ZM40.7333 51.1044C43.2033 50.1024 46.2778 49.8135 49.0129 50.4282L40.7333 51.1044Z" fill="#1A1D33" stroke="#1A1D33" stroke-width="4.95429"/>
<path d="M82.0587 47.6415C82.0587 48.0628 81.7171 48.4044 81.2958 48.4044C80.8744 48.4044 80.5328 48.0628 80.5328 47.6415C80.5328 47.2201 80.8744 46.8785 81.2958 46.8785C81.7171 46.8785 82.0587 47.2201 82.0587 47.6415Z" fill="#1A1D33" stroke="#1A1D33" stroke-width="4.95429"/>
<path d="M65.2105 45.0487C65.2105 45.47 64.869 45.8116 64.4476 45.8116C64.0262 45.8116 63.6847 45.47 63.6847 45.0487C63.6847 44.6273 64.0262 44.2857 64.4476 44.2857C64.869 44.2857 65.2105 44.6273 65.2105 45.0487Z" fill="#1A1D33" stroke="#1A1D33" stroke-width="4.95429"/>
<path d="M46.7578 66.5801L48.6157 75.6629" stroke="#1A1D33" stroke-width="4" stroke-linecap="round"/>
<path fill-rule="evenodd" clip-rule="evenodd" d="M25.9245 95.2041C24.1154 94.2996 21.3728 94.3171 20.1499 94.325C20.0499 94.3256 19.96 94.3262 19.8816 94.3262H14.1543V115.652H19.7953L20.0255 109.292C21.8675 109.292 23.7382 109.148 25.2636 108.774C26.8466 108.399 28.1992 107.363 28.9763 105.924C29.6958 104.601 30.1563 103.046 30.1563 101.118C30.1563 97.8085 27.8827 96.1681 25.9544 95.2183L25.9245 95.2041ZM25.911 103.467C25.6719 103.563 25.4202 103.633 25.1629 103.643C22.4677 103.75 21.5238 101.275 23.3089 100.622L24.6167 100.061C26.4822 99.2136 27.8858 101.136 26.8714 102.756C26.6549 103.102 26.2897 103.316 25.911 103.467ZM19.2035 100.509C18.6474 100.539 18.1728 100.112 18.1434 99.5555C18.114 98.9994 18.541 98.5248 19.0971 98.4954C19.6532 98.466 20.1279 98.893 20.1572 99.4491C20.1866 100.005 19.7596 100.48 19.2035 100.509ZM23.1141 98.4524C23.1359 98.8646 23.4877 99.181 23.8998 99.1593C24.312 99.1375 24.6285 98.7857 24.6067 98.3736C24.5849 97.9615 24.2332 97.645 23.821 97.6668C23.4088 97.6885 23.0924 98.0403 23.1141 98.4524Z" fill="#7486FF"/>
<path d="M46.6163 94.2969L32.6289 94.3832V115.421L36.1689 115.594H46.3285L46.2997 110.414L38.8743 109.723L38.7304 107.708L46.2421 107.277V102.729L38.385 102.211L38.2987 100.254L46.2134 99.8514L46.6163 94.2969Z" fill="#7486FF"/>
<path d="M48.144 99.9948L53.8714 100.311L53.785 115.622L60.3182 115.68L60.4622 100.139H66.0456L66.1032 94.3252H48.4606L48.144 99.9948Z" fill="#7486FF"/>
<path d="M85.5278 94.3252L79.5702 103.103L72.6916 94.3252L67.8853 94.3828L68.2018 115.737L73.8716 115.622L74.6199 105.808L79.3112 111.91L84.4629 105.895L85.1249 115.737L90.7659 115.622L90.7083 94.3828L85.5278 94.3252Z" fill="#7486FF"/>
<path d="M98.623 94.3252L92.061 115.651H97.8172L99.5152 110.845L105.271 110.902L107.142 115.622H113.186L106.164 94.3252H98.6518H98.623ZM100.465 105.521C100.465 105.521 100.35 105.262 100.35 105.089C100.35 104.657 100.465 104.254 100.638 103.851C100.925 103.074 101.386 102.24 102.019 101.664C102.105 101.578 102.221 101.491 102.364 101.463C102.71 101.405 102.998 101.664 103.199 101.923C103.516 102.297 103.717 102.729 103.861 103.189C104.178 104.082 104.465 105.405 103.401 105.895C102.739 106.211 101.962 106.24 101.242 106.039C100.925 105.952 100.638 105.78 100.465 105.492V105.521Z" fill="#7486FF"/>
<path d="M110.938 100.168L116.032 100.024L116.176 115.738L122.882 115.594L122.796 99.7938L127.919 99.6499L128.063 94.3257L110.679 94.2969L110.938 100.168Z" fill="#7486FF"/>
<g clip-path="url(#clip0_8430_3484)">
<path d="M136.75 99.8602L129.305 99.5705L131.709 94.2686H146.021L138.836 109.914L147.875 110.117L144.746 115.737H129.768L136.75 99.8602Z" fill="#7486FF"/>
</g>
<path d="M20.9106 138.745V140.457H7.87063V138.745H20.9106ZM15.4066 139.849V145.113H13.2786V139.849H15.4066ZM14.3506 131.193C15.3746 131.193 16.2813 131.327 17.0706 131.593C17.86 131.86 18.4733 132.239 18.9106 132.729C19.348 133.209 19.5666 133.78 19.5666 134.441C19.5666 135.081 19.348 135.647 18.9106 136.137C18.4733 136.628 17.86 137.007 17.0706 137.273C16.2813 137.54 15.3693 137.673 14.3346 137.673C13.3213 137.673 12.42 137.54 11.6306 137.273C10.8413 137.007 10.228 136.628 9.79063 136.137C9.35329 135.647 9.13463 135.081 9.13463 134.441C9.13463 133.78 9.35329 133.209 9.79063 132.729C10.228 132.239 10.8413 131.86 11.6306 131.593C12.42 131.327 13.3266 131.193 14.3506 131.193ZM14.3346 132.873C13.716 132.873 13.1773 132.932 12.7186 133.049C12.2706 133.167 11.924 133.343 11.6786 133.577C11.444 133.812 11.3266 134.1 11.3266 134.441C11.3266 134.772 11.444 135.055 11.6786 135.289C11.924 135.524 12.2706 135.7 12.7186 135.817C13.1773 135.935 13.716 135.993 14.3346 135.993C14.964 135.993 15.508 135.935 15.9666 135.817C16.4253 135.7 16.7773 135.524 17.0226 135.289C17.268 135.055 17.3906 134.772 17.3906 134.441C17.3906 134.1 17.268 133.812 17.0226 133.577C16.7773 133.343 16.4253 133.167 15.9666 133.049C15.508 132.932 14.964 132.873 14.3346 132.873ZM33.855 130.681V145.129H31.711V130.681H33.855ZM23.903 140.041C25.3003 140.041 26.5217 140.009 27.567 139.945C28.623 139.881 29.6843 139.759 30.751 139.577L30.959 141.289C29.8817 141.481 28.799 141.615 27.711 141.689C26.6337 141.753 25.359 141.785 23.887 141.785H22.623V140.041H23.903ZM29.407 131.913V137.513H24.783V140.713H22.623V135.833H27.247V133.609H22.591V131.913H29.407ZM48.8794 137.449V139.145H35.8554V137.449H48.8794ZM43.4234 135.305V138.105H41.2954V135.305H43.4234ZM47.4074 134.617V136.313H37.4234V134.617H47.4074ZM47.3274 131.321V133.001H39.5354V135.705H37.4234V131.321H47.3274ZM42.3194 139.833C43.8874 139.833 45.1087 140.068 45.9834 140.537C46.8687 140.996 47.3114 141.647 47.3114 142.489C47.3114 143.332 46.8687 143.983 45.9834 144.441C45.098 144.9 43.8714 145.129 42.3034 145.129C40.746 145.129 39.5247 144.9 38.6394 144.441C37.754 143.983 37.3114 143.332 37.3114 142.489C37.3114 141.647 37.7487 140.996 38.6234 140.537C39.5087 140.068 40.7407 139.833 42.3194 139.833ZM42.3034 141.433C41.354 141.433 40.6394 141.524 40.1594 141.705C39.69 141.876 39.4554 142.137 39.4554 142.489C39.4554 142.841 39.69 143.103 40.1594 143.273C40.6287 143.433 41.3487 143.513 42.3194 143.513C43.2794 143.513 43.994 143.433 44.4634 143.273C44.9327 143.103 45.1674 142.841 45.1674 142.489C45.1674 142.137 44.9274 141.876 44.4474 141.705C43.978 141.524 43.2634 141.433 42.3034 141.433ZM52.4478 132.073V140.409H50.3518V132.073H52.4478ZM51.3758 139.865C52.3571 139.865 53.2104 139.839 53.9358 139.785C54.6718 139.732 55.4291 139.631 56.2078 139.481L56.4798 141.241C55.6904 141.423 54.9011 141.54 54.1118 141.593C53.3331 141.647 52.4211 141.673 51.3758 141.673H50.3518V139.865H51.3758ZM62.2238 130.697V145.097H60.2078V130.697H62.2238ZM57.6158 135.209V136.937H54.3518V135.209H57.6158ZM59.1358 130.937V144.457H57.1518V130.937H59.1358ZM79.5596 130.713V139.129H77.4156V130.713H79.5596ZM77.8636 134.073V135.769H74.4236V134.073H77.8636ZM74.9036 131.721V138.329H68.0716V131.721H74.9036ZM70.1676 133.417V136.665H72.8076V133.417H70.1676ZM74.6476 139.497C76.1836 139.497 77.3943 139.748 78.2796 140.249C79.165 140.74 79.6076 141.423 79.6076 142.297C79.6076 143.193 79.165 143.887 78.2796 144.377C77.3943 144.868 76.1836 145.113 74.6476 145.113C73.1223 145.113 71.917 144.868 71.0316 144.377C70.157 143.887 69.7196 143.193 69.7196 142.297C69.7196 141.423 70.157 140.74 71.0316 140.249C71.917 139.748 73.1223 139.497 74.6476 139.497ZM74.6476 141.129C74.029 141.129 73.5116 141.172 73.0956 141.257C72.6903 141.343 72.381 141.471 72.1676 141.641C71.9543 141.812 71.8476 142.031 71.8476 142.297C71.8476 142.564 71.9543 142.788 72.1676 142.969C72.381 143.14 72.6903 143.273 73.0956 143.369C73.5116 143.455 74.029 143.497 74.6476 143.497C75.277 143.497 75.7996 143.455 76.2156 143.369C76.6316 143.273 76.9463 143.14 77.1596 142.969C77.373 142.788 77.4796 142.564 77.4796 142.297C77.4796 142.031 77.373 141.812 77.1596 141.641C76.9463 141.471 76.6316 141.343 76.2156 141.257C75.7996 141.172 75.277 141.129 74.6476 141.129ZM93.544 130.713V139.129H91.4V130.713H93.544ZM91.848 134.073V135.769H88.408V134.073H91.848ZM88.888 131.721V138.329H82.056V131.721H88.888ZM84.152 133.417V136.665H86.792V133.417H84.152ZM88.632 139.497C90.168 139.497 91.3787 139.748 92.264 140.249C93.1493 140.74 93.592 141.423 93.592 142.297C93.592 143.193 93.1493 143.887 92.264 144.377C91.3787 144.868 90.168 145.113 88.632 145.113C87.1067 145.113 85.9013 144.868 85.016 144.377C84.1413 143.887 83.704 143.193 83.704 142.297C83.704 141.423 84.1413 140.74 85.016 140.249C85.9013 139.748 87.1067 139.497 88.632 139.497ZM88.632 141.129C88.0133 141.129 87.496 141.172 87.08 141.257C86.6747 141.343 86.3653 141.471 86.152 141.641C85.9387 141.812 85.832 142.031 85.832 142.297C85.832 142.564 85.9387 142.788 86.152 142.969C86.3653 143.14 86.6747 143.273 87.08 143.369C87.496 143.455 88.0133 143.497 88.632 143.497C89.2613 143.497 89.784 143.455 90.2 143.369C90.616 143.273 90.9307 143.14 91.144 142.969C91.3573 142.788 91.464 142.564 91.464 142.297C91.464 142.031 91.3573 141.812 91.144 141.641C90.9307 141.471 90.616 141.343 90.2 141.257C89.784 141.172 89.2613 141.129 88.632 141.129ZM107.416 130.681V145.129H105.272V130.681H107.416ZM99.6404 131.673C100.376 131.673 101.027 131.887 101.592 132.313C102.168 132.729 102.616 133.332 102.936 134.121C103.267 134.9 103.432 135.801 103.432 136.825C103.432 137.871 103.267 138.788 102.936 139.577C102.616 140.356 102.168 140.959 101.592 141.385C101.027 141.801 100.376 142.009 99.6404 142.009C98.915 142.009 98.2644 141.801 97.6884 141.385C97.1124 140.959 96.659 140.356 96.3284 139.577C96.0084 138.788 95.8484 137.871 95.8484 136.825C95.8484 135.791 96.0084 134.884 96.3284 134.105C96.659 133.327 97.1124 132.729 97.6884 132.313C98.2644 131.887 98.915 131.673 99.6404 131.673ZM99.6404 133.625C99.2884 133.625 98.979 133.748 98.7124 133.993C98.4564 134.239 98.2537 134.601 98.1044 135.081C97.9657 135.561 97.8964 136.143 97.8964 136.825C97.8964 137.519 97.9657 138.111 98.1044 138.601C98.2537 139.081 98.4564 139.449 98.7124 139.705C98.979 139.951 99.2884 140.073 99.6404 140.073C99.9924 140.073 100.296 139.951 100.552 139.705C100.819 139.449 101.022 139.081 101.16 138.601C101.31 138.111 101.384 137.519 101.384 136.825C101.384 136.143 101.31 135.561 101.16 135.081C101.022 134.601 100.819 134.239 100.552 133.993C100.296 133.748 99.9924 133.625 99.6404 133.625ZM120.704 134.745V137.513H118.576V134.745H120.704ZM124.64 133.977V135.641H114.752V133.977H124.64ZM124.512 131.193V132.857H116.864V134.873H114.752V131.193H124.512ZM126.144 136.505V138.169H113.136V136.505H126.144ZM124.576 138.889V142.633H116.72V143.849H114.64V141.161H122.48V140.457H114.608V138.889H124.576ZM124.96 143.417V145.017H114.64V143.417H124.96ZM140.161 141.705V143.433H127.121V141.705H140.161ZM134.689 138.665V142.121H132.561V138.665H134.689ZM130.593 131.593V133.785H136.641V131.593H138.753V139.097H128.481V131.593H130.593ZM130.593 137.417H136.641V135.449H130.593V137.417ZM153.105 130.697V145.097H150.961V130.697H153.105ZM148.833 132.169C148.833 133.737 148.63 135.156 148.225 136.425C147.82 137.684 147.132 138.841 146.161 139.897C145.19 140.953 143.878 141.881 142.225 142.681L141.121 141.001C142.486 140.351 143.574 139.62 144.385 138.809C145.206 137.999 145.798 137.087 146.161 136.073C146.524 135.06 146.705 133.892 146.705 132.569V132.169H148.833ZM147.713 132.169V133.865H141.889V132.169H147.713Z" fill="#9FA4A8"/>
<defs>
<clipPath id="clip0_8430_3484">
<rect width="18.5411" height="21.4686" fill="white" transform="translate(129.305 94.2686)"/>
</clipPath>
</defs>
</svg>
