<svg width="98" height="85" viewBox="0 0 98 85" fill="none" xmlns="http://www.w3.org/2000/svg">
<path fill-rule="evenodd" clip-rule="evenodd" d="M30.6572 0.000565767C30.675 0.000188589 30.6927 0 30.7104 0C34.8542 0 40.1869 0.830365 44.2917 3.87462C48.1516 6.73732 50.5774 11.2951 50.2861 17.8783L55.3647 18.6502L55.9718 5.62388C55.9838 4.27827 56.3753 2.81597 57.4742 1.67474C58.6098 0.495498 60.1714 0 61.8282 0H61.8408V3.14713e-05C64.5438 0.0136144 68.9179 0.615274 71.721 1.79735C75.2315 2.70721 78.4259 4.72373 80.9818 6.94674C83.59 9.21524 85.7035 11.8469 86.9259 14.1107C92.4527 24.3455 95.1717 31.7534 96.2588 37.0943C99.8096 54.5384 96.5267 70.3263 88.6358 80.5294C87.7911 81.6216 86.221 81.8223 85.1288 80.9776C84.0366 80.1329 83.836 78.5628 84.6806 77.4706C91.484 68.6737 94.6914 54.4616 91.3593 38.0916C90.406 33.408 87.9238 26.4817 82.5264 16.4865C81.6309 14.8282 79.9255 12.6546 77.7005 10.7194C75.4744 8.7832 72.8984 7.23361 70.3172 6.59975C70.1731 6.56437 70.0325 6.51622 69.8969 6.4559C67.9716 5.59903 64.21 5.01309 61.8225 5C61.4828 5.00056 61.2831 5.05047 61.1834 5.08721C61.1338 5.10545 61.1061 5.12136 61.0934 5.12953C61.0812 5.13741 61.0768 5.14197 61.0759 5.14292L61.0758 5.14295C61.0748 5.14399 61.0709 5.14809 61.0643 5.1591C61.0575 5.17061 61.0452 5.1938 61.0317 5.2332C61.0037 5.3143 60.9715 5.46079 60.9715 5.68825C60.9715 5.72706 60.9706 5.76587 60.9688 5.80464L60.23 21.6552C60.1971 22.3627 59.8655 23.0231 59.3177 23.4721C58.77 23.9212 58.0574 24.1168 57.3571 24.0104L47.2092 22.4681C45.8593 22.2629 44.9237 21.0128 45.1076 19.6599C45.9754 13.2728 43.9633 9.85609 41.3132 7.89069C38.4539 5.77009 34.3931 5.00456 30.7431 5.00002C30.4225 5.01155 30.1823 5.13133 30.0425 5.26043C29.9334 5.36112 29.8724 5.47348 29.8574 5.61566C29.8661 5.71546 29.8782 5.85806 29.8924 6.0407C29.9214 6.41422 29.9596 6.9555 29.9976 7.64088C30.0735 9.01102 30.1488 10.9606 30.1481 13.2996C30.1467 17.9645 29.8432 24.24 28.6136 30.5801C27.3904 36.8874 25.2114 43.4699 21.3177 48.5795C17.35 53.7863 11.6301 57.4077 3.67206 57.6383C2.29193 57.6783 1.14068 56.5919 1.10068 55.2118C1.06068 53.8317 2.14706 52.6804 3.5272 52.6404C9.81276 52.4582 14.1839 49.6917 17.3408 45.549C20.5717 41.3092 22.5507 35.5805 23.7051 29.6282C24.8531 23.7088 25.1468 17.7764 25.1481 13.2981C25.1488 11.0656 25.0769 9.20987 25.0053 7.91758C24.9695 7.27175 24.9338 6.76754 24.9074 6.42836C24.8942 6.2588 24.8834 6.13056 24.876 6.04658L24.8677 5.9542L24.8658 5.9336L24.8655 5.93045L24.8654 5.92983L24.8654 5.92959C24.8576 5.84938 24.8537 5.76883 24.8537 5.68825C24.8537 2.27095 27.7122 0.063226 30.6572 0.000565767Z" fill="#1A1D33"/>
<path fill-rule="evenodd" clip-rule="evenodd" d="M4.01221 52.8457C5.39292 52.8457 6.51221 53.965 6.51221 55.3457C6.51221 63.9796 10.1021 69.6242 15.0508 73.2878C20.1083 77.0319 26.7264 78.7943 32.6982 79.1855C41.1425 79.7386 49.2176 77.4873 55.2654 73.7269C61.3717 69.9301 65.0638 64.8419 65.5155 59.8879C65.6409 58.5129 66.8572 57.4999 68.2322 57.6253C69.6072 57.7506 70.6202 58.9669 70.4948 60.3419C69.8495 67.4195 64.7756 73.7014 57.9056 77.973C50.977 82.2811 41.8654 84.7967 32.3714 84.1748C25.7827 83.7433 18.1395 81.7954 12.0758 77.3064C5.9034 72.7369 1.51221 65.6256 1.51221 55.3457C1.51221 53.965 2.6315 52.8457 4.01221 52.8457Z" fill="#1A1D33"/>
<path d="M27.6378 59.8056C26.4409 65.1637 16.2784 67.0674 11.9458 66.9359C8.21266 65.6771 -0.280436 58.8551 0.755477 54.2161C1.9524 48.8579 9.83386 46.0567 16.3066 47.5113C24.0827 49.259 28.8347 54.4474 27.6378 59.8056Z" fill="#1A1D33"/>
<path fill-rule="evenodd" clip-rule="evenodd" d="M22.8068 58.7068C22.781 58.7609 22.6596 58.9665 22.2377 59.2965C21.6199 59.7798 20.644 60.2944 19.3335 60.7524C17.0889 61.5367 14.588 61.9081 12.925 61.9764C11.7915 61.402 9.83048 60.0927 8.05279 58.3278C7.02864 57.311 6.30103 56.3693 5.90041 55.628C5.76294 55.3737 5.69207 55.1972 5.65618 55.09C5.87494 54.5475 6.57507 53.6463 8.41503 52.8998C10.4259 52.0841 12.9863 51.843 15.2202 52.345M11.9458 66.9359C16.2784 67.0674 26.4409 65.1637 27.6378 59.8056C28.8347 54.4474 24.0827 49.259 16.3066 47.5113C9.83386 46.0567 1.9524 48.8579 0.755477 54.2161C-0.280436 58.8551 8.21266 65.6771 11.9458 66.9359ZM22.8068 58.7068C22.9782 57.9127 22.8189 56.8848 21.691 55.6587C20.5036 54.3681 18.3478 53.048 15.2202 52.345" fill="#1A1D33"/>
<path d="M48.0462 50.3815C49.8357 50.3815 51.2863 48.9309 51.2863 47.1415C51.2863 45.352 49.8357 43.9014 48.0462 43.9014C46.2568 43.9014 44.8062 45.352 44.8062 47.1415C44.8062 48.9309 46.2568 50.3815 48.0462 50.3815Z" fill="#1A1D33"/>
<path fill-rule="evenodd" clip-rule="evenodd" d="M48.0462 45.4272C47.0995 45.4272 46.332 46.1947 46.332 47.1415C46.332 48.0882 47.0995 48.8557 48.0462 48.8557C48.993 48.8557 49.7604 48.0882 49.7604 47.1415C49.7604 46.1947 48.993 45.4272 48.0462 45.4272ZM51.2863 47.1415C51.2863 48.9309 49.8357 50.3815 48.0462 50.3815C46.2568 50.3815 44.8062 48.9309 44.8062 47.1415C44.8062 45.352 46.2568 43.9014 48.0462 43.9014C49.8357 43.9014 51.2863 45.352 51.2863 47.1415Z" fill="#1A1D33"/>
<path d="M31.1981 47.7888C32.9875 47.7888 34.4382 46.3381 34.4382 44.5487C34.4382 42.7592 32.9875 41.3086 31.1981 41.3086C29.4086 41.3086 27.958 42.7592 27.958 44.5487C27.958 46.3381 29.4086 47.7888 31.1981 47.7888Z" fill="#1A1D33"/>
<path fill-rule="evenodd" clip-rule="evenodd" d="M31.1981 42.8345C30.2514 42.8345 29.4839 43.602 29.4839 44.5487C29.4839 45.4954 30.2514 46.2629 31.1981 46.2629C32.1448 46.2629 32.9123 45.4954 32.9123 44.5487C32.9123 43.6019 32.1448 42.8345 31.1981 42.8345ZM34.4382 44.5487C34.4382 46.3381 32.9875 47.7888 31.1981 47.7888C29.4086 47.7888 27.958 46.3381 27.958 44.5487C27.958 42.7592 29.4086 41.3086 31.1981 41.3086C32.9875 41.3086 34.4382 42.7592 34.4382 44.5487Z" fill="#1A1D33"/>
<path fill-rule="evenodd" clip-rule="evenodd" d="M13.1074 64.121C14.1896 63.8997 15.2463 64.5975 15.4676 65.6797L17.3255 74.7626C17.5468 75.8447 16.849 76.9014 15.7669 77.1228C14.6847 77.3441 13.628 76.6463 13.4066 75.5641L11.5488 66.4813C11.3274 65.3991 12.0253 64.3424 13.1074 64.121Z" fill="#1A1D33"/>
</svg>
