<svg width="14" height="13" viewBox="0 0 14 13" fill="none" xmlns="http://www.w3.org/2000/svg">
<path d="M6.83398 9.20801H7.91732V5.95801H6.83398V9.20801ZM7.37565 4.87467C7.52912 4.87467 7.65786 4.82267 7.76186 4.71867C7.86586 4.61467 7.91768 4.48612 7.91732 4.33301C7.91696 4.1799 7.86496 4.05134 7.76132 3.94734C7.65768 3.84334 7.52912 3.79134 7.37565 3.79134C7.22218 3.79134 7.09362 3.84334 6.98998 3.94734C6.88635 4.05134 6.83435 4.1799 6.83398 4.33301C6.83362 4.48612 6.88562 4.61486 6.98998 4.71922C7.09435 4.82358 7.2229 4.8754 7.37565 4.87467ZM7.37565 11.9163C6.62635 11.9163 5.92218 11.7741 5.26315 11.4895C4.60412 11.205 4.03086 10.8191 3.54336 10.332C3.05586 9.84483 2.67001 9.27156 2.38582 8.61217C2.10162 7.95279 1.95935 7.24862 1.95899 6.49967C1.95862 5.75073 2.1009 5.04656 2.38582 4.38717C2.67074 3.72779 3.05658 3.15452 3.54336 2.66738C4.03014 2.18024 4.6034 1.7944 5.26315 1.50984C5.9229 1.22529 6.62707 1.08301 7.37565 1.08301C8.12423 1.08301 8.8284 1.22529 9.48815 1.50984C10.1479 1.7944 10.7212 2.18024 11.2079 2.66738C11.6947 3.15452 12.0807 3.72779 12.366 4.38717C12.6513 5.04656 12.7934 5.75073 12.7923 6.49967C12.7912 7.24862 12.649 7.95279 12.3655 8.61217C12.082 9.27156 11.6962 9.84483 11.2079 10.332C10.7197 10.8191 10.1465 11.2051 9.48815 11.49C8.82985 11.775 8.12568 11.9171 7.37565 11.9163ZM7.37565 10.833C8.58537 10.833 9.61003 10.4132 10.4496 9.57363C11.2892 8.73405 11.709 7.7094 11.709 6.49967C11.709 5.28995 11.2892 4.2653 10.4496 3.42572C9.61003 2.58613 8.58537 2.16634 7.37565 2.16634C6.16593 2.16634 5.14128 2.58613 4.30169 3.42572C3.46211 4.2653 3.04232 5.28995 3.04232 6.49967C3.04232 7.7094 3.46211 8.73405 4.30169 9.57363C5.14128 10.4132 6.16593 10.833 7.37565 10.833Z" fill="currentColor"/>
</svg>
