<svg width="17" height="17" viewBox="0 0 17 17" fill="none" xmlns="http://www.w3.org/2000/svg">
<path d="M7.4375 4.24991C7.4375 4.10223 7.4375 4.02785 7.446 3.96623C7.4732 3.77183 7.563 3.59158 7.7018 3.45278C7.84061 3.31398 8.02085 3.22418 8.21525 3.19698C8.27794 3.18848 8.35125 3.18848 8.49894 3.18848C8.64662 3.18848 8.72206 3.18848 8.78262 3.19698C8.97702 3.22418 9.15727 3.31398 9.29607 3.45278C9.43487 3.59158 9.52467 3.77183 9.55187 3.96623C9.56037 4.02785 9.56037 4.10223 9.56037 4.24991C9.56037 4.3976 9.56037 4.47198 9.55187 4.5336C9.52467 4.728 9.43487 4.90825 9.29607 5.04705C9.15727 5.18585 8.97702 5.27565 8.78262 5.30285C8.721 5.31135 8.64662 5.31135 8.49894 5.31135C8.35125 5.31135 8.27687 5.31135 8.21525 5.30285C8.02085 5.27565 7.84061 5.18585 7.7018 5.04705C7.563 4.90825 7.4732 4.728 7.446 4.5336C7.4375 4.47198 7.4375 4.3976 7.4375 4.24991ZM7.4375 8.49991C7.4375 8.35223 7.4375 8.27785 7.446 8.21623C7.4732 8.02183 7.563 7.84158 7.7018 7.70278C7.84061 7.56398 8.02085 7.47418 8.21525 7.44698C8.27794 7.43848 8.35125 7.43848 8.49894 7.43848C8.64662 7.43848 8.72206 7.43848 8.78262 7.44698C8.97702 7.47418 9.15727 7.56398 9.29607 7.70278C9.43487 7.84158 9.52467 8.02183 9.55187 8.21623C9.56037 8.27785 9.56037 8.35223 9.56037 8.49991C9.56037 8.6476 9.56037 8.72198 9.55187 8.7836C9.52467 8.978 9.43487 9.15825 9.29607 9.29705C9.15727 9.43585 8.97702 9.52565 8.78262 9.55285C8.721 9.56135 8.64662 9.56135 8.49894 9.56135C8.35125 9.56135 8.27687 9.56135 8.21525 9.55285C8.02085 9.52565 7.84061 9.43585 7.7018 9.29705C7.563 9.15825 7.4732 8.978 7.446 8.7836C7.4375 8.72198 7.4375 8.6476 7.4375 8.49991ZM7.4375 12.7499C7.4375 12.6022 7.4375 12.5279 7.446 12.4662C7.4732 12.2718 7.563 12.0916 7.7018 11.9528C7.84061 11.814 8.02085 11.7242 8.21525 11.697C8.27794 11.6885 8.35125 11.6885 8.49894 11.6885C8.64662 11.6885 8.72206 11.6885 8.78262 11.697C8.97702 11.7242 9.15727 11.814 9.29607 11.9528C9.43487 12.0916 9.52467 12.2718 9.55187 12.4662C9.56037 12.5279 9.56037 12.6022 9.56037 12.7499C9.56037 12.8976 9.56037 12.972 9.55187 13.0347C9.52467 13.2291 9.43487 13.4093 9.29607 13.5481C9.15727 13.6869 8.97702 13.7767 8.78262 13.8039C8.721 13.8124 8.64662 13.8124 8.5 13.8124C8.35337 13.8124 8.27794 13.8124 8.21631 13.8039C8.02191 13.7767 7.84167 13.6869 7.70287 13.5481C7.56407 13.4093 7.47427 13.2291 7.44706 13.0347C7.4375 12.973 7.4375 12.8987 7.4375 12.7499Z" fill="currentColor"/>
</svg>
