<svg width="14" height="14" viewBox="0 0 14 14" fill="none" xmlns="http://www.w3.org/2000/svg">
<path d="M6.994 1.1665C3.774 1.1665 1.1665 3.77984 1.1665 6.99984C1.1665 10.2198 3.774 12.8332 6.994 12.8332C10.2198 12.8332 12.8332 10.2198 12.8332 6.99984C12.8332 3.77984 10.2198 1.1665 6.994 1.1665ZM6.99984 11.6665C4.4215 11.6665 2.33317 9.57817 2.33317 6.99984C2.33317 4.4215 4.4215 2.33317 6.99984 2.33317C9.57817 2.33317 11.6665 4.4215 11.6665 6.99984C11.6665 9.57817 9.57817 11.6665 6.99984 11.6665Z" fill="#5DEE43"/>
<path fill-rule="evenodd" clip-rule="evenodd" d="M9.53337 5.31295C9.71088 5.50821 9.71088 5.8248 9.53337 6.02006L6.8061 9.02006C6.62859 9.21532 6.34078 9.21532 6.16327 9.02006L4.79964 7.52006C4.62213 7.3248 4.62213 7.00821 4.79964 6.81295C4.97715 6.61769 5.26495 6.61769 5.44246 6.81295L6.48469 7.9594L8.89055 5.31295C9.06806 5.11769 9.35586 5.11769 9.53337 5.31295Z" fill="#5DEE43"/>
</svg>
