<svg width="24" height="24" viewBox="0 0 24 24" fill="none" xmlns="http://www.w3.org/2000/svg">
<path fill-rule="evenodd" clip-rule="evenodd" d="M12.5932 23.2579L12.5822 23.2599L12.5112 23.2949L12.4912 23.2989L12.4772 23.2949L12.4062 23.2599C12.3955 23.2566 12.3875 23.2583 12.3822 23.2649L12.3782 23.2749L12.3612 23.7029L12.3662 23.7229L12.3762 23.7359L12.4802 23.8099L12.4952 23.8139L12.5072 23.8099L12.6112 23.7359L12.6232 23.7199L12.6272 23.7029L12.6102 23.2759C12.6075 23.2653 12.6018 23.2593 12.5932 23.2579ZM12.8582 23.1449L12.8452 23.1469L12.6602 23.2399L12.6502 23.2499L12.6472 23.2609L12.6652 23.6909L12.6702 23.7029L12.6782 23.7099L12.8792 23.8029C12.8918 23.8063 12.9015 23.8036 12.9082 23.7949L12.9122 23.7809L12.8782 23.1669C12.8748 23.1549 12.8682 23.1476 12.8582 23.1449ZM12.1432 23.1469C12.1388 23.1443 12.1335 23.1434 12.1285 23.1445C12.1234 23.1456 12.119 23.1487 12.1162 23.1529L12.1102 23.1669L12.0762 23.7809C12.0768 23.7929 12.0825 23.8009 12.0932 23.8049L12.1082 23.8029L12.3092 23.7099L12.3192 23.7019L12.3232 23.6909L12.3402 23.2609L12.3372 23.2489L12.3272 23.2389L12.1432 23.1469Z" fill="#7486FF"/>
<path fill-rule="evenodd" clip-rule="evenodd" d="M8.993 5.163C9.162 6.586 8.931 8.07 8.417 9.402C7.848 10.876 7.092 12.472 6.998 14.059C6.919 15.396 7.222 16.978 8.03 18.061C8.915 19.247 10.368 20 11.967 20H13.479C14.7333 20.0001 15.9418 19.5287 16.8648 18.6794C17.7878 17.8301 18.3579 16.665 18.462 15.415L18.823 11.083C18.8345 10.9451 18.8172 10.8064 18.7723 10.6755C18.7274 10.5446 18.6559 10.4245 18.5622 10.3227C18.4685 10.2209 18.3546 10.1397 18.2279 10.0841C18.1012 10.0286 17.9644 9.99994 17.826 10H12.5C12.1036 9.99948 11.7235 9.84241 11.4424 9.56297C11.1613 9.28354 11.0019 8.90437 10.999 8.508C10.991 7.538 11.052 6.341 10.606 5.448C10.206 4.648 9.832 4.5 9.5 4.5C9.2 4.5 8.96 4.893 8.993 5.163ZM9.5 2.5C10.856 2.5 11.794 3.352 12.395 4.553C12.917 5.598 12.966 6.853 12.992 8H17.826C18.2411 7.99994 18.6516 8.08601 19.0317 8.25278C19.4118 8.41954 19.7532 8.66336 20.0342 8.96883C20.3153 9.2743 20.5298 9.63475 20.6644 10.0274C20.799 10.4201 20.8506 10.8364 20.816 11.25L20.455 15.581C20.3093 17.3309 19.5112 18.9621 18.219 20.1511C16.9268 21.3401 15.235 22 13.479 22H11.967C11.0184 22.0025 10.0794 21.8106 9.20785 21.436C8.33635 21.0614 7.5509 20.5121 6.9 19.822C6.44291 19.9412 5.97237 20.001 5.5 20C4.392 20 3.472 19.38 2.876 18.392C2.296 17.432 2 16.107 2 14.5C2 12.893 2.297 11.569 2.876 10.609C3.472 9.62 4.392 9 5.5 9C5.781 9 6.079 9.05 6.377 9.134C6.835 7.934 7.161 6.697 7.007 5.399C6.835 3.954 8.016 2.5 9.5 2.5ZM5.696 11.024C5.211 10.924 4.831 11.24 4.589 11.642C4.263 12.182 4 13.106 4 14.5C4 15.894 4.263 16.819 4.588 17.359C4.898 17.871 5.228 18 5.5 18C5.564 18 5.62733 17.9983 5.69 17.995C5.154 16.787 4.924 15.255 5.002 13.941C5.049 13.136 5.363 12.023 5.696 11.024Z" fill="#7486FF"/>
</svg>
