<svg width="208" height="236" viewBox="0 0 208 236" fill="none" xmlns="http://www.w3.org/2000/svg">
<path d="M187.93 139.484C187.93 126.668 179.386 116.039 167.924 113.539C165.527 101.452 155.524 92.3862 143.437 92.3862C140.936 92.3862 138.54 92.9072 136.247 93.6366C132.704 83.5293 123.639 76.2354 112.802 76.2354C101.966 76.2354 93.2128 83.2167 89.5659 93.0114C87.8987 92.5946 86.1273 92.3862 84.2517 92.3862C72.0604 92.3862 61.9531 101.556 59.6607 113.747C48.6155 116.56 40.3838 126.98 40.3838 139.484C40.3838 146.257 42.8846 152.301 46.8441 156.99C45.9064 159.803 45.2812 162.825 45.2812 165.951C45.2812 180.539 56.5347 192.418 70.289 192.418C70.6016 192.418 70.81 192.418 71.0184 192.418L62.1614 216.592C60.5985 226.595 67.8924 235.765 77.5829 235.765H147.813C157.087 235.765 164.277 227.324 163.339 217.634L153.961 192.418C153.961 192.418 154.69 192.522 155.107 192.522C168.966 192.522 180.115 180.643 180.115 166.055C180.115 163.763 179.698 161.575 179.177 159.386C184.387 154.489 187.826 147.508 187.826 139.589L187.93 139.484Z" fill="#F7F8FA"/>
<path d="M99.1079 134.174C101.122 134.174 102.755 132.541 102.755 130.527C102.755 128.513 101.122 126.88 99.1079 126.88C97.0937 126.88 95.4609 128.513 95.4609 130.527C95.4609 132.541 97.0937 134.174 99.1079 134.174Z" fill="black"/>
<path d="M125.468 134.174C127.482 134.174 129.115 132.541 129.115 130.527C129.115 128.513 127.482 126.88 125.468 126.88C123.454 126.88 121.821 128.513 121.821 130.527C121.821 132.541 123.454 134.174 125.468 134.174Z" fill="black"/>
<path d="M123.581 144.696C123.581 148.238 115.558 151.156 112.536 151.156C110.14 151.156 101.491 148.238 101.491 144.696C101.491 141.153 106.389 138.235 112.536 138.235C118.684 138.235 123.581 141.153 123.581 144.696Z" fill="black"/>
<path d="M91.023 139.38C83.208 137.608 77.0603 139.692 72.7881 139.067C77.5813 135.107 86.9592 134.899 91.023 139.38Z" fill="#EAEBED"/>
<path d="M154.541 139.002C146.726 137.23 140.578 139.314 136.306 138.689C141.099 134.729 150.477 134.521 154.541 139.002Z" fill="#EAEBED"/>
<path d="M70.81 192.319C91.4414 192.11 112.906 192.319 133.33 191.798C184.908 188.88 128.745 204.093 112.698 202.53C98.2144 202.322 83.5223 200.134 70.6016 193.361L70.9142 192.319H70.81Z" fill="#E6E9FF"/>
<path d="M100.63 155.495C100.63 155.495 112.001 163.248 124.11 155.495" stroke="black" stroke-width="1.84594" stroke-linecap="round" stroke-linejoin="round"/>
<path fill-rule="evenodd" clip-rule="evenodd" d="M168.957 42.568C169.233 41.945 168.951 41.2165 168.328 40.9409C167.705 40.6653 166.977 40.9469 166.701 41.5699L165.13 45.1209L163.73 41.4985C163.484 40.8631 162.77 40.5471 162.135 40.7928C161.499 41.0384 161.183 41.7527 161.429 42.3881L162.829 46.0106L159.278 44.4395C158.655 44.1639 157.926 44.4455 157.651 45.0686C157.375 45.6916 157.657 46.4201 158.28 46.6957L161.831 48.2665L158.208 49.6669C157.573 49.9126 157.257 50.6268 157.502 51.2623C157.748 51.8977 158.462 52.2137 159.098 51.968L162.721 50.5675L161.149 54.1197C160.873 54.7427 161.155 55.4712 161.778 55.7468C162.401 56.0225 163.13 55.7408 163.405 55.1178L164.977 51.5658L166.377 55.188C166.623 55.8235 167.337 56.1395 167.972 55.8938C168.608 55.6482 168.924 54.9339 168.678 54.2985L167.278 50.6764L170.83 52.2478C171.453 52.5234 172.181 52.2418 172.457 51.6187C172.732 50.9957 172.451 50.2672 171.828 49.9916L168.276 48.4201L171.898 47.0199C172.533 46.7743 172.849 46.06 172.603 45.4246C172.358 44.7891 171.643 44.4731 171.008 44.7188L167.386 46.1188L168.957 42.568Z" fill="#B4BEFF"/>
<path fill-rule="evenodd" clip-rule="evenodd" d="M24.4731 81.0305C24.3111 80.3876 23.6586 79.9976 23.0156 80.1596C22.3727 80.3215 21.9827 80.9741 22.1447 81.617L23.068 85.2824L19.8238 83.3437C19.2546 83.0036 18.5175 83.1893 18.1773 83.7585C17.8372 84.3276 18.0229 85.0648 18.5921 85.4049L21.8356 87.3431L18.1713 88.2662C17.5283 88.4281 17.1384 89.0806 17.3004 89.7236C17.4623 90.3666 18.1149 90.7565 18.7578 90.5945L22.4228 89.6713L20.484 92.9158C20.1439 93.485 20.3296 94.2221 20.8987 94.5623C21.4679 94.9024 22.205 94.7167 22.5452 94.1475L24.4839 90.9032L25.4072 94.5687C25.5691 95.2117 26.2217 95.6016 26.8646 95.4397C27.5076 95.2777 27.8975 94.6252 27.7356 93.9822L26.8124 90.3171L30.0572 92.2562C30.6264 92.5963 31.3635 92.4106 31.7036 91.8415C32.0438 91.2723 31.8581 90.5352 31.2889 90.195L28.0434 88.2556L31.7095 87.3321C32.3525 87.1701 32.7424 86.5176 32.5805 85.8746C32.4185 85.2316 31.766 84.8417 31.123 85.0037L27.4576 85.927L29.3965 82.6824C29.7366 82.1132 29.5509 81.3761 28.9817 81.0359C28.4126 80.6958 27.6754 80.8815 27.3353 81.4507L25.3963 84.6955L24.4731 81.0305Z" fill="#7486FF"/>
<path fill-rule="evenodd" clip-rule="evenodd" d="M203.945 69.8282C206.212 67.9553 207.62 65.0052 207.624 60.9194C207.625 59.9904 206.873 59.2364 205.944 59.2354C205.015 59.2343 204.261 59.9865 204.26 60.9155C204.256 64.1796 203.168 66.1066 201.802 67.2347C201.112 67.8048 200.297 68.2156 199.412 68.4791C199.288 68.1969 199.155 67.9215 199.015 67.6537C197.836 65.4057 196.025 63.4748 194.109 62.5075C193.147 62.0219 192.028 61.7155 190.894 61.8932C189.691 62.082 188.687 62.7853 188.019 63.8994C187.352 65.0129 187.204 66.225 187.575 67.3751C187.926 68.4644 188.689 69.3391 189.552 70.0002C191.269 71.3159 193.797 72.112 196.341 72.1984C196.565 72.206 196.791 72.2081 197.018 72.2045C197.13 73.0458 197.099 73.8826 196.896 74.6781C196.465 76.362 195.19 78.1467 192.198 79.5135C191.353 79.8994 190.981 80.8973 191.366 81.7423C191.752 82.5874 192.75 82.9596 193.595 82.5736C197.333 80.8666 199.427 78.3581 200.155 75.5117C200.482 74.2336 200.518 72.9477 200.346 71.7113C201.624 71.335 202.857 70.7266 203.945 69.8282ZM195.801 68.7935C194.061 68.6258 192.528 68.0423 191.598 67.3296C191.079 66.9325 190.853 66.5782 190.777 66.3425C190.72 66.1675 190.707 65.9586 190.904 65.6295C191.101 65.3009 191.275 65.2389 191.416 65.2168C191.627 65.1837 192.019 65.2209 192.593 65.5107C193.655 66.047 194.887 67.2281 195.801 68.7935Z" fill="#9BA8FF"/>
<path fill-rule="evenodd" clip-rule="evenodd" d="M12.946 20.0305C8.65186 19.8416 4.37042 17.9178 0.784154 13.5067C0.149609 12.7262 0.267923 11.5791 1.04842 10.9445C1.82891 10.31 2.97603 10.4283 3.61058 11.2088C6.56906 14.8478 9.89599 16.2501 13.1061 16.3913C15.5491 16.4988 18.0222 15.8775 20.2997 14.799C19.8837 13.4499 19.7064 12.0887 19.7284 10.7693C19.7826 7.51053 21.0536 4.47873 22.9508 2.51248C24.8447 0.549676 27.7347 -0.619566 30.536 0.99777C31.9895 1.83694 32.7587 3.18531 32.8834 4.71094C32.9997 6.13522 32.5545 7.61186 31.866 8.96297C30.5509 11.5438 28.0679 14.2216 25.0173 16.2849C25.4217 16.881 25.9096 17.465 26.4905 18.0278C28.8395 20.3033 32.8306 22.3431 39.2783 23.2773C40.2738 23.4216 40.9639 24.3455 40.8197 25.341C40.6754 26.3365 39.7515 27.0266 38.756 26.8823C31.8047 25.8752 27.0147 23.6072 23.956 20.6441C23.1184 19.8327 22.4198 18.9777 21.8475 18.0961C19.1379 19.3773 16.0856 20.1686 12.946 20.0305ZM23.5585 12.8596C25.9196 11.144 27.7128 9.09032 28.6205 7.30909C29.1404 6.28877 29.2938 5.50888 29.2528 5.00753C29.2201 4.60751 29.0762 4.36113 28.7147 4.15241C27.886 3.67397 26.7852 3.78458 25.5722 5.04177C24.3625 6.29553 23.4106 8.42387 23.3705 10.8299C23.3595 11.4917 23.4176 12.1726 23.5585 12.8596Z" fill="#7486FF"/>
<path fill-rule="evenodd" clip-rule="evenodd" d="M50.2916 46.5847C50.6766 45.153 52.5194 44.7565 53.4591 45.9031L57.0616 50.2985C57.3027 50.5927 57.6299 50.804 57.9973 50.9028L63.4854 52.3785C64.917 52.7635 65.3135 54.6063 64.1669 55.546L59.7715 59.1485C59.4773 59.3896 59.266 59.7168 59.1672 60.0842L57.6915 65.5723C57.3065 67.0039 55.4637 67.4004 54.524 66.2538L50.9216 61.8585C50.6804 61.5642 50.3532 61.3529 49.9859 61.2541L44.4978 59.7784C43.7621 59.5806 43.2998 58.9979 43.1797 58.3505C43.1391 58.1318 43.1376 57.9056 43.1778 57.6844C43.2503 57.2864 43.4579 56.9046 43.8162 56.6109L48.2116 53.0085C48.5058 52.7673 48.7171 52.4401 48.8159 52.0728L50.2916 46.5847Z" fill="#9BA8FF"/>
<path fill-rule="evenodd" clip-rule="evenodd" d="M192.785 13.8045C193.393 12.9229 194.743 13.0979 195.106 14.1054L195.983 16.5391C196.076 16.7976 196.248 17.0205 196.474 17.1764L198.604 18.6445C199.485 19.2523 199.31 20.6025 198.303 20.9654L195.869 21.8421C195.611 21.9352 195.388 22.1069 195.232 22.3331L193.764 24.4629C193.156 25.3446 191.806 25.1696 191.443 24.1621L190.566 21.7284C190.473 21.4699 190.301 21.247 190.075 21.0911L187.945 19.623C187.064 19.0152 187.239 17.665 188.246 17.3021L190.68 16.4254C190.938 16.3323 191.161 16.1606 191.317 15.9344L192.785 13.8045Z" fill="#7486FF"/>
<path d="M94.376 22.1216C94.376 31.1677 101.803 35.9875 107.238 40.3031C109.156 41.8247 111.004 43.259 112.851 43.259C114.699 43.259 116.546 41.8266 118.464 40.3012C123.901 35.9893 131.326 31.1677 131.326 22.1235C131.326 13.0792 121.165 6.6597 112.851 15.358C104.537 6.6597 94.376 13.0755 94.376 22.1216Z" fill="#FFD8DE"/>
</svg>
