<svg width="208" height="236" viewBox="0 0 208 236" fill="none" xmlns="http://www.w3.org/2000/svg">
<path fill-rule="evenodd" clip-rule="evenodd" d="M168.957 42.4679C169.233 41.8449 168.951 41.1164 168.328 40.8408C167.705 40.5652 166.977 40.8468 166.701 41.4698L165.13 45.0208L163.73 41.3984C163.484 40.763 162.77 40.447 162.135 40.6927C161.499 40.9383 161.183 41.6526 161.429 42.288L162.829 45.9105L159.278 44.3395C158.655 44.0638 157.926 44.3454 157.651 44.9685C157.375 45.5915 157.657 46.32 158.28 46.5956L161.831 48.1664L158.208 49.5668C157.573 49.8125 157.257 50.5267 157.502 51.1622C157.748 51.7976 158.462 52.1136 159.098 51.8679L162.721 50.4674L161.149 54.0196C160.873 54.6426 161.155 55.3711 161.778 55.6467C162.401 55.9224 163.13 55.6407 163.405 55.0177L164.977 51.4658L166.377 55.0879C166.623 55.7234 167.337 56.0394 167.972 55.7937C168.608 55.5481 168.924 54.8338 168.678 54.1984L167.278 50.5763L170.83 52.1477C171.453 52.4233 172.181 52.1417 172.457 51.5186C172.732 50.8956 172.451 50.1671 171.828 49.8915L168.276 48.32L171.898 46.9198C172.533 46.6742 172.849 45.9599 172.603 45.3245C172.358 44.689 171.643 44.3731 171.008 44.6187L167.386 46.0187L168.957 42.4679Z" fill="#B4BEFF"/>
<path fill-rule="evenodd" clip-rule="evenodd" d="M24.4731 80.9304C24.3111 80.2875 23.6586 79.8975 23.0156 80.0595C22.3727 80.2214 21.9827 80.874 22.1447 81.5169L23.068 85.1823L19.8238 83.2436C19.2546 82.9035 18.5175 83.0892 18.1773 83.6584C17.8372 84.2275 18.0229 84.9647 18.5921 85.3048L21.8356 87.243L18.1713 88.1661C17.5283 88.328 17.1384 88.9805 17.3004 89.6235C17.4623 90.2665 18.1149 90.6564 18.7578 90.4945L22.4228 89.5712L20.484 92.8157C20.1439 93.3849 20.3296 94.122 20.8987 94.4622C21.4679 94.8023 22.205 94.6166 22.5452 94.0474L24.4839 90.8032L25.4072 94.4686C25.5691 95.1116 26.2217 95.5015 26.8646 95.3396C27.5076 95.1776 27.8975 94.5251 27.7356 93.8821L26.8124 90.217L30.0572 92.1561C30.6264 92.4962 31.3635 92.3105 31.7036 91.7414C32.0438 91.1722 31.8581 90.4351 31.2889 90.0949L28.0434 88.1555L31.7095 87.232C32.3525 87.07 32.7424 86.4175 32.5805 85.7745C32.4185 85.1315 31.766 84.7416 31.123 84.9036L27.4576 85.8269L29.3965 82.5823C29.7366 82.0131 29.5509 81.276 28.9817 80.9359C28.4126 80.5957 27.6754 80.7814 27.3353 81.3506L25.3963 84.5954L24.4731 80.9304Z" fill="#7486FF"/>
<path fill-rule="evenodd" clip-rule="evenodd" d="M203.945 69.7281C206.212 67.8552 207.62 64.9051 207.624 60.8193C207.625 59.8903 206.873 59.1363 205.944 59.1353C205.015 59.1342 204.261 59.8864 204.26 60.8154C204.256 64.0795 203.168 66.0065 201.802 67.1346C201.112 67.7047 200.297 68.1155 199.412 68.3791C199.288 68.0968 199.155 67.8214 199.015 67.5536C197.836 65.3056 196.025 63.3747 194.109 62.4074C193.147 61.9218 192.028 61.6154 190.894 61.7931C189.691 61.9819 188.687 62.6852 188.019 63.7993C187.352 64.9128 187.204 66.1249 187.575 67.275C187.926 68.3643 188.689 69.239 189.552 69.9001C191.269 71.2158 193.797 72.0119 196.341 72.0983C196.565 72.1059 196.791 72.108 197.018 72.1044C197.13 72.9457 197.099 73.7826 196.896 74.578C196.465 76.2619 195.19 78.0466 192.198 79.4134C191.353 79.7993 190.981 80.7972 191.366 81.6422C191.752 82.4873 192.75 82.8595 193.595 82.4736C197.333 80.7665 199.427 78.258 200.155 75.4116C200.482 74.1335 200.518 72.8476 200.346 71.6112C201.624 71.2349 202.857 70.6265 203.945 69.7281ZM195.801 68.6934C194.061 68.5257 192.528 67.9422 191.598 67.2295C191.079 66.8324 190.853 66.4781 190.777 66.2424C190.72 66.0674 190.707 65.8585 190.904 65.5294C191.101 65.2008 191.275 65.1388 191.416 65.1167C191.627 65.0836 192.019 65.1208 192.593 65.4106C193.655 65.9469 194.887 67.128 195.801 68.6934Z" fill="#9BA8FF"/>
<path fill-rule="evenodd" clip-rule="evenodd" d="M12.946 19.9304C8.65186 19.7415 4.37042 17.8177 0.784154 13.4066C0.149609 12.6261 0.267923 11.479 1.04842 10.8444C1.82891 10.2099 2.97603 10.3282 3.61058 11.1087C6.56906 14.7477 9.89599 16.15 13.1061 16.2912C15.5491 16.3987 18.0222 15.7774 20.2997 14.6989C19.8837 13.3498 19.7064 11.9886 19.7284 10.6692C19.7826 7.41043 21.0536 4.37863 22.9508 2.41238C24.8447 0.449578 27.7347 -0.719664 30.536 0.897673C31.9895 1.73684 32.7587 3.08521 32.8834 4.61084C32.9997 6.03512 32.5545 7.51176 31.866 8.86287C30.5509 11.4437 28.0679 14.1215 25.0173 16.1848C25.4217 16.7809 25.9096 17.3649 26.4905 17.9277C28.8395 20.2032 32.8306 22.243 39.2783 23.1772C40.2738 23.3215 40.9639 24.2454 40.8197 25.2409C40.6754 26.2364 39.7515 26.9265 38.756 26.7822C31.8047 25.7751 27.0147 23.5071 23.956 20.5441C23.1184 19.7327 22.4198 18.8776 21.8475 17.996C19.1379 19.2772 16.0856 20.0685 12.946 19.9304ZM23.5585 12.7595C25.9196 11.0439 27.7128 8.99022 28.6205 7.20899C29.1404 6.18868 29.2938 5.40878 29.2528 4.90743C29.2201 4.50741 29.0762 4.26103 28.7147 4.05231C27.886 3.57387 26.7852 3.68448 25.5722 4.94168C24.3625 6.19543 23.4106 8.32377 23.3705 10.7298C23.3595 11.3916 23.4176 12.0725 23.5585 12.7595Z" fill="#7486FF"/>
<path fill-rule="evenodd" clip-rule="evenodd" d="M50.2916 46.4846C50.6766 45.0529 52.5194 44.6564 53.4591 45.803L57.0616 50.1984C57.3027 50.4926 57.6299 50.7039 57.9973 50.8027L63.4854 52.2784C64.917 52.6634 65.3135 54.5062 64.1669 55.446L59.7715 59.0484C59.4773 59.2895 59.266 59.6167 59.1672 59.9841L57.6915 65.4722C57.3065 66.9038 55.4637 67.3003 54.524 66.1537L50.9216 61.7584C50.6804 61.4641 50.3532 61.2528 49.9859 61.154L44.4978 59.6783C43.7621 59.4805 43.2998 58.8978 43.1797 58.2504C43.1391 58.0317 43.1376 57.8055 43.1778 57.5843C43.2503 57.1863 43.4579 56.8045 43.8162 56.5108L48.2116 52.9084C48.5058 52.6672 48.7171 52.34 48.8159 51.9727L50.2916 46.4846Z" fill="#9BA8FF"/>
<path fill-rule="evenodd" clip-rule="evenodd" d="M192.785 13.7044C193.393 12.8228 194.743 12.9978 195.106 14.0053L195.983 16.439C196.076 16.6975 196.248 16.9204 196.474 17.0763L198.604 18.5444C199.485 19.1522 199.31 20.5024 198.303 20.8653L195.869 21.742C195.611 21.8351 195.388 22.0068 195.232 22.233L193.764 24.3628C193.156 25.2445 191.806 25.0695 191.443 24.062L190.566 21.6283C190.473 21.3698 190.301 21.1469 190.075 20.991L187.945 19.5229C187.064 18.9151 187.239 17.5649 188.246 17.202L190.68 16.3253C190.938 16.2322 191.161 16.0605 191.317 15.8343L192.785 13.7044Z" fill="#7486FF"/>
<path d="M94.376 22.0215C94.376 31.0676 101.803 35.8874 107.238 40.203C109.156 41.7246 111.004 43.1589 112.851 43.1589C114.699 43.1589 116.546 41.7265 118.464 40.2012C123.901 35.8892 131.326 31.0676 131.326 22.0234C131.326 12.9791 121.165 6.5596 112.851 15.2579C104.537 6.5596 94.376 12.9754 94.376 22.0215Z" fill="#FFD8DE"/>
<path d="M118.653 87.0792H104.755L95.2982 61.0019C93.5788 57.2766 86.2715 57.1333 84.6953 60.8586L74.9522 83.2106C73.8059 85.7897 73.0895 88.6553 72.8029 91.521L64.4926 179.21C64.4926 179.21 62.2001 192.821 62.3434 193.108H104.325L151.465 179.783H153.757C153.757 179.783 154.187 179.496 154.187 179.353C175.25 176.917 190.581 146.828 190.581 125.336V121.18C190.581 114.16 186.855 108.858 181.124 108.858H150.319C149.029 108.858 148.026 107.855 147.883 106.709L146.163 87.5091C146.163 87.5091 146.163 87.0792 146.163 86.936L138.283 61.4318C136.85 57.7064 129.829 57.5632 128.54 61.4318L118.94 87.1353L118.653 87.0792Z" fill="#F7F8FA"/>
<path d="M110.058 110.719C111.878 110.719 113.354 109.243 113.354 107.423C113.354 105.603 111.878 104.128 110.058 104.128C108.238 104.128 106.763 105.603 106.763 107.423C106.763 109.243 108.238 110.719 110.058 110.719Z" fill="black"/>
<path d="M129.969 110.719C131.789 110.719 133.265 109.243 133.265 107.423C133.265 105.603 131.789 104.128 129.969 104.128C128.149 104.128 126.674 105.603 126.674 107.423C126.674 109.243 128.149 110.719 129.969 110.719Z" fill="black"/>
<path d="M165.139 136.097C173.572 135.34 180.024 130.445 179.55 125.164C179.076 119.884 171.855 116.217 163.422 116.974C154.989 117.731 148.537 122.626 149.011 127.906C149.485 133.187 156.706 136.854 165.139 136.097Z" fill="black"/>
<path d="M154.471 198.545L53.0274 235.655C49.4454 236.801 46.1499 233.076 47.2962 229.207L59.3318 183.357C59.7617 181.781 72.3705 182.784 80.3943 183.643C84.5495 184.073 88.7047 184.073 92.8598 183.787L153.182 179.631C155.761 179.631 157.91 181.924 157.91 184.789V193.53C157.91 195.822 156.477 197.828 154.471 198.545Z" fill="#E6E9FF"/>
<path d="M99.4564 86.4955C95.158 88.3581 84.6984 90.2208 81.6895 86.9253C87.2774 84.9194 94.2983 83.7731 99.4564 86.4955Z" fill="#EAEBED"/>
<path d="M141.292 86.9362C136.707 88.369 126.248 89.2287 123.525 85.6467C129.257 84.0706 136.421 83.784 141.292 86.9362Z" fill="#EAEBED"/>
<path d="M63.6323 179.782C61.9129 184.223 52.0264 184.51 41.5668 180.641C31.1073 176.773 25.376 165.453 25.376 165.453C25.376 165.453 36.6953 161.155 47.4414 164.594C59.4771 168.462 65.2084 175.34 63.6323 179.782Z" fill="#E6E9FF"/>
<path d="M67.0721 190.238C71.6618 190.238 75.3824 186.902 75.3824 182.787C75.3824 178.672 71.6618 175.336 67.0721 175.336C62.4824 175.336 58.7617 178.672 58.7617 182.787C58.7617 186.902 62.4824 190.238 67.0721 190.238Z" fill="#E6E9FF"/>
<path d="M157.914 185.223C143.299 187.086 129.401 196.399 116.936 200.698C126.392 188.519 143.443 186.656 157.771 184.22V185.08L157.914 185.223Z" fill="#B4BEFF"/>
<path d="M60.4765 178.627C54.7452 171.176 45.002 172.179 36.835 170.173C36.835 166.878 48.011 167.737 50.4467 169.457C54.7452 171.319 58.7571 174.042 61.1929 178.054L60.4765 178.484V178.627Z" fill="#B4BEFF"/>
</svg>
