<svg width="208" height="228" viewBox="0 0 208 228" fill="none" xmlns="http://www.w3.org/2000/svg">
<path fill-rule="evenodd" clip-rule="evenodd" d="M168.957 43.1339C169.233 42.5109 168.951 41.7824 168.328 41.5067C167.705 41.2311 166.977 41.5127 166.701 42.1358L165.13 45.6865L163.73 42.0645C163.484 41.4291 162.77 41.1131 162.135 41.3587C161.499 41.6044 161.183 42.3186 161.429 42.9541L162.829 46.5764L159.278 45.0054C158.655 44.7298 157.927 45.0114 157.651 45.6344C157.375 46.2574 157.657 46.9859 158.28 47.2615L161.83 48.8322L158.208 50.2326C157.572 50.4783 157.256 51.1925 157.502 51.828C157.747 52.4634 158.462 52.7794 159.097 52.5337L162.721 51.133L161.149 54.6855C160.873 55.3086 161.155 56.037 161.778 56.3127C162.401 56.5883 163.129 56.3067 163.405 55.6837L164.977 52.1314L166.377 55.754C166.623 56.3894 167.337 56.7054 167.972 56.4598C168.608 56.2141 168.924 55.4999 168.678 54.8645L167.278 51.2422L170.83 52.8136C171.453 53.0892 172.181 52.8076 172.457 52.1846C172.732 51.5616 172.451 50.8331 171.828 50.5574L168.275 48.9857L171.897 47.5856C172.532 47.34 172.848 46.6257 172.603 45.9903C172.357 45.3548 171.643 45.0388 171.007 45.2845L167.386 46.6843L168.957 43.1339Z" fill="#B4BEFF"/>
<path fill-rule="evenodd" clip-rule="evenodd" d="M24.4731 81.5964C24.3111 80.9535 23.6586 80.5635 23.0156 80.7255C22.3727 80.8875 21.9827 81.54 22.1447 82.183L23.068 85.8483L19.8238 83.9096C19.2546 83.5695 18.5175 83.7552 18.1773 84.3244C17.8372 84.8935 18.0229 85.6307 18.5921 85.9708L21.8356 87.9091L18.1713 88.8321C17.5283 88.994 17.1384 89.6466 17.3004 90.2895C17.4623 90.9325 18.1149 91.3224 18.7578 91.1605L22.4228 90.2373L20.484 93.4818C20.1439 94.0509 20.3296 94.7881 20.8987 95.1282C21.4679 95.4683 22.205 95.2826 22.5452 94.7135L24.4839 91.4692L25.4072 95.1347C25.5691 95.7776 26.2217 96.1676 26.8646 96.0056C27.5076 95.8436 27.8975 95.1911 27.7356 94.5481L26.8124 90.8831L30.0572 92.8221C30.6264 93.1622 31.3635 92.9766 31.7036 92.4074C32.0438 91.8382 31.8581 91.1011 31.2889 90.761L28.0434 88.8215L31.7095 87.898C32.3525 87.736 32.7424 87.0835 32.5805 86.4405C32.4185 85.7976 31.766 85.4076 31.123 85.5696L27.4576 86.4929L29.3965 83.2483C29.7366 82.6791 29.5509 81.942 28.9817 81.6019C28.4126 81.2617 27.6754 81.4474 27.3353 82.0166L25.3963 85.2614L24.4731 81.5964Z" fill="#7486FF"/>
<path fill-rule="evenodd" clip-rule="evenodd" d="M203.945 70.3946C206.212 68.5217 207.62 65.5716 207.624 61.4858C207.625 60.5568 206.873 59.8028 205.944 59.8018C205.015 59.8007 204.261 60.5529 204.26 61.4819C204.256 64.746 203.168 66.673 201.802 67.8011C201.112 68.3712 200.297 68.782 199.412 69.0456C199.288 68.7633 199.155 68.4879 199.015 68.2201C197.836 65.9721 196.025 64.0412 194.109 63.0739C193.147 62.5883 192.028 62.2819 190.894 62.4596C189.691 62.6484 188.687 63.3517 188.019 64.4658C187.352 65.5793 187.204 66.7914 187.575 67.9415C187.926 69.0308 188.689 69.9055 189.552 70.5666C191.269 71.8823 193.797 72.6784 196.341 72.7648C196.565 72.7724 196.791 72.7745 197.018 72.7709C197.13 73.6122 197.099 74.4491 196.896 75.2445C196.465 76.9284 195.19 78.7131 192.198 80.0799C191.353 80.4658 190.981 81.4637 191.366 82.3088C191.752 83.1538 192.75 83.526 193.595 83.1401C197.333 81.433 199.427 78.9245 200.155 76.0781C200.482 74.8 200.518 73.5141 200.346 72.2777C201.624 71.9014 202.857 71.293 203.945 70.3946ZM195.801 69.3599C194.061 69.1922 192.528 68.6087 191.598 67.896C191.079 67.4989 190.853 67.1446 190.777 66.9089C190.72 66.7339 190.707 66.525 190.904 66.1959C191.101 65.8673 191.275 65.8053 191.416 65.7832C191.627 65.7501 192.019 65.7873 192.593 66.0771C193.655 66.6134 194.887 67.7945 195.801 69.3599Z" fill="#9BA8FF"/>
<path fill-rule="evenodd" clip-rule="evenodd" d="M12.946 20.5964C8.65186 20.4075 4.37042 18.4837 0.784154 14.0726C0.149609 13.2921 0.267923 12.145 1.04842 11.5105C1.82891 10.8759 2.97603 10.9942 3.61058 11.7747C6.56906 15.4137 9.89599 16.8161 13.1061 16.9573C15.5491 17.0647 18.0222 16.4434 20.2997 15.3649C19.8837 14.0158 19.7064 12.6546 19.7284 11.3352C19.7826 8.07645 21.0536 5.04464 22.9508 3.0784C24.8447 1.11559 27.7347 -0.0536479 30.536 1.56369C31.9895 2.40286 32.7587 3.75123 32.8834 5.27685C32.9997 6.70114 32.5545 8.17777 31.866 9.52889C30.5509 12.1097 28.0679 14.7875 25.0173 16.8508C25.4217 17.447 25.9096 18.0309 26.4905 18.5937C28.8395 20.8692 32.8306 22.909 39.2783 23.8432C40.2738 23.9875 40.9639 24.9114 40.8197 25.9069C40.6754 26.9024 39.7515 27.5925 38.756 27.4483C31.8047 26.4411 27.0147 24.1731 23.956 21.2101C23.1184 20.3987 22.4198 19.5436 21.8475 18.662C19.1379 19.9432 16.0856 20.7345 12.946 20.5964ZM23.5585 13.4255C25.9196 11.7099 27.7128 9.65624 28.6205 7.87501C29.1404 6.85469 29.2937 6.0748 29.2528 5.57344C29.2201 5.17343 29.0762 4.92705 28.7147 4.71832C27.886 4.23988 26.7852 4.3505 25.5722 5.60769C24.3625 6.86145 23.4106 8.98978 23.3705 11.3958C23.3595 12.0576 23.4176 12.7385 23.5585 13.4255Z" fill="#7486FF"/>
<path fill-rule="evenodd" clip-rule="evenodd" d="M50.2916 47.1506C50.6766 45.719 52.5194 45.3224 53.4591 46.469L57.0616 50.8644C57.3027 51.1586 57.6299 51.37 57.9973 51.4687L63.4854 52.9445C64.917 53.3294 65.3135 55.1722 64.1669 56.112L59.7715 59.7144C59.4773 59.9555 59.266 60.2827 59.1672 60.6501L57.6915 66.1382C57.3065 67.5698 55.4637 67.9664 54.524 66.8198L50.9216 62.4244C50.6804 62.1302 50.3532 61.9188 49.9859 61.82L44.4978 60.3443C43.7621 60.1465 43.2998 59.5638 43.1797 58.9165C43.1391 58.6977 43.1376 58.4715 43.1778 58.2503C43.2503 57.8523 43.4579 57.4705 43.8162 57.1768L48.2116 53.5744C48.5058 53.3333 48.7171 53.006 48.8159 52.6387L50.2916 47.1506Z" fill="#9BA8FF"/>
<path fill-rule="evenodd" clip-rule="evenodd" d="M192.785 14.3705C193.393 13.4888 194.743 13.6638 195.106 14.6713L195.983 17.105C196.076 17.3635 196.248 17.5864 196.474 17.7423L198.604 19.2104C199.485 19.8182 199.31 21.1684 198.303 21.5313L195.869 22.408C195.611 22.5011 195.388 22.6728 195.232 22.899L193.764 25.0289C193.156 25.9105 191.806 25.7355 191.443 24.7281L190.566 22.2943C190.473 22.0358 190.301 21.8129 190.075 21.657L187.945 20.1889C187.064 19.5811 187.239 18.2309 188.246 17.868L190.68 16.9914C190.938 16.8982 191.161 16.7265 191.317 16.5003L192.785 14.3705Z" fill="#7486FF"/>
<path d="M94.376 22.6875C94.376 31.7336 101.803 36.5534 107.238 40.869C109.156 42.3907 111.004 43.8249 112.851 43.8249C114.699 43.8249 116.546 42.3925 118.464 40.8672C123.901 36.5552 131.326 31.7336 131.326 22.6894C131.326 13.6451 121.165 7.22562 112.851 15.9239C104.537 7.22562 94.376 13.6414 94.376 22.6875Z" fill="#FFD8DE"/>
<path d="M73.1758 187.524C71.7016 191.332 63.2253 191.578 54.2575 188.261C45.2898 184.944 40.376 175.24 40.376 175.24C40.376 175.24 50.0808 171.554 59.2942 174.503C69.6132 177.819 74.5271 183.716 73.1758 187.524Z" fill="#E6E9FF"/>
<path d="M70.4707 186.665C65.5569 180.277 57.2034 181.137 50.2012 179.417C50.2012 176.591 59.7831 177.328 61.8715 178.803C65.5569 180.4 68.9966 182.734 71.0849 186.173L70.4707 186.542V186.665Z" fill="#B4BEFF"/>
<path d="M152.903 187.524C154.377 191.332 162.854 191.578 171.822 188.261C180.789 184.944 185.703 175.24 185.703 175.24C185.703 175.24 175.998 171.554 166.785 174.503C156.466 177.819 151.552 183.716 152.903 187.524Z" fill="#E6E9FF"/>
<path d="M154.865 186.171C159.165 179.66 168.378 175.238 175.872 178.555V179.292C168.87 181.012 160.516 180.152 155.602 186.54L154.988 186.171H154.865Z" fill="#B4BEFF"/>
<path d="M157.205 78.8013H69.0017C61.3852 78.8013 55.1201 85.0664 55.1201 92.6828V105.336C55.1201 108.039 57.3313 110.25 60.0339 110.25H66.4219C69.1245 110.25 73.547 106.81 73.7927 104.107L60.5253 217.248C59.9111 222.531 64.0878 227.199 69.3702 227.199H156.713C161.996 227.199 166.173 222.531 165.558 217.248L152.291 104.107C152.537 106.81 156.959 110.25 159.662 110.25H166.05C168.752 110.25 170.964 108.039 170.964 105.336V92.6828C170.964 85.0664 164.698 78.8013 157.082 78.8013L157.205 78.8013Z" fill="#F7F8FA"/>
<path d="M151.798 100.912C149.095 97.8409 144.673 89.9787 146.515 86.5391C149.709 90.4701 152.535 95.9982 151.798 100.912Z" fill="#F7F8FA"/>
<path d="M74.2793 101.038C74.2793 96.9845 76.3677 88.1396 80.053 86.9111C79.8074 91.9478 78.2104 97.9672 74.2793 101.038Z" fill="#F7F8FA"/>
<path d="M99.3435 114.548C101.718 114.548 103.643 112.623 103.643 110.249C103.643 107.874 101.718 105.949 99.3435 105.949C96.9689 105.949 95.0439 107.874 95.0439 110.249C95.0439 112.623 96.9689 114.548 99.3435 114.548Z" fill="black"/>
<path d="M126.864 114.548C129.239 114.548 131.164 112.623 131.164 110.249C131.164 107.874 129.239 105.949 126.864 105.949C124.489 105.949 122.564 107.874 122.564 110.249C122.564 112.623 124.489 114.548 126.864 114.548Z" fill="black"/>
<path d="M121.702 125.61C121.702 128.435 115.437 130.647 113.103 130.647C111.26 130.647 104.504 128.435 104.504 125.61C104.504 122.784 108.312 120.573 113.103 120.573C117.894 120.573 121.702 122.784 121.702 125.61Z" fill="black"/>
<path d="M63.8424 189.732C88.1658 189.487 113.472 189.732 137.55 189.118C198.358 185.679 132.145 203.614 113.226 201.771C96.1508 201.526 78.8295 198.946 63.5967 190.961L63.9652 189.732H63.8424Z" fill="#E6E9FF"/>
<path d="M101.919 118.975C107.938 114.184 117.397 114.061 123.54 118.852L123.294 119.466C116.046 117.746 109.044 118.729 101.919 119.097V118.975Z" fill="#F7F8FA"/>
</svg>
