<svg width="20" height="20" viewBox="0 0 20 20" fill="none" xmlns="http://www.w3.org/2000/svg">
<path d="M2.74471 11.1863C2.66415 11.4062 2.50101 11.5861 2.28996 11.6876C2.07891 11.7892 1.83658 11.8045 1.61445 11.7302C1.39232 11.6559 1.20791 11.4979 1.1004 11.2899C0.992888 11.0818 0.970748 10.84 1.03868 10.6158C1.07164 10.5171 1.10887 10.418 1.15026 10.3225C1.22224 10.1515 1.32842 9.91579 1.47419 9.63685C1.77112 9.07897 2.23362 8.33574 2.91567 7.5925C4.29236 6.08983 6.54726 4.60156 9.9899 4.60156C13.4325 4.60156 15.6874 6.08983 17.0641 7.5925C17.7984 8.3991 18.3943 9.32154 18.8277 10.3225L18.9105 10.5259C18.9159 10.5402 18.9339 10.6338 18.9519 10.7238L18.9879 10.9002C18.9879 10.9002 19.1391 11.4994 18.3724 11.7532C18.1467 11.8286 17.9002 11.8114 17.6871 11.7055C17.4739 11.5996 17.3114 11.4136 17.2351 11.1881V11.1827L17.2243 11.1539L17.1685 11.0135C16.815 10.2051 16.3317 9.45981 15.7378 8.80723C14.6401 7.6141 12.8459 6.40116 9.9899 6.40116C7.13393 6.40116 5.33973 7.6123 4.24197 8.80903C3.64823 9.46107 3.16497 10.2057 2.81129 11.0135L2.7573 11.1539L2.74471 11.1863ZM6.3907 11.8C6.3907 10.8454 6.7699 9.92993 7.44488 9.25495C8.11986 8.57997 9.03533 8.20077 9.9899 8.20077C10.9445 8.20077 11.8599 8.57997 12.5349 9.25495C13.2099 9.92993 13.5891 10.8454 13.5891 11.8C13.5891 12.7545 13.2099 13.67 12.5349 14.345C11.8599 15.02 10.9445 15.3992 9.9899 15.3992C9.03533 15.3992 8.11986 15.02 7.44488 14.345C6.7699 13.67 6.3907 12.7545 6.3907 11.8Z" fill="currentColor"/>
</svg>
