<svg width="18" height="18" viewBox="0 0 18 18" fill="none" xmlns="http://www.w3.org/2000/svg">
<path d="M16.6629 15.0465C16.8775 15.2611 16.9981 15.5521 16.9981 15.8556C16.9981 16.1591 16.8775 16.4502 16.6629 16.6648C16.4483 16.8794 16.1572 17 15.8537 17C15.5502 17 15.2591 16.8794 15.0445 16.6648L9 10.6188L2.95365 16.6629C2.73903 16.8775 2.44794 16.9981 2.14442 16.9981C1.8409 16.9981 1.54981 16.8775 1.33519 16.6629C1.12057 16.4483 1 16.1572 1 15.8537C1 15.5502 1.12057 15.2592 1.33519 15.0446L7.38155 9.00048L1.3371 2.95448C1.12248 2.73987 1.0019 2.4488 1.0019 2.1453C1.0019 1.8418 1.12248 1.55073 1.3371 1.33612C1.55172 1.12152 1.8428 1.00095 2.14632 1.00095C2.44984 1.00095 2.74093 1.12152 2.95555 1.33612L9 7.38212L15.0464 1.33517C15.261 1.12057 15.5521 1 15.8556 1C16.1591 1 16.4502 1.12057 16.6648 1.33517C16.8794 1.54978 17 1.84085 17 2.14435C17 2.44785 16.8794 2.73892 16.6648 2.95353L10.6185 9.00048L16.6629 15.0465Z" fill="currentColor"/>
</svg>
