<svg width="146" height="150" viewBox="0 0 146 150" fill="none" xmlns="http://www.w3.org/2000/svg">
<path d="M33.1367 109.524C31.6625 113.332 23.1862 113.578 14.2185 110.261C5.25074 106.944 0.336914 97.2397 0.336914 97.2397C0.336914 97.2397 10.0417 93.5543 19.2551 96.5026C29.5742 99.8194 34.488 105.716 33.1367 109.524Z" fill="#E6E9FF"/>
<path d="M30.4316 108.665C25.5178 102.277 17.1643 103.137 10.1621 101.417C10.1621 98.5914 19.7441 99.3285 21.8324 100.803C25.5178 102.4 28.9575 104.734 31.0459 108.173L30.4316 108.542V108.665Z" fill="#B4BEFF"/>
<path d="M112.864 109.524C114.338 113.332 122.815 113.578 131.782 110.261C140.75 106.944 145.664 97.2397 145.664 97.2397C145.664 97.2397 135.959 93.5543 126.746 96.5026C116.427 99.8194 111.513 105.716 112.864 109.524Z" fill="#E6E9FF"/>
<path d="M114.826 108.171C119.126 101.66 128.339 97.238 135.833 100.555V101.292C128.831 103.012 120.477 102.152 115.563 108.54L114.949 108.171H114.826Z" fill="#B4BEFF"/>
<path d="M117.166 0.80127H28.9626C21.3462 0.80127 15.0811 7.0664 15.0811 14.6828V27.3359C15.0811 30.0385 17.2923 32.2497 19.9949 32.2497H26.3828C29.0855 32.2497 33.5079 28.8101 33.7536 26.1075L20.4863 139.248C19.872 144.531 24.0488 149.199 29.3311 149.199H116.674C121.957 149.199 126.133 144.531 125.519 139.248L112.252 26.1075C112.498 28.8101 116.92 32.2497 119.623 32.2497H126.011C128.713 32.2497 130.924 30.0385 130.924 27.3359V14.6828C130.924 7.0664 124.659 0.80127 117.043 0.80127L117.166 0.80127Z" fill="#F7F8FA"/>
<path d="M111.759 22.912C109.056 19.8409 104.634 11.9787 106.476 8.53906C109.67 12.4701 112.496 17.9982 111.759 22.912Z" fill="#F7F8FA"/>
<path d="M34.2402 23.0384C34.2402 18.9845 36.3286 10.1396 40.014 8.91113C39.7683 13.9478 38.1713 19.9672 34.2402 23.0384Z" fill="#F7F8FA"/>
<path d="M59.3045 36.5484C61.6791 36.5484 63.6041 34.6234 63.6041 32.2488C63.6041 29.8742 61.6791 27.9492 59.3045 27.9492C56.9299 27.9492 55.0049 29.8742 55.0049 32.2488C55.0049 34.6234 56.9299 36.5484 59.3045 36.5484Z" fill="black"/>
<path d="M86.825 36.5484C89.1996 36.5484 91.1246 34.6234 91.1246 32.2488C91.1246 29.8742 89.1996 27.9492 86.825 27.9492C84.4504 27.9492 82.5254 29.8742 82.5254 32.2488C82.5254 34.6234 84.4504 36.5484 86.825 36.5484Z" fill="black"/>
<path d="M81.6632 47.6099C81.6632 50.4354 75.3981 52.6466 73.064 52.6466C71.2214 52.6466 64.4648 50.4354 64.4648 47.6099C64.4648 44.7845 68.2731 42.5732 73.064 42.5732C77.855 42.5732 81.6632 44.7845 81.6632 47.6099Z" fill="black"/>
<path d="M23.8033 111.732C48.1267 111.487 73.4329 111.732 97.5107 111.118C158.319 107.679 92.1055 125.614 73.1872 123.771C56.1117 123.526 38.7905 120.946 23.5576 112.961L23.9262 111.732H23.8033Z" fill="#E6E9FF"/>
<path d="M61.8799 40.9746C67.8993 36.1836 77.3584 36.0608 83.5007 40.8517L83.255 41.466C76.0071 39.7461 69.0049 40.7289 61.8799 41.0974V40.9746Z" fill="#F7F8FA"/>
<path d="M99 50.1437C99 53.8206 96.0899 56.8013 92.5 56.8013C88.9101 56.8013 86 53.8206 86 50.1437C86 46.4669 91.537 38.8013 92.5 38.8013C93.463 38.8013 99 46.4669 99 50.1437Z" fill="#B4BEFF"/>
</svg>
