<svg width="166" height="178" viewBox="0 0 166 178" fill="none" xmlns="http://www.w3.org/2000/svg">
<path d="M93.6747 28.944H79.7763L70.3197 2.86667C68.6003 -0.858659 61.2929 -1.00194 59.7168 2.72339L49.9737 25.0754C48.8274 27.6545 48.111 30.5201 47.8244 33.3857L39.5141 121.074C39.5141 121.074 37.2216 134.686 37.3648 134.973H79.3465L126.486 121.647H128.779C128.779 121.647 129.209 121.361 129.209 121.218C150.271 118.782 165.602 88.6926 165.602 67.2003V63.0451C165.602 56.0243 161.877 50.7229 156.146 50.7229H125.34C124.05 50.7229 123.047 49.7199 122.904 48.5736L121.185 29.3738C121.185 29.3738 121.185 28.944 121.185 28.8007L113.304 3.29652C111.871 -0.42881 104.851 -0.572092 103.561 3.29652L93.9612 29L93.6747 28.944Z" fill="#F7F8FA"/>
<path d="M85.0797 52.5836C86.8997 52.5836 88.3752 51.1082 88.3752 49.2882C88.3752 47.4681 86.8997 45.9927 85.0797 45.9927C83.2596 45.9927 81.7842 47.4681 81.7842 49.2882C81.7842 51.1082 83.2596 52.5836 85.0797 52.5836Z" fill="black"/>
<path d="M104.991 52.5836C106.811 52.5836 108.287 51.1082 108.287 49.2882C108.287 47.4681 106.811 45.9927 104.991 45.9927C103.171 45.9927 101.696 47.4681 101.696 49.2882C101.696 51.1082 103.171 52.5836 104.991 52.5836Z" fill="black"/>
<path d="M140.161 77.9615C148.594 77.2044 155.046 72.3099 154.572 67.0292C154.098 61.7486 146.877 58.0815 138.444 58.8386C130.011 59.5957 123.559 64.4903 124.033 69.7709C124.507 75.0515 131.728 78.7186 140.161 77.9615Z" fill="black"/>
<path d="M129.493 140.409L28.0489 177.519C24.4669 178.666 21.1714 174.94 22.3176 171.072L34.3533 125.221C34.7832 123.645 47.392 124.648 55.4158 125.508C59.571 125.938 63.7261 125.938 67.8813 125.651L128.203 121.496C130.782 121.496 132.931 123.789 132.931 126.654V135.394C132.931 137.687 131.499 139.693 129.493 140.409Z" fill="#E6E9FF"/>
<path d="M74.4774 28.36C70.179 30.2226 59.7194 32.0853 56.7104 28.7898C62.2984 26.7839 69.3193 25.6376 74.4774 28.36Z" fill="#EAEBED"/>
<path d="M116.314 28.8007C111.729 30.2335 101.269 31.0932 98.5469 27.5112C104.278 25.9351 111.442 25.6485 116.314 28.8007Z" fill="#EAEBED"/>
<path d="M38.6537 121.646C36.9344 126.088 27.0479 126.375 16.5883 122.506C6.12874 118.637 0.397461 107.318 0.397461 107.318C0.397461 107.318 11.7167 103.02 22.4629 106.458C34.4986 110.327 40.2299 117.205 38.6537 121.646Z" fill="#E6E9FF"/>
<path d="M42.0936 132.102C46.6832 132.102 50.4039 128.766 50.4039 124.652C50.4039 120.537 46.6832 117.201 42.0936 117.201C37.5039 117.201 33.7832 120.537 33.7832 124.652C33.7832 128.766 37.5039 132.102 42.0936 132.102Z" fill="#E6E9FF"/>
<path d="M132.936 127.088C118.321 128.951 104.423 138.264 91.957 142.562C101.414 130.383 118.464 128.521 132.792 126.085V126.945L132.936 127.088Z" fill="#B4BEFF"/>
<path d="M35.498 120.492C29.7667 113.041 20.0235 114.044 11.8564 112.038C11.8564 108.743 23.0324 109.602 25.4682 111.322C29.7667 113.184 33.7786 115.907 36.2144 119.919L35.498 120.349V120.492Z" fill="#B4BEFF"/>
</svg>
