<svg width="146" height="149" viewBox="0 0 146 149" fill="none" xmlns="http://www.w3.org/2000/svg">
<path d="M33.1362 108.723C31.6621 112.531 23.1857 112.777 14.218 109.46C5.25025 106.143 0.336426 96.4384 0.336426 96.4384C0.336426 96.4384 10.0412 92.753 19.2547 95.7013C29.5737 99.0182 34.4875 104.915 33.1362 108.723Z" fill="#E6E9FF"/>
<path d="M30.4312 107.863C25.5173 101.476 17.1638 102.335 10.1616 100.616C10.1616 97.7901 19.7436 98.5272 21.832 100.001C25.5173 101.598 28.957 103.932 31.0454 107.372L30.4312 107.741V107.863Z" fill="#B4BEFF"/>
<path d="M112.864 108.723C114.338 112.531 122.814 112.777 131.782 109.46C140.75 106.143 145.664 96.4384 145.664 96.4384C145.664 96.4384 135.959 92.753 126.745 95.7013C116.426 99.0182 111.512 104.915 112.864 108.723Z" fill="#E6E9FF"/>
<path d="M114.826 107.37C119.125 100.859 128.339 96.4367 135.832 99.7535V100.491C128.83 102.21 120.477 101.351 115.563 107.739L114.949 107.37H114.826Z" fill="#B4BEFF"/>
<path d="M117.165 0H28.9621C21.3457 0 15.0806 6.26513 15.0806 13.8816V26.5347C15.0806 29.2373 17.2918 31.4485 19.9944 31.4485H26.3824C29.085 31.4485 33.5074 28.0088 33.7531 25.3062L20.4858 138.447C19.8715 143.729 24.0483 148.398 29.3307 148.398H116.674C121.956 148.398 126.133 143.729 125.519 138.447L112.251 25.3062C112.497 28.0088 116.92 31.4485 119.622 31.4485H126.01C128.713 31.4485 130.924 29.2373 130.924 26.5347V13.8816C130.924 6.26513 124.659 0 117.042 0L117.165 0Z" fill="#F7F8FA"/>
<path d="M111.758 22.1107C109.056 19.0396 104.633 11.1775 106.476 7.73779C109.67 11.6689 112.495 17.1969 111.758 22.1107Z" fill="#F7F8FA"/>
<path d="M34.2397 22.2371C34.2397 18.1832 36.3281 9.33832 40.0135 8.10986C39.7678 13.1465 38.1708 19.166 34.2397 22.2371Z" fill="#F7F8FA"/>
<path d="M59.304 35.7469C61.6786 35.7469 63.6036 33.8219 63.6036 31.4473C63.6036 29.0727 61.6786 27.1477 59.304 27.1477C56.9294 27.1477 55.0044 29.0727 55.0044 31.4473C55.0044 33.8219 56.9294 35.7469 59.304 35.7469Z" fill="black"/>
<path d="M86.8245 35.7469C89.1991 35.7469 91.1241 33.8219 91.1241 31.4473C91.1241 29.0727 89.1991 27.1477 86.8245 27.1477C84.4499 27.1477 82.5249 29.0727 82.5249 31.4473C82.5249 33.8219 84.4499 35.7469 86.8245 35.7469Z" fill="black"/>
<path d="M81.6627 46.8082C81.6627 49.6336 75.3976 51.8448 73.0636 51.8448C71.2209 51.8448 64.4644 49.6336 64.4644 46.8082C64.4644 43.9827 68.2726 41.7715 73.0636 41.7715C77.8545 41.7715 81.6627 43.9827 81.6627 46.8082Z" fill="black"/>
<path d="M23.8028 110.931C48.1263 110.686 73.4324 110.931 97.5102 110.317C158.319 106.877 92.105 124.813 73.1868 122.97C56.1112 122.724 38.79 120.145 23.5571 112.16L23.9257 110.931H23.8028Z" fill="#E6E9FF"/>
<path d="M61.8794 40.1733C67.8988 35.3823 77.3579 35.2595 83.5002 40.0505L83.2545 40.6647C76.0066 38.9449 69.0044 39.9276 61.8794 40.2962V40.1733Z" fill="#F7F8FA"/>
</svg>
