<svg width="148" height="160" viewBox="0 0 148 160" fill="none" xmlns="http://www.w3.org/2000/svg">
<path d="M147.773 63.249C147.773 50.4325 139.229 39.8041 127.767 37.3034C125.37 25.2162 115.367 16.1509 103.28 16.1509C100.779 16.1509 98.3828 16.6719 96.0904 17.4013C92.5477 7.29395 83.4823 0 72.6456 0C61.8089 0 53.0561 6.98135 49.4091 16.7761C47.7419 16.3593 45.9705 16.1509 44.095 16.1509C31.9036 16.1509 21.7963 25.3204 19.5039 37.5118C8.4588 40.3251 0.227051 50.7451 0.227051 63.249C0.227051 70.0219 2.72783 76.0655 6.68741 80.7545C5.74961 83.5679 5.12442 86.5896 5.12442 89.7156C5.12442 104.304 16.378 116.182 30.1323 116.182C30.4449 116.182 30.6533 116.182 30.8617 116.182L22.0047 140.356C20.4417 150.36 27.7357 159.529 37.4262 159.529H107.657C116.93 159.529 124.12 151.089 123.182 141.398L113.804 116.182C113.804 116.182 114.534 116.286 114.951 116.286C128.809 116.286 139.958 104.408 139.958 89.8198C139.958 87.5274 139.542 85.3392 139.021 83.1511C144.231 78.2537 147.669 71.2723 147.669 63.3532L147.773 63.249Z" fill="#F7F8FA"/>
<path d="M58.9512 57.9385C60.9653 57.9385 62.5982 56.3057 62.5982 54.2915C62.5982 52.2773 60.9653 50.6445 58.9512 50.6445C56.937 50.6445 55.3042 52.2773 55.3042 54.2915C55.3042 56.3057 56.937 57.9385 58.9512 57.9385Z" fill="black"/>
<path d="M85.3115 57.9385C87.3257 57.9385 88.9585 56.3057 88.9585 54.2915C88.9585 52.2773 87.3257 50.6445 85.3115 50.6445C83.2974 50.6445 81.6646 52.2773 81.6646 54.2915C81.6646 56.3057 83.2974 57.9385 85.3115 57.9385Z" fill="black"/>
<path d="M83.4247 68.4604C83.4247 72.0031 75.4014 74.9207 72.3796 74.9207C69.983 74.9207 61.3345 72.0031 61.3345 68.4604C61.3345 64.9176 66.2319 62 72.3796 62C78.5274 62 83.4247 64.9176 83.4247 68.4604Z" fill="black"/>
<path d="M50.8662 63.1442C43.0513 61.3728 36.9035 63.4568 32.6313 62.8316C37.4245 58.8721 46.8025 58.6637 50.8662 63.1442Z" fill="#EAEBED"/>
<path d="M114.384 62.7663C106.569 60.9949 100.421 63.0789 96.1489 62.4537C100.942 58.4941 110.32 58.2857 114.384 62.7663Z" fill="#EAEBED"/>
<path d="M30.6532 116.083C51.2847 115.875 72.7498 116.083 93.1728 115.562C144.751 112.645 88.5881 127.858 72.5414 126.295C58.0577 126.086 43.3655 123.898 30.4448 117.125L30.7574 116.083H30.6532Z" fill="#E6E9FF"/>
<path d="M60.4731 79.2598C60.4731 79.2598 71.8441 87.0127 83.9535 79.2598" stroke="black" stroke-width="1.84594" stroke-linecap="round" stroke-linejoin="round"/>
</svg>
