<svg width="100" height="100" viewBox="0 0 100 100" fill="none" xmlns="http://www.w3.org/2000/svg">
<rect x="0.5" y="0.5" width="99" height="99" rx="49.5" fill="white"/>
<rect x="0.5" y="0.5" width="99" height="99" rx="49.5" stroke="#EAEBED"/>
<path d="M36.4669 45.9226C38.3426 45.9226 39.8631 44.4021 39.8631 42.5265C39.8631 40.6509 38.3426 39.1304 36.4669 39.1304C34.5913 39.1304 33.0708 40.6509 33.0708 42.5265C33.0708 44.4021 34.5913 45.9226 36.4669 45.9226Z" fill="black"/>
<path d="M61.0148 45.9226C62.8904 45.9226 64.4109 44.4021 64.4109 42.5265C64.4109 40.6509 62.8904 39.1304 61.0148 39.1304C59.1392 39.1304 57.6187 40.6509 57.6187 42.5265C57.6187 44.4021 59.1392 45.9226 61.0148 45.9226Z" fill="black"/>
<path d="M59.2559 55.7211C59.2559 59.0202 51.7844 61.7371 48.9705 61.7371C46.7387 61.7371 38.6851 59.0202 38.6851 55.7211C38.6851 52.422 43.2456 49.7051 48.9705 49.7051C54.6954 49.7051 59.2559 52.422 59.2559 55.7211Z" fill="black"/>
<path d="M28.9372 50.7703C21.6598 49.1207 15.9349 51.0614 11.9565 50.4792C16.42 46.7919 25.1529 46.5979 28.9372 50.7703Z" fill="#EAEBED"/>
<path d="M88.0856 50.4187C80.8082 48.7691 75.0833 50.7098 71.105 50.1276C75.5685 46.4404 84.3014 46.2463 88.0856 50.4187Z" fill="#EAEBED"/>
</svg>
