<svg width="100" height="100" viewBox="0 0 100 100" fill="none" xmlns="http://www.w3.org/2000/svg">
<rect x="0.5" y="0.5" width="99" height="99" rx="49.5" fill="white"/>
<rect x="0.5" y="0.5" width="99" height="99" rx="49.5" stroke="#EAEBED"/>
<path d="M39.5322 46.2945C41.5106 46.2945 43.1143 44.6907 43.1143 42.7124C43.1143 40.7341 41.5106 39.1304 39.5322 39.1304C37.5539 39.1304 35.9502 40.7341 35.9502 42.7124C35.9502 44.6907 37.5539 46.2945 39.5322 46.2945Z" fill="black"/>
<path d="M61.1758 46.2945C63.1541 46.2945 64.7578 44.6907 64.7578 42.7124C64.7578 40.7341 63.1541 39.1304 61.1758 39.1304C59.1975 39.1304 57.5938 40.7341 57.5938 42.7124C57.5938 44.6907 59.1975 46.2945 61.1758 46.2945Z" fill="black"/>
<path d="M45.3988 27.8324C40.7266 29.857 29.3575 31.8817 26.0869 28.2996C32.1608 26.1192 39.7921 24.8733 45.3988 27.8324Z" fill="#EAEBED"/>
<path d="M74.7465 28.7371C69.7628 30.2945 58.3937 31.229 55.4346 27.3354C61.6642 25.6223 69.4513 25.3108 74.7465 28.7371Z" fill="#EAEBED"/>
<path d="M59.9252 61.4506C59.9252 64.7497 53.0514 67.4666 50.4626 67.4666C48.4094 67.4666 41 64.7497 41 61.4506C41 58.1515 45.1957 55.4346 50.4626 55.4346C55.7295 55.4346 59.9252 58.1515 59.9252 61.4506Z" fill="black"/>
</svg>
