<svg width="166" height="155" viewBox="0 0 166 155" fill="none" xmlns="http://www.w3.org/2000/svg">
<path fill-rule="evenodd" clip-rule="evenodd" d="M70.8001 0.787715C69.9996 -0.262572 68.4191 -0.262571 67.6186 0.787715L57.368 14.2382C56.3647 15.5546 57.3035 17.4504 58.9587 17.4504H63.7094V61.7004C63.7094 62.805 64.6048 63.7004 65.7094 63.7004H72.7094C73.8139 63.7004 74.7094 62.805 74.7094 61.7004V17.4504H79.46C81.1152 17.4504 82.054 15.5546 81.0507 14.2382L70.8001 0.787715Z" fill="url(#paint0_linear_8786_8075)"/>
<g clip-path="url(#clip0_8786_8075)">
<path d="M81.8852 55.44C85.5452 53.64 89.9452 54.97 91.3752 58.91C92.5052 58.8 93.3152 58.09 94.4952 57.96C97.5052 57.63 100.585 59.41 101.325 62.42C101.945 62.34 102.295 61.87 102.925 61.66C107.445 60.15 111.395 63.12 111.795 67.77C112.225 72.77 112.205 83.92 110.915 88.59C108.715 96.57 101.085 103.32 92.7252 104.04C80.4652 105.09 72.1552 103.47 65.3452 92.81C61.9952 87.56 57.9552 80.61 55.1852 75.05C54.6552 73.98 54.0852 73 53.9852 71.76C53.4852 65.39 61.1652 62.55 65.8152 66.16C66.8652 66.97 67.6752 68.46 68.9352 68.9V43.1C68.9352 42.82 69.7352 41.26 69.9752 40.9C72.9552 36.49 79.6852 37.24 81.4452 42.3C81.5352 42.55 81.8852 43.73 81.8852 43.85V55.44ZM74.5852 41.04C73.6052 41.24 72.0852 42.61 71.9252 43.62L71.7252 73.33C71.3152 74.31 70.3752 74.32 69.4852 73.95C68.0952 73.37 65.2652 69.36 63.6752 68.3C60.5352 66.21 55.8452 68.52 57.2052 72.53C63.8852 82.26 68.3352 99.92 82.2652 101.05C93.1352 101.94 104.035 100.19 107.805 88.47C109.235 84.01 109.225 72.88 108.805 68.02C108.575 65.29 106.285 63.31 103.635 64.61C100.575 66.11 102.835 70.12 100.835 70.79C97.8352 71.78 99.0052 66.3 98.8252 64.54C98.5252 61.56 95.7752 59.78 93.2252 61.67C90.6752 63.56 92.4052 67.06 91.7952 69.72C91.5152 70.95 89.7552 71.39 89.0952 70.29C88.4352 69.19 89.0352 63.11 88.8752 61.29C88.4652 56.6 82.6452 56.68 81.9452 60.11C81.4152 62.73 82.5152 67.65 81.7752 69.91C81.3852 71.12 79.6052 71.25 79.0252 70.14L78.8652 44.37C78.7352 42.18 76.7752 40.59 74.5952 41.03L74.5852 41.04Z" fill="white"/>
</g>
<path d="M43.8343 122.258C43.8343 123.593 43.671 124.806 43.3443 125.898C43.027 126.981 42.4576 127.998 41.6363 128.95C40.815 129.893 39.6856 130.723 38.2483 131.442L37.5063 130.392C38.7663 129.757 39.7603 129.043 40.4883 128.25C41.2256 127.457 41.7436 126.589 42.0423 125.646C42.3503 124.694 42.5043 123.621 42.5043 122.426V122.258H43.8343ZM43.3163 122.258V123.364H38.2203V122.258H43.3163ZM42.4203 126.374L37.7723 126.836L37.5903 125.632L42.4203 125.324V126.374ZM47.0403 120.998V133.402H45.6543V120.998H47.0403ZM48.9303 125.926V127.06H46.6903V125.926H48.9303ZM59.6546 126.864V127.97H51.0726V126.864H59.6546ZM60.9146 130.658V131.792H49.6866V130.658H60.9146ZM59.5286 122.09V123.224H52.4306V127.34H51.0726V122.09H59.5286ZM73.1509 126.71V127.718H61.9229V126.71H73.1509ZM71.7649 128.572V131.33H64.6109V132.632H63.2529V130.42H70.4209V129.538H63.2249V128.572H71.7649ZM72.1429 132.296V133.276H63.2529V132.296H72.1429ZM71.7229 121.32V124.036H64.6949V125.254H63.3509V123.126H70.3649V122.286H63.3229V121.32H71.7229ZM71.9609 124.932V125.912H63.3509V124.932H71.9609ZM81.4038 121.558C82.0105 121.558 82.5565 121.67 83.0418 121.894C83.5365 122.109 83.9192 122.412 84.1898 122.804C84.4605 123.196 84.5958 123.644 84.5958 124.148C84.5958 124.643 84.4605 125.086 84.1898 125.478C83.9192 125.87 83.5365 126.178 83.0418 126.402C82.5565 126.617 82.0105 126.724 81.4038 126.724C80.7972 126.724 80.2512 126.617 79.7658 126.402C79.2805 126.178 78.8978 125.87 78.6178 125.478C78.3472 125.086 78.2118 124.643 78.2118 124.148C78.2118 123.644 78.3472 123.196 78.6178 122.804C78.8978 122.412 79.2805 122.109 79.7658 121.894C80.2512 121.67 80.7972 121.558 81.4038 121.558ZM81.4038 122.692C81.0492 122.692 80.7272 122.753 80.4378 122.874C80.1578 122.995 79.9385 123.168 79.7798 123.392C79.6212 123.607 79.5418 123.859 79.5418 124.148C79.5418 124.437 79.6212 124.694 79.7798 124.918C79.9385 125.133 80.1578 125.301 80.4378 125.422C80.7272 125.534 81.0492 125.59 81.4038 125.59C81.7678 125.59 82.0898 125.534 82.3698 125.422C82.6592 125.301 82.8832 125.133 83.0418 124.918C83.2005 124.694 83.2798 124.437 83.2798 124.148C83.2798 123.859 83.2005 123.607 83.0418 123.392C82.8832 123.168 82.6592 122.995 82.3698 122.874C82.0898 122.753 81.7678 122.692 81.4038 122.692ZM82.1458 128.054V133.024H80.7738V128.054H82.1458ZM87.6058 121.012V133.416H86.2338V121.012H87.6058ZM77.3718 127.648C78.9398 127.648 80.3772 127.625 81.6838 127.578C82.9905 127.522 84.2365 127.401 85.4218 127.214L85.5058 128.236C84.3018 128.469 83.0652 128.619 81.7958 128.684C80.5358 128.749 79.1172 128.787 77.5398 128.796L77.3718 127.648ZM100.85 130.798V131.918H89.6222V130.798H100.85ZM95.8942 128.264V131.26H94.5362V128.264H95.8942ZM99.5062 121.88V125.772H92.3382V128.096H90.9802V124.68H98.1482V122.972H90.9522V121.88H99.5062ZM99.7862 127.55V128.656H90.9802V127.55H99.7862ZM111.581 121.67V126.808H105.715V121.67H111.581ZM107.073 122.762V125.716H110.237V122.762H107.073ZM115.291 121.012V127.326H113.905V121.012H115.291ZM115.291 127.928V131.064H108.557V132.618H107.199V130.056H113.933V129.006H107.185V127.928H115.291ZM115.669 132.198V133.29H107.199V132.198H115.669ZM126.617 123.112V124.218H123.271V123.112H126.617ZM126.645 125.758V126.878H123.271V125.758H126.645ZM123.593 122.048V127.956H117.867V122.048H123.593ZM119.211 123.154V126.85H122.249V123.154H119.211ZM127.569 121.026V130.042H126.197V121.026H127.569ZM127.849 132.03V133.15H119.519V132.03H127.849ZM120.905 129.216V132.576H119.519V129.216H120.905ZM49.232 144.71V145.718H38.004V144.71H49.232ZM47.846 146.572V149.33H40.692V150.632H39.334V148.42H46.502V147.538H39.306V146.572H47.846ZM48.224 150.296V151.276H39.334V150.296H48.224ZM47.804 139.32V142.036H40.776V143.254H39.432V141.126H46.446V140.286H39.404V139.32H47.804ZM48.042 142.932V143.912H39.432V142.932H48.042ZM59.7529 146.908V151.416H58.3669V146.908H59.7529ZM64.6669 146.474V147.608H53.4669V146.474H64.6669ZM59.5849 141.182V141.476C59.5849 142.176 59.3702 142.82 58.9409 143.408C58.5116 143.987 57.9189 144.472 57.1629 144.864C56.4069 145.256 55.5529 145.517 54.6009 145.648L54.1249 144.57C54.9182 144.467 55.6369 144.262 56.2809 143.954C56.9342 143.637 57.4429 143.263 57.8069 142.834C58.1802 142.395 58.3669 141.943 58.3669 141.476V141.182H59.5849ZM59.7529 141.182V141.476C59.7529 141.933 59.9349 142.381 60.2989 142.82C60.6722 143.259 61.1809 143.637 61.8249 143.954C62.4782 144.262 63.2016 144.467 63.9949 144.57L63.5049 145.648C62.5622 145.527 61.7129 145.27 60.9569 144.878C60.2009 144.477 59.6082 143.982 59.1789 143.394C58.7496 142.806 58.5349 142.167 58.5349 141.476V141.182H59.7529ZM63.6169 140.496V141.602H54.5169V140.496H63.6169ZM59.7529 139.026V140.874H58.3669V139.026H59.7529ZM69.7912 141.378V141.938C69.7912 143.077 69.4879 144.085 68.8812 144.962C68.2746 145.83 67.4346 146.451 66.3612 146.824L65.6752 145.732C66.3006 145.527 66.8372 145.233 67.2852 144.85C67.7426 144.467 68.0879 144.024 68.3212 143.52C68.5546 143.016 68.6712 142.489 68.6712 141.938V141.378H69.7912ZM70.0432 141.378V141.938C70.0432 142.451 70.1599 142.946 70.3932 143.422C70.6359 143.898 70.9812 144.318 71.4292 144.682C71.8866 145.046 72.4279 145.326 73.0532 145.522L72.3812 146.6C71.6719 146.376 71.0512 146.035 70.5192 145.578C69.9966 145.121 69.5952 144.579 69.3152 143.954C69.0446 143.329 68.9092 142.657 68.9092 141.938V141.378H70.0432ZM72.6752 140.594V141.686H66.0392V140.594H72.6752ZM70.0432 139.096V141H68.6712V139.096H70.0432ZM75.2792 142.736V143.87H72.2412V142.736H75.2792ZM75.9512 139.026V148.238H74.5792V139.026H75.9512ZM76.2732 150.03V151.15H67.9292V150.03H76.2732ZM69.3152 147.426V150.702H67.9292V147.426H69.3152ZM90.8401 139.012V146.25H89.4681V139.012H90.8401ZM92.5901 141.924V143.072H90.4621V141.924H92.5901ZM83.0001 139.712V141.49H86.0941V139.712H87.4521V145.536H81.6421V139.712H83.0001ZM83.0001 144.43H86.0941V142.554H83.0001V144.43ZM90.9241 146.88V147.986H84.3581V150.912H82.9861V146.88H90.9241ZM91.1621 150.128V151.248H82.9861V150.128H91.1621ZM99.0024 139.222C100.393 139.222 101.476 139.404 102.25 139.768C103.025 140.132 103.412 140.659 103.412 141.35C103.412 142.031 103.025 142.559 102.25 142.932C101.476 143.296 100.393 143.478 99.0024 143.478C97.6118 143.478 96.5291 143.296 95.7544 142.932C94.9798 142.559 94.5924 142.031 94.5924 141.35C94.5924 140.659 94.9798 140.132 95.7544 139.768C96.5291 139.404 97.6118 139.222 99.0024 139.222ZM98.9884 140.23C98.0271 140.23 97.2898 140.328 96.7764 140.524C96.2631 140.711 96.0064 140.986 96.0064 141.35C96.0064 141.714 96.2584 141.989 96.7624 142.176C97.2758 142.363 98.0178 142.456 98.9884 142.456C99.9591 142.456 100.701 142.363 101.214 142.176C101.728 141.989 101.984 141.714 101.984 141.35C101.984 140.986 101.723 140.711 101.2 140.524C100.687 140.328 99.9498 140.23 98.9884 140.23ZM104.588 144.22V145.326H93.4024V144.22H104.588ZM103.188 146.236V149.176H96.1044V150.52H94.7604V148.196H101.83V147.272H94.7184V146.236H103.188ZM103.538 150.24V151.29H94.7604V150.24H103.538ZM114.955 139.432V140.076C114.955 140.851 114.736 141.565 114.297 142.218C113.859 142.862 113.257 143.403 112.491 143.842C111.726 144.271 110.867 144.561 109.915 144.71L109.369 143.618C110.181 143.497 110.923 143.263 111.595 142.918C112.267 142.563 112.795 142.139 113.177 141.644C113.56 141.149 113.751 140.627 113.751 140.076V139.432H114.955ZM115.193 139.432V140.076C115.193 140.617 115.385 141.135 115.767 141.63C116.159 142.125 116.687 142.549 117.349 142.904C118.021 143.259 118.763 143.497 119.575 143.618L119.029 144.71C118.087 144.561 117.233 144.267 116.467 143.828C115.702 143.389 115.1 142.848 114.661 142.204C114.223 141.551 114.003 140.841 114.003 140.076V139.432H115.193ZM115.123 146.754V151.402H113.751V146.754H115.123ZM120.065 145.9V147.034H108.865V145.9H120.065ZM128.36 146.6V147.16C128.36 147.748 128.253 148.308 128.038 148.84C127.824 149.372 127.506 149.848 127.086 150.268C126.666 150.688 126.162 151.01 125.574 151.234L124.888 150.212C125.402 150.035 125.84 149.783 126.204 149.456C126.568 149.129 126.844 148.77 127.03 148.378C127.217 147.977 127.31 147.571 127.31 147.16V146.6H128.36ZM128.626 146.6V147.16C128.626 147.823 128.808 148.443 129.172 149.022C129.546 149.601 130.096 150.035 130.824 150.324L130.264 151.346C129.387 151.01 128.729 150.464 128.29 149.708C127.852 148.943 127.632 148.093 127.632 147.16V146.6H128.626ZM132.868 146.6V147.16C132.868 147.711 132.77 148.261 132.574 148.812C132.388 149.353 132.098 149.853 131.706 150.31C131.314 150.767 130.834 151.113 130.264 151.346L129.676 150.324C130.152 150.109 130.554 149.825 130.88 149.47C131.207 149.115 131.45 148.737 131.608 148.336C131.776 147.935 131.86 147.543 131.86 147.16V146.6H132.868ZM133.204 146.6V147.16C133.204 147.599 133.298 148.019 133.484 148.42C133.671 148.821 133.946 149.181 134.31 149.498C134.674 149.806 135.113 150.044 135.626 150.212L134.954 151.234C134.049 150.917 133.354 150.394 132.868 149.666C132.392 148.938 132.154 148.103 132.154 147.16V146.6H133.204ZM134.548 139.026V146.068H133.148V139.026H134.548ZM127.856 139.712C128.482 139.712 129.042 139.838 129.536 140.09C130.04 140.333 130.432 140.678 130.712 141.126C130.992 141.565 131.132 142.064 131.132 142.624C131.132 143.193 130.992 143.697 130.712 144.136C130.432 144.575 130.04 144.92 129.536 145.172C129.042 145.415 128.482 145.536 127.856 145.536C127.231 145.536 126.666 145.415 126.162 145.172C125.668 144.92 125.28 144.575 125 144.136C124.72 143.697 124.58 143.193 124.58 142.624C124.58 142.064 124.72 141.565 125 141.126C125.28 140.678 125.668 140.333 126.162 140.09C126.666 139.838 127.231 139.712 127.856 139.712ZM127.856 140.846C127.492 140.846 127.161 140.921 126.862 141.07C126.564 141.219 126.33 141.429 126.162 141.7C125.994 141.971 125.91 142.279 125.91 142.624C125.91 142.979 125.994 143.291 126.162 143.562C126.33 143.833 126.559 144.043 126.848 144.192C127.147 144.332 127.483 144.402 127.856 144.402C128.23 144.402 128.561 144.332 128.85 144.192C129.149 144.043 129.382 143.833 129.55 143.562C129.718 143.291 129.802 142.979 129.802 142.624C129.802 142.279 129.718 141.971 129.55 141.7C129.382 141.429 129.149 141.219 128.85 141.07C128.561 140.921 128.23 140.846 127.856 140.846ZM139.897 139.922C140.494 139.922 141.031 140.099 141.507 140.454C141.983 140.809 142.351 141.317 142.613 141.98C142.883 142.643 143.019 143.408 143.019 144.276C143.019 145.153 142.883 145.923 142.613 146.586C142.351 147.249 141.983 147.762 141.507 148.126C141.04 148.481 140.499 148.658 139.883 148.658C139.285 148.658 138.749 148.481 138.273 148.126C137.797 147.762 137.423 147.249 137.153 146.586C136.891 145.923 136.761 145.153 136.761 144.276C136.761 143.408 136.891 142.643 137.153 141.98C137.423 141.317 137.797 140.809 138.273 140.454C138.749 140.099 139.29 139.922 139.897 139.922ZM139.897 141.168C139.533 141.168 139.211 141.294 138.931 141.546C138.66 141.798 138.445 142.157 138.287 142.624C138.137 143.091 138.063 143.641 138.063 144.276C138.063 144.92 138.137 145.48 138.287 145.956C138.445 146.423 138.66 146.782 138.931 147.034C139.211 147.286 139.528 147.412 139.883 147.412C140.247 147.412 140.569 147.286 140.849 147.034C141.129 146.782 141.343 146.423 141.493 145.956C141.642 145.48 141.717 144.92 141.717 144.276C141.717 143.641 141.642 143.091 141.493 142.624C141.343 142.157 141.129 141.798 140.849 141.546C140.569 141.294 140.251 141.168 139.897 141.168ZM146.827 138.998V151.416H145.455V138.998H146.827ZM146.057 143.632V144.738H142.585V143.632H146.057ZM152.819 145.34V148.966H151.447V145.34H152.819ZM157.369 145.34V148.966H155.997V145.34H157.369ZM160.029 148.742V149.862H148.801V148.742H160.029ZM154.401 139.712C155.278 139.712 156.062 139.847 156.753 140.118C157.444 140.379 157.98 140.757 158.363 141.252C158.755 141.747 158.951 142.316 158.951 142.96C158.951 143.604 158.755 144.173 158.363 144.668C157.98 145.153 157.444 145.531 156.753 145.802C156.062 146.063 155.278 146.194 154.401 146.194C153.524 146.194 152.74 146.063 152.049 145.802C151.358 145.531 150.817 145.153 150.425 144.668C150.042 144.173 149.851 143.604 149.851 142.96C149.851 142.316 150.042 141.747 150.425 141.252C150.817 140.757 151.358 140.379 152.049 140.118C152.74 139.847 153.524 139.712 154.401 139.712ZM154.401 140.804C153.776 140.804 153.22 140.893 152.735 141.07C152.25 141.238 151.872 141.485 151.601 141.812C151.33 142.139 151.195 142.521 151.195 142.96C151.195 143.399 151.326 143.781 151.587 144.108C151.858 144.425 152.236 144.673 152.721 144.85C153.216 145.027 153.776 145.116 154.401 145.116C155.026 145.116 155.582 145.027 156.067 144.85C156.552 144.673 156.93 144.425 157.201 144.108C157.472 143.781 157.607 143.399 157.607 142.96C157.607 142.521 157.467 142.139 157.187 141.812C156.916 141.485 156.538 141.238 156.053 141.07C155.577 140.893 155.026 140.804 154.401 140.804ZM163.515 147.678H162.255L162.017 139.894H163.725L163.515 147.678ZM162.899 148.966C163.133 148.966 163.324 149.041 163.473 149.19C163.623 149.33 163.697 149.521 163.697 149.764C163.697 150.016 163.623 150.217 163.473 150.366C163.324 150.515 163.133 150.59 162.899 150.59C162.657 150.59 162.456 150.511 162.297 150.352C162.148 150.203 162.073 150.007 162.073 149.764C162.073 149.521 162.148 149.33 162.297 149.19C162.456 149.041 162.657 148.966 162.899 148.966Z" fill="white"/>
<path d="M7.58102 142.666V144.948H6.20902V142.666H7.58102ZM11.179 142.148V143.24H2.75102V142.148H11.179ZM11.039 139.474V140.58H4.12302V142.736H2.75102V139.474H11.039ZM12.481 144.262V145.354H1.29502V144.262H12.481ZM11.081 146.25V149.19H3.99702V150.534H2.65302V148.21H9.72302V147.286H2.61102V146.25H11.081ZM11.431 150.226V151.29H2.65302V150.226H11.431ZM24.7593 148.742V149.876H13.5313V148.742H24.7593ZM19.8033 145.886V149.036H18.4453V145.886H19.8033ZM16.1633 139.852V141.938H22.0993V139.852H23.4573V146.222H14.8053V139.852H16.1633ZM16.1633 145.116H22.0993V143.044H16.1633V145.116ZM32.2217 140.188V148.35H26.4257V140.188H32.2217ZM27.7837 141.28V147.258H30.8777V141.28H27.7837ZM35.9457 138.998V151.416H34.5737V138.998H35.9457Z" fill="#9BA8FF"/>
<defs>
<linearGradient id="paint0_linear_8786_8075" x1="69.2094" y1="0" x2="69.2094" y2="63.7004" gradientUnits="userSpaceOnUse">
<stop stop-color="#7486FF"/>
<stop offset="1" stop-color="#455199" stop-opacity="0"/>
</linearGradient>
<clipPath id="clip0_8786_8075">
<rect width="58.09" height="66.31" fill="white" transform="translate(53.9551 38)"/>
</clipPath>
</defs>
</svg>
