<svg width="239" height="80" viewBox="0 0 239 80" fill="none" xmlns="http://www.w3.org/2000/svg">
<rect width="239" height="44" rx="8" fill="#7486FF"/>
<path d="M66.02 23.008V24.72H52.98V23.008H66.02ZM60.516 24.112V29.376H58.388V24.112H60.516ZM59.46 15.456C60.484 15.456 61.3907 15.5893 62.18 15.856C62.9693 16.1227 63.5827 16.5013 64.02 16.992C64.4573 17.472 64.676 18.0427 64.676 18.704C64.676 19.344 64.4573 19.9093 64.02 20.4C63.5827 20.8907 62.9693 21.2693 62.18 21.536C61.3907 21.8027 60.4787 21.936 59.444 21.936C58.4307 21.936 57.5293 21.8027 56.74 21.536C55.9507 21.2693 55.3373 20.8907 54.9 20.4C54.4627 19.9093 54.244 19.344 54.244 18.704C54.244 18.0427 54.4627 17.472 54.9 16.992C55.3373 16.5013 55.9507 16.1227 56.74 15.856C57.5293 15.5893 58.436 15.456 59.46 15.456ZM59.444 17.136C58.8253 17.136 58.2867 17.1947 57.828 17.312C57.38 17.4293 57.0333 17.6053 56.788 17.84C56.5533 18.0747 56.436 18.3627 56.436 18.704C56.436 19.0347 56.5533 19.3173 56.788 19.552C57.0333 19.7867 57.38 19.9627 57.828 20.08C58.2867 20.1973 58.8253 20.256 59.444 20.256C60.0733 20.256 60.6173 20.1973 61.076 20.08C61.5347 19.9627 61.8867 19.7867 62.132 19.552C62.3773 19.3173 62.5 19.0347 62.5 18.704C62.5 18.3627 62.3773 18.0747 62.132 17.84C61.8867 17.6053 61.5347 17.4293 61.076 17.312C60.6173 17.1947 60.0733 17.136 59.444 17.136ZM78.9644 14.944V29.392H76.8204V14.944H78.9644ZM69.0124 24.304C70.4097 24.304 71.631 24.272 72.6764 24.208C73.7324 24.144 74.7937 24.0213 75.8604 23.84L76.0684 25.552C74.991 25.744 73.9084 25.8773 72.8204 25.952C71.743 26.016 70.4684 26.048 68.9964 26.048H67.7324V24.304H69.0124ZM74.5164 16.176V21.776H69.8924V24.976H67.7324V20.096H72.3564V17.872H67.7004V16.176H74.5164ZM96.7003 14.976V23.392H94.5563V14.976H96.7003ZM95.0043 18.336V20.032H91.5643V18.336H95.0043ZM92.0443 15.984V22.592H85.2122V15.984H92.0443ZM87.3083 17.68V20.928H89.9483V17.68H87.3083ZM91.7883 23.76C93.3243 23.76 94.5349 24.0107 95.4203 24.512C96.3056 25.0027 96.7483 25.6853 96.7483 26.56C96.7483 27.456 96.3056 28.1493 95.4203 28.64C94.5349 29.1307 93.3243 29.376 91.7883 29.376C90.2629 29.376 89.0576 29.1307 88.1723 28.64C87.2976 28.1493 86.8603 27.456 86.8603 26.56C86.8603 25.6853 87.2976 25.0027 88.1723 24.512C89.0576 24.0107 90.2629 23.76 91.7883 23.76ZM91.7883 25.392C91.1696 25.392 90.6523 25.4347 90.2363 25.52C89.8309 25.6053 89.5216 25.7333 89.3083 25.904C89.0949 26.0747 88.9883 26.2933 88.9883 26.56C88.9883 26.8267 89.0949 27.0507 89.3083 27.232C89.5216 27.4027 89.8309 27.536 90.2363 27.632C90.6523 27.7173 91.1696 27.76 91.7883 27.76C92.4176 27.76 92.9403 27.7173 93.3563 27.632C93.7723 27.536 94.0869 27.4027 94.3003 27.232C94.5136 27.0507 94.6203 26.8267 94.6203 26.56C94.6203 26.2933 94.5136 26.0747 94.3003 25.904C94.0869 25.7333 93.7723 25.6053 93.3563 25.52C92.9403 25.4347 92.4176 25.392 91.7883 25.392ZM110.685 14.976V23.392H108.541V14.976H110.685ZM108.989 18.336V20.032H105.549V18.336H108.989ZM106.029 15.984V22.592H99.1966V15.984H106.029ZM101.293 17.68V20.928H103.933V17.68H101.293ZM105.773 23.76C107.309 23.76 108.519 24.0107 109.405 24.512C110.29 25.0027 110.733 25.6853 110.733 26.56C110.733 27.456 110.29 28.1493 109.405 28.64C108.519 29.1307 107.309 29.376 105.773 29.376C104.247 29.376 103.042 29.1307 102.157 28.64C101.282 28.1493 100.845 27.456 100.845 26.56C100.845 25.6853 101.282 25.0027 102.157 24.512C103.042 24.0107 104.247 23.76 105.773 23.76ZM105.773 25.392C105.154 25.392 104.637 25.4347 104.221 25.52C103.815 25.6053 103.506 25.7333 103.293 25.904C103.079 26.0747 102.973 26.2933 102.973 26.56C102.973 26.8267 103.079 27.0507 103.293 27.232C103.506 27.4027 103.815 27.536 104.221 27.632C104.637 27.7173 105.154 27.76 105.773 27.76C106.402 27.76 106.925 27.7173 107.341 27.632C107.757 27.536 108.071 27.4027 108.285 27.232C108.498 27.0507 108.605 26.8267 108.605 26.56C108.605 26.2933 108.498 26.0747 108.285 25.904C108.071 25.7333 107.757 25.6053 107.341 25.52C106.925 25.4347 106.402 25.392 105.773 25.392ZM124.557 14.944V29.392H122.413V14.944H124.557ZM116.781 15.936C117.517 15.936 118.168 16.1493 118.733 16.576C119.309 16.992 119.757 17.5947 120.077 18.384C120.408 19.1627 120.573 20.064 120.573 21.088C120.573 22.1333 120.408 23.0507 120.077 23.84C119.757 24.6187 119.309 25.2213 118.733 25.648C118.168 26.064 117.517 26.272 116.781 26.272C116.056 26.272 115.405 26.064 114.829 25.648C114.253 25.2213 113.8 24.6187 113.469 23.84C113.149 23.0507 112.989 22.1333 112.989 21.088C112.989 20.0533 113.149 19.1467 113.469 18.368C113.8 17.5893 114.253 16.992 114.829 16.576C115.405 16.1493 116.056 15.936 116.781 15.936ZM116.781 17.888C116.429 17.888 116.12 18.0107 115.853 18.256C115.597 18.5013 115.394 18.864 115.245 19.344C115.106 19.824 115.037 20.4053 115.037 21.088C115.037 21.7813 115.106 22.3733 115.245 22.864C115.394 23.344 115.597 23.712 115.853 23.968C116.12 24.2133 116.429 24.336 116.781 24.336C117.133 24.336 117.437 24.2133 117.693 23.968C117.96 23.712 118.162 23.344 118.301 22.864C118.45 22.3733 118.525 21.7813 118.525 21.088C118.525 20.4053 118.45 19.824 118.301 19.344C118.162 18.864 117.96 18.5013 117.693 18.256C117.437 18.0107 117.133 17.888 116.781 17.888ZM143.317 23.248V24.928H130.277V23.248H143.317ZM137.813 24.096V29.376H135.685V24.096H137.813ZM133.861 15.52V17.12H139.685V15.52H141.781V21.904H131.749V15.52H133.861ZM133.861 20.208H139.685V18.784H133.861V20.208ZM145.989 21.472C147.493 21.472 148.699 21.4453 149.605 21.392C150.523 21.3387 151.429 21.232 152.325 21.072L152.533 22.736C151.616 22.9067 150.677 23.0187 149.717 23.072C148.768 23.1253 147.525 23.152 145.989 23.152H144.773V21.472H145.989ZM151.557 15.888V17.584H146.917V22.016H144.773V15.888H151.557ZM151.253 18.688V20.32H146.245V18.688H151.253ZM155.605 14.976V23.648H153.477V14.976H155.605ZM157.509 18.432V20.176H155.029V18.432H157.509ZM155.605 24.256V29.376H153.477V25.952H145.973V24.256H155.605ZM169.558 14.976V29.376H167.43V14.976H169.558ZM171.606 20.56V22.32H169.078V20.56H171.606ZM166.566 17.072V18.768H158.166V17.072H166.566ZM162.374 19.552C163.078 19.552 163.707 19.7013 164.262 20C164.827 20.288 165.264 20.6933 165.574 21.216C165.894 21.7387 166.054 22.3307 166.054 22.992C166.054 23.664 165.894 24.2613 165.574 24.784C165.264 25.296 164.827 25.7013 164.262 26C163.707 26.288 163.083 26.432 162.39 26.432C161.696 26.432 161.067 26.288 160.502 26C159.947 25.7013 159.51 25.2907 159.19 24.768C158.88 24.2453 158.726 23.6533 158.726 22.992C158.726 22.3413 158.88 21.7547 159.19 21.232C159.51 20.6987 159.947 20.288 160.502 20C161.056 19.7013 161.68 19.552 162.374 19.552ZM162.39 21.28C162.07 21.28 161.787 21.3493 161.542 21.488C161.296 21.6267 161.104 21.824 160.966 22.08C160.838 22.336 160.774 22.6453 160.774 23.008C160.774 23.36 160.838 23.664 160.966 23.92C161.104 24.176 161.296 24.3733 161.542 24.512C161.787 24.64 162.07 24.704 162.39 24.704C162.699 24.704 162.976 24.64 163.222 24.512C163.467 24.3733 163.659 24.176 163.798 23.92C163.936 23.664 164.006 23.36 164.006 23.008C164.006 22.6453 163.936 22.336 163.798 22.08C163.659 21.824 163.467 21.6267 163.222 21.488C162.976 21.3493 162.699 21.28 162.39 21.28ZM163.462 15.216V17.728H161.302V15.216H163.462ZM184.23 14.96V29.36H182.086V14.96H184.23ZM179.958 16.432C179.958 18 179.755 19.4187 179.35 20.688C178.945 21.9467 178.257 23.104 177.286 24.16C176.315 25.216 175.003 26.144 173.35 26.944L172.246 25.264C173.611 24.6133 174.699 23.8827 175.51 23.072C176.331 22.2613 176.923 21.3493 177.286 20.336C177.649 19.3227 177.83 18.1547 177.83 16.832V16.432H179.958ZM178.838 16.432V18.128H173.014V16.432H178.838Z" fill="white"/>
<path d="M68.9257 68.356V70.638H67.5537V68.356H68.9257ZM72.5237 67.838V68.93H64.0957V67.838H72.5237ZM72.3837 65.164V66.27H65.4677V68.426H64.0957V65.164H72.3837ZM73.8257 69.952V71.044H62.6397V69.952H73.8257ZM72.4257 71.94V74.88H65.3417V76.224H63.9977V73.9H71.0677V72.976H63.9557V71.94H72.4257ZM72.7757 75.916V76.98H63.9977V75.916H72.7757ZM86.1041 74.432V75.566H74.8761V74.432H86.1041ZM81.1481 71.576V74.726H79.7901V71.576H81.1481ZM77.5081 65.542V67.628H83.4441V65.542H84.8021V71.912H76.1501V65.542H77.5081ZM77.5081 70.806H83.4441V68.734H77.5081V70.806ZM93.5664 65.878V74.04H87.7704V65.878H93.5664ZM89.1284 66.97V72.948H92.2224V66.97H89.1284ZM97.2904 64.688V77.106H95.9184V64.688H97.2904Z" fill="#9BA8FF"/>
<path d="M106.573 69.42V70.54H104.333V69.42H106.573ZM109.905 64.702V77.092H108.603V64.702H109.905ZM107.399 64.954V76.49H106.111V64.954H107.399ZM102.121 65.668C102.662 65.668 103.133 65.8453 103.535 66.2C103.936 66.5547 104.244 67.0633 104.459 67.726C104.683 68.3887 104.795 69.1633 104.795 70.05C104.795 70.946 104.683 71.7253 104.459 72.388C104.244 73.0507 103.936 73.5593 103.535 73.914C103.133 74.2687 102.662 74.446 102.121 74.446C101.589 74.446 101.122 74.2687 100.721 73.914C100.329 73.5593 100.021 73.0507 99.7967 72.388C99.5821 71.7253 99.4747 70.946 99.4747 70.05C99.4747 69.1633 99.5821 68.3887 99.7967 67.726C100.021 67.0633 100.329 66.5547 100.721 66.2C101.122 65.8453 101.589 65.668 102.121 65.668ZM102.121 66.97C101.831 66.97 101.584 67.0913 101.379 67.334C101.173 67.5673 101.015 67.9173 100.903 68.384C100.791 68.8413 100.735 69.3967 100.735 70.05C100.735 70.7033 100.791 71.2633 100.903 71.73C101.015 72.1967 101.173 72.5513 101.379 72.794C101.584 73.0367 101.831 73.158 102.121 73.158C102.41 73.158 102.657 73.0367 102.863 72.794C103.077 72.5513 103.241 72.1967 103.353 71.73C103.474 71.2633 103.535 70.7033 103.535 70.05C103.535 69.3967 103.474 68.8413 103.353 68.384C103.241 67.9173 103.077 67.5673 102.863 67.334C102.657 67.0913 102.41 66.97 102.121 66.97ZM122.155 64.702V77.092H120.839V64.702H122.155ZM118.571 69.644V70.75H115.645V69.644H118.571ZM119.537 64.996V76.476H118.249V64.996H119.537ZM116.919 66.228C116.919 67.3853 116.765 68.4633 116.457 69.462C116.149 70.4513 115.654 71.3707 114.973 72.22C114.292 73.0693 113.405 73.816 112.313 74.46L111.515 73.48C112.458 72.9107 113.228 72.276 113.825 71.576C114.432 70.8667 114.875 70.092 115.155 69.252C115.435 68.412 115.575 67.4927 115.575 66.494V66.228H116.919ZM116.051 66.228V67.348H112.103V66.228H116.051ZM130.478 67.964V68.482C130.478 69.3407 130.371 70.1713 130.156 70.974C129.951 71.7673 129.638 72.4813 129.218 73.116C128.798 73.7507 128.28 74.2453 127.664 74.6L126.88 73.564C127.431 73.2467 127.897 72.8173 128.28 72.276C128.663 71.7253 128.947 71.128 129.134 70.484C129.33 69.8307 129.428 69.1633 129.428 68.482V67.964H130.478ZM130.744 67.964V68.482C130.744 69.1447 130.837 69.7887 131.024 70.414C131.22 71.03 131.509 71.59 131.892 72.094C132.284 72.598 132.755 72.9993 133.306 73.298L132.522 74.32C131.915 73.9933 131.397 73.5313 130.968 72.934C130.548 72.3273 130.231 71.6413 130.016 70.876C129.801 70.1107 129.694 69.3127 129.694 68.482V67.964H130.744ZM132.928 66.928V68.048H127.23V66.928H132.928ZM130.744 65.122V67.782H129.428V65.122H130.744ZM137.66 64.702V77.092H136.344V64.702H137.66ZM136.82 69.616V70.736H134.566V69.616H136.82ZM134.958 64.954V76.49H133.656V64.954H134.958ZM141.006 70.47C142.416 70.47 143.536 70.4467 144.366 70.4C145.197 70.3533 146.023 70.2647 146.844 70.134L146.97 71.226C146.14 71.366 145.295 71.4593 144.436 71.506C143.587 71.5433 142.444 71.562 141.006 71.562H139.984V70.47H141.006ZM145.892 65.598V66.69H141.342V70.96H139.984V65.598H145.892ZM145.542 68.006V69.084H140.908V68.006H145.542ZM149.49 64.716V72.304H148.104V64.716H149.49ZM145.36 72.486C146.658 72.486 147.68 72.6913 148.426 73.102C149.173 73.5033 149.546 74.0633 149.546 74.782C149.546 75.5193 149.173 76.084 148.426 76.476C147.689 76.8773 146.667 77.078 145.36 77.078C144.044 77.078 143.013 76.8773 142.266 76.476C141.529 76.084 141.16 75.5193 141.16 74.782C141.16 74.0633 141.534 73.5033 142.28 73.102C143.027 72.6913 144.054 72.486 145.36 72.486ZM145.36 73.55C144.763 73.55 144.254 73.6013 143.834 73.704C143.414 73.7973 143.092 73.9373 142.868 74.124C142.654 74.3013 142.546 74.516 142.546 74.768C142.546 75.1693 142.789 75.4773 143.274 75.692C143.769 75.9067 144.464 76.014 145.36 76.014C146.256 76.014 146.947 75.9067 147.432 75.692C147.927 75.4773 148.174 75.1693 148.174 74.768C148.174 74.516 148.062 74.3013 147.838 74.124C147.614 73.9373 147.292 73.7973 146.872 73.704C146.452 73.6013 145.948 73.55 145.36 73.55ZM157.121 64.912C158.511 64.912 159.594 65.094 160.369 65.458C161.143 65.822 161.531 66.3493 161.531 67.04C161.531 67.7213 161.143 68.2487 160.369 68.622C159.594 68.986 158.511 69.168 157.121 69.168C155.73 69.168 154.647 68.986 153.873 68.622C153.098 68.2487 152.711 67.7213 152.711 67.04C152.711 66.3493 153.098 65.822 153.873 65.458C154.647 65.094 155.73 64.912 157.121 64.912ZM157.107 65.92C156.145 65.92 155.408 66.018 154.895 66.214C154.381 66.4007 154.125 66.676 154.125 67.04C154.125 67.404 154.377 67.6793 154.881 67.866C155.394 68.0527 156.136 68.146 157.107 68.146C158.077 68.146 158.819 68.0527 159.333 67.866C159.846 67.6793 160.103 67.404 160.103 67.04C160.103 66.676 159.841 66.4007 159.319 66.214C158.805 66.018 158.068 65.92 157.107 65.92ZM162.707 69.91V71.016H151.521V69.91H162.707ZM161.307 71.926V74.866H154.223V76.21H152.879V73.886H159.949V72.962H152.837V71.926H161.307ZM161.657 75.93V76.98H152.879V75.93H161.657ZM178.211 74.432V75.566H166.983V74.432H178.211ZM173.255 71.576V74.726H171.897V71.576H173.255ZM169.615 65.542V67.628H175.551V65.542H176.909V71.912H168.257V65.542H169.615ZM169.615 70.806H175.551V68.734H169.615V70.806ZM189.748 64.702V77.092H188.432V64.702H189.748ZM188.796 69.644V70.764H186.528V69.644H188.796ZM186.934 64.954V76.462H185.646V64.954H186.934ZM181.138 66.158V73.298H179.78V66.158H181.138ZM180.592 72.766C182.122 72.766 183.536 72.64 184.834 72.388L184.974 73.578C184.208 73.718 183.471 73.816 182.762 73.872C182.052 73.928 181.329 73.956 180.592 73.956H179.78V72.766H180.592ZM195.474 71.03V74.656H194.102V71.03H195.474ZM200.024 71.03V74.656H198.652V71.03H200.024ZM202.684 74.432V75.552H191.456V74.432H202.684ZM197.056 65.402C197.933 65.402 198.717 65.5373 199.408 65.808C200.099 66.0693 200.635 66.4473 201.018 66.942C201.41 67.4367 201.606 68.006 201.606 68.65C201.606 69.294 201.41 69.8633 201.018 70.358C200.635 70.8433 200.099 71.2213 199.408 71.492C198.717 71.7533 197.933 71.884 197.056 71.884C196.179 71.884 195.395 71.7533 194.704 71.492C194.013 71.2213 193.472 70.8433 193.08 70.358C192.697 69.8633 192.506 69.294 192.506 68.65C192.506 68.006 192.697 67.4367 193.08 66.942C193.472 66.4473 194.013 66.0693 194.704 65.808C195.395 65.5373 196.179 65.402 197.056 65.402ZM197.056 66.494C196.431 66.494 195.875 66.5827 195.39 66.76C194.905 66.928 194.527 67.1753 194.256 67.502C193.985 67.8287 193.85 68.2113 193.85 68.65C193.85 69.0887 193.981 69.4713 194.242 69.798C194.513 70.1153 194.891 70.3627 195.376 70.54C195.871 70.7173 196.431 70.806 197.056 70.806C197.681 70.806 198.237 70.7173 198.722 70.54C199.207 70.3627 199.585 70.1153 199.856 69.798C200.127 69.4713 200.262 69.0887 200.262 68.65C200.262 68.2113 200.122 67.8287 199.842 67.502C199.571 67.1753 199.193 66.928 198.708 66.76C198.232 66.5827 197.681 66.494 197.056 66.494ZM206.17 73.368H204.91L204.672 65.584H206.38L206.17 73.368ZM205.554 74.656C205.788 74.656 205.979 74.7307 206.128 74.88C206.278 75.02 206.352 75.2113 206.352 75.454C206.352 75.706 206.278 75.9067 206.128 76.056C205.979 76.2053 205.788 76.28 205.554 76.28C205.312 76.28 205.111 76.2007 204.952 76.042C204.803 75.8927 204.728 75.6967 204.728 75.454C204.728 75.2113 204.803 75.02 204.952 74.88C205.111 74.7307 205.312 74.656 205.554 74.656Z" fill="white"/>
<path d="M56.3536 71.3536C56.5488 71.1583 56.5488 70.8417 56.3536 70.6464L53.1716 67.4645C52.9763 67.2692 52.6597 67.2692 52.4645 67.4645C52.2692 67.6597 52.2692 67.9763 52.4645 68.1716L55.2929 71L52.4645 73.8284C52.2692 74.0237 52.2692 74.3403 52.4645 74.5355C52.6597 74.7308 52.9763 74.7308 53.1716 74.5355L56.3536 71.3536ZM32.5176 45.0069C32.5272 45.2829 32.7586 45.4989 33.0346 45.4893C33.3106 45.4798 33.5266 45.2483 33.517 44.9723L32.5176 45.0069ZM33.647 46.9147C33.62 46.6399 33.3753 46.439 33.1005 46.466C32.8256 46.493 32.6248 46.7377 32.6518 47.0125L33.647 46.9147ZM32.9075 49.0044C32.9507 49.2771 33.2068 49.4633 33.4796 49.4201C33.7523 49.3769 33.9384 49.1208 33.8952 48.8481L32.9075 49.0044ZM34.2556 50.7659C34.1968 50.496 33.9305 50.3249 33.6607 50.3836C33.3908 50.4424 33.2197 50.7087 33.2784 50.9785L34.2556 50.7659ZM33.762 52.9293C33.8361 53.1953 34.1119 53.3509 34.3779 53.2768C34.6439 53.2026 34.7994 52.9269 34.7253 52.6609L33.762 52.9293ZM35.3036 54.5233C35.214 54.2621 34.9295 54.1231 34.6684 54.2128C34.4072 54.3025 34.2682 54.5869 34.3578 54.848L35.3036 54.5233ZM35.0686 56.7288C35.1742 56.9839 35.4666 57.1052 35.7218 56.9996C35.9769 56.894 36.0982 56.6015 35.9926 56.3464L35.0686 56.7288ZM36.7951 58.1209C36.6731 57.8732 36.3733 57.7714 36.1256 57.8934C35.8779 58.0155 35.7761 58.3152 35.8981 58.5629L36.7951 58.1209ZM36.8504 60.3381C36.9895 60.5767 37.2956 60.6573 37.5342 60.5182C37.7728 60.3792 37.8534 60.073 37.7143 59.8345L36.8504 60.3381ZM38.7541 61.4746C38.5975 61.2472 38.2861 61.1898 38.0587 61.3465C37.8313 61.5031 37.774 61.8145 37.9306 62.0419L38.7541 61.4746ZM39.1426 63.6583C39.3173 63.8723 39.6322 63.9041 39.8462 63.7295C40.0601 63.5549 40.092 63.2399 39.9173 63.026L39.1426 63.6583ZM41.2047 64.4711C41.0121 64.2732 40.6955 64.2689 40.4977 64.4616C40.2998 64.6542 40.2955 64.9707 40.4882 65.1686L41.2047 64.4711ZM41.9669 66.5537C42.177 66.7328 42.4926 66.7076 42.6717 66.4974C42.8508 66.2872 42.8256 65.9716 42.6154 65.7925L41.9669 66.5537ZM44.1433 66.9715C43.9166 66.8137 43.605 66.8696 43.4473 67.0963C43.2896 67.3229 43.3454 67.6345 43.5721 67.7923L44.1433 66.9715ZM45.2936 68.8663C45.5349 69.0005 45.8393 68.9136 45.9735 68.6722C46.1077 68.4308 46.0208 68.1264 45.7794 67.9922L45.2936 68.8663ZM47.5104 68.8426C47.2567 68.7335 46.9627 68.8508 46.8536 69.1045C46.7446 69.3582 46.8618 69.6522 47.1155 69.7613L47.5104 68.8426ZM49.0161 70.468C49.2794 70.5514 49.5604 70.4055 49.6437 70.1422C49.727 69.8789 49.5812 69.598 49.3179 69.5147L49.0161 70.468ZM51.1846 70.008C50.9146 69.9502 50.6488 70.1221 50.591 70.3921C50.5331 70.6622 50.7051 70.928 50.9751 70.9858L51.1846 70.008ZM52.9746 71.3202C53.2487 71.3537 53.498 71.1586 53.5314 70.8845C53.5649 70.6103 53.3698 70.361 53.0956 70.3276L52.9746 71.3202ZM55.0225 70.4811C54.7466 70.4704 54.5142 70.6854 54.5035 70.9613C54.4927 71.2373 54.7077 71.4697 54.9837 71.4804L55.0225 70.4811ZM32.5 44C32.5 44.3302 32.5058 44.6661 32.5176 45.0069L33.517 44.9723C33.5056 44.6428 33.5 44.3185 33.5 44H32.5ZM32.6518 47.0125C32.7159 47.6652 32.8009 48.3305 32.9075 49.0044L33.8952 48.8481C33.7916 48.1936 33.7092 47.5478 33.647 46.9147L32.6518 47.0125ZM33.2784 50.9785C33.4193 51.6256 33.5802 52.277 33.762 52.9293L34.7253 52.6609C34.5487 52.0274 34.3924 51.3946 34.2556 50.7659L33.2784 50.9785ZM34.3578 54.848C34.5742 55.4781 34.8109 56.1061 35.0686 56.7288L35.9926 56.3464C35.743 55.7433 35.5135 55.1346 35.3036 54.5233L34.3578 54.848ZM35.8981 58.5629C36.1941 59.1636 36.5113 59.7564 36.8504 60.3381L37.7143 59.8345C37.3874 59.2737 37.0812 58.7015 36.7951 58.1209L35.8981 58.5629ZM37.9306 62.0419C38.3119 62.5955 38.7157 63.1353 39.1426 63.6583L39.9173 63.026C39.5082 62.5248 39.1207 62.0067 38.7541 61.4746L37.9306 62.0419ZM40.4882 65.1686C40.9574 65.6507 41.4501 66.1133 41.9669 66.5537L42.6154 65.7925C42.1231 65.373 41.653 64.9316 41.2047 64.4711L40.4882 65.1686ZM43.5721 67.7923C44.1224 68.1753 44.696 68.5342 45.2936 68.8663L45.7794 67.9922C45.2118 67.6767 44.6666 67.3356 44.1433 66.9715L43.5721 67.7923ZM47.1155 69.7613C47.7272 70.0242 48.3606 70.2606 49.0161 70.468L49.3179 69.5147C48.694 69.3172 48.0917 69.0924 47.5104 68.8426L47.1155 69.7613ZM50.9751 70.9858C51.6223 71.1245 52.2887 71.2366 52.9746 71.3202L53.0956 70.3276C52.4391 70.2475 51.8022 70.1404 51.1846 70.008L50.9751 70.9858ZM54.9837 71.4804C55.3182 71.4934 55.657 71.5 56 71.5V70.5C55.6698 70.5 55.344 70.4937 55.0225 70.4811L54.9837 71.4804Z" fill="white"/>
</svg>
