<svg width="87" height="90" viewBox="0 0 87 90" fill="none" xmlns="http://www.w3.org/2000/svg">
<path d="M35.347 31.2379C41.1853 27.529 44.2717 31.3766 49.6685 32.9146C53.5382 34.0175 57.83 33.3632 61.2952 35.7767C65.7266 38.8628 65.9348 44.9916 61.1581 47.8751C56.8333 50.4859 51.1263 51.4564 46.5711 53.9568C41.6017 56.6845 33.1776 65.4437 27.8517 59.1386C22.8605 53.23 28.5268 48.0063 30.4911 42.65C31.8721 38.8843 31.5837 33.628 35.347 31.2379Z" fill="currentColor"/>
<path d="M20.3198 18.2685C28.0549 13.0328 36.2 27.6726 28.2698 31.9151C20.9501 35.8307 13.5669 22.8399 20.3198 18.2685Z" fill="currentColor"/>
<path d="M34.475 11.087C40.9206 6.77669 48.6402 16.7226 44.4334 22.852C41.3617 27.3275 35.4539 25.2669 33.0819 21.2656C31.2614 18.1946 31.2312 13.2568 34.475 11.087Z" fill="currentColor"/>
<path d="M50.0514 17.8734C57.1205 13.5659 63.9821 23.695 57.5408 28.6642C50.201 34.3247 42.2569 22.6227 50.0514 17.8734Z" fill="currentColor"/>
<path d="M17.0321 34.6335C24.0371 30.2258 31.1331 40.395 24.5515 45.434C17.3122 50.9778 9.34057 39.4737 17.0321 34.6335Z" fill="currentColor"/>
<path d="M42.7106 72.3804L43.3842 73.7072L41.961 74.4296L41.2875 73.1028L42.7106 72.3804ZM41.1531 70.4257L41.278 70.6718C41.5025 71.1141 41.5573 71.5842 41.4422 72.0822C41.3344 72.5766 41.053 73.0828 40.5982 73.6008C40.1434 74.1187 39.5185 74.6109 38.7235 75.0773L37.747 74.2407C38.403 73.8539 38.9195 73.475 39.2964 73.1042C39.6806 72.7298 39.9254 72.3902 40.0308 72.0855C40.1434 71.7771 40.1454 71.5159 40.0368 71.3019L39.9119 71.0558L41.1531 70.4257ZM41.8914 70.0509L42.0163 70.297C42.125 70.511 42.3352 70.6689 42.6471 70.7708C42.9625 70.8619 43.3811 70.8647 43.903 70.7792C44.4212 70.6866 45.0336 70.4879 45.7401 70.183L45.8391 71.4651C44.9935 71.8316 44.2256 72.0509 43.5355 72.1231C42.8489 72.1845 42.2743 72.1129 41.8115 71.9082C41.3451 71.6964 40.9996 71.3694 40.7751 70.9271L40.6502 70.681L41.8914 70.0509ZM44.2473 68.2762L44.7959 69.357L37.6482 72.9855L37.0995 71.9048L44.2473 68.2762ZM47.0505 73.8512L47.5882 74.9105L40.4619 78.5282L39.9241 77.4689L47.0505 73.8512ZM46.8153 71.3732L47.3802 72.4861L38.6596 76.9131L38.0947 75.8003L46.8153 71.3732ZM44.1502 76.9923C45.0918 76.5143 45.872 76.2573 46.4907 76.2213C47.1058 76.1782 47.5184 76.3635 47.7284 76.7773C47.9348 77.1839 47.8391 77.6227 47.4413 78.0939C47.0471 78.5721 46.3791 79.0502 45.4375 79.5282C44.4959 80.0062 43.7122 80.265 43.0863 80.3046C42.4712 80.3478 42.0604 80.166 41.854 79.7594C41.644 79.3457 41.7379 78.9032 42.1357 78.4321C42.5371 77.9502 43.2085 77.4703 44.1502 76.9923ZM44.6227 77.9232C44.1091 78.1839 43.7473 78.399 43.5372 78.5685C43.3343 78.7343 43.2654 78.8814 43.3306 79.0098C43.3886 79.1239 43.5497 79.1498 43.8141 79.0873C44.0749 79.0178 44.4585 78.8544 44.9649 78.5973C45.4714 78.3402 45.8297 78.1269 46.0397 77.9575C46.2462 77.7809 46.3204 77.6356 46.2625 77.5214C46.1973 77.393 46.0343 77.3636 45.7736 77.4332C45.52 77.4991 45.1363 77.6625 44.6227 77.9232ZM43.8567 74.6381L44.514 75.9328L43.0909 76.6553L42.4336 75.3606L43.8567 74.6381ZM48.4612 66.6619C48.9463 66.4156 49.4539 66.3374 49.9839 66.4272C50.5104 66.5098 51.0146 66.7608 51.4966 67.18C51.9821 67.5885 52.3986 68.1352 52.7463 68.82C53.1011 69.5191 53.302 70.1887 53.3488 70.8288C53.3992 71.4582 53.3042 72.0133 53.0638 72.4942C52.8199 72.968 52.4553 73.328 51.9703 73.5742C51.4852 73.8205 50.9794 73.9022 50.453 73.8196C49.9229 73.7298 49.4152 73.4807 48.9297 73.0722C48.4477 72.6529 48.0293 72.0938 47.6744 71.3947C47.3231 70.7028 47.1223 70.0421 47.0719 69.4127C47.0287 68.7797 47.1291 68.2263 47.3731 67.7526C47.6134 67.2717 47.9762 66.9081 48.4612 66.6619ZM49.1239 67.9673C48.8885 68.0868 48.7233 68.2739 48.6283 68.5285C48.5403 68.7794 48.5279 69.0908 48.591 69.4625C48.6612 69.8306 48.8122 70.2429 49.044 70.6994C49.2794 71.1631 49.5267 71.5355 49.786 71.8165C50.0489 72.0868 50.3093 72.2641 50.5674 72.3484C50.8291 72.422 51.0776 72.399 51.313 72.2795C51.5484 72.16 51.7136 71.9729 51.8087 71.7183C51.9001 71.4566 51.9107 71.1417 51.8405 70.7736C51.7738 70.3948 51.6227 69.9735 51.3873 69.5098C51.1556 69.0533 50.9083 68.6899 50.6455 68.4196C50.3898 68.1456 50.1311 67.9719 49.8695 67.8984C49.6078 67.8248 49.3593 67.8478 49.1239 67.9673ZM53.1216 63.4886L58.0103 73.1188L56.5765 73.8466L51.6878 64.2165L53.1216 63.4886ZM56.3218 66.3993L56.9193 67.5763L55.2287 68.4345L54.6312 67.2575L56.3218 66.3993ZM65.4428 57.2338L68.3 62.8621L66.8662 63.59L64.009 57.9616L65.4428 57.2338ZM65.4493 60.0566L66.0251 61.1908L63.7245 62.3587L63.1487 61.2245L65.4493 60.0566ZM62.6713 59.4886L64.9146 63.9078L60.3457 66.2272L58.1023 61.808L62.6713 59.4886ZM60.0798 62.2306L61.1825 64.4028L62.948 63.5065L61.8453 61.3344L60.0798 62.2306ZM65.14 64.7758C66.1672 64.2543 67.0619 64.0109 67.8242 64.0456C68.5829 64.0732 69.1107 64.3795 69.4076 64.9644C69.7118 65.5636 69.6512 66.1776 69.2257 66.8063C68.8002 67.435 68.0738 68.0101 67.0466 68.5315C66.0265 69.0494 65.1371 69.2945 64.3785 69.267C63.6269 69.2358 63.0991 68.9206 62.7949 68.3213C62.498 67.7364 62.5587 67.1314 62.977 66.5063C63.3989 65.8705 64.1199 65.2936 65.14 64.7758ZM65.694 65.8672C65.2803 66.0772 64.9488 66.2814 64.6996 66.4797C64.4575 66.6744 64.294 66.865 64.2093 67.0516C64.1246 67.2381 64.1275 67.4206 64.218 67.5989C64.3086 67.7772 64.4559 67.8908 64.6602 67.9397C64.8608 67.9814 65.1129 67.9655 65.4166 67.8921C65.7238 67.808 66.0842 67.6609 66.498 67.4508C66.9188 67.2372 67.2539 67.0312 67.5031 66.8329C67.7487 66.6275 67.9139 66.4315 67.9986 66.2449C68.0797 66.0512 68.075 65.8652 67.9845 65.6869C67.894 65.5085 67.7484 65.3985 67.5478 65.3568C67.3472 65.3151 67.0933 65.3363 66.7861 65.4205C66.4789 65.5046 66.1149 65.6535 65.694 65.8672ZM72.3192 61.8714L70.9817 62.5504L67.6502 56.5976L69.4372 55.6905L72.3192 61.8714ZM72.1936 63.2675C72.4147 63.1553 72.6292 63.1361 72.8372 63.2099C73.0487 63.2731 73.2124 63.4187 73.3282 63.647C73.4405 63.8682 73.4615 64.0863 73.3913 64.3014C73.3281 64.5128 73.186 64.6747 72.9649 64.787C72.7437 64.8992 72.5256 64.9202 72.3105 64.85C72.0954 64.7797 71.9318 64.6341 71.8195 64.4129C71.7036 64.1846 71.6826 63.9665 71.7565 63.7586C71.8267 63.5435 71.9724 63.3798 72.1936 63.2675Z" fill="currentColor"/>
</svg>
