<svg width="48" height="49" viewBox="0 0 48 49" fill="none" xmlns="http://www.w3.org/2000/svg">
<path fill-rule="evenodd" clip-rule="evenodd" d="M24 44.5C35.0457 44.5 44 35.5457 44 24.5C44 13.4543 35.0457 4.5 24 4.5C12.9543 4.5 4 13.4543 4 24.5C4 35.5457 12.9543 44.5 24 44.5ZM21.4563 17.8226C21.4563 16.5399 22.4962 15.5 23.7789 15.5C25.0616 15.5 26.1015 16.5399 26.1015 17.8226V22.3084H30.6774C31.9601 22.3084 33 23.3483 33 24.631C33 25.9137 31.9601 26.9536 30.6774 26.9536H26.1015V31.1774C26.1015 32.4601 25.0616 33.5 23.7789 33.5C22.4962 33.5 21.4563 32.4601 21.4563 31.1774V26.9536H17.3226C16.0399 26.9536 15 25.9137 15 24.631C15 23.3483 16.0399 22.3084 17.3226 22.3084H21.4563V17.8226Z" fill="currentColor"/>
</svg>
