<svg width="32" height="32" viewBox="0 0 32 32" fill="none" xmlns="http://www.w3.org/2000/svg">
<path fill-rule="evenodd" clip-rule="evenodd" d="M6.7655 8.00024C5.58662 8.00024 4.54763 8.77431 4.21033 9.9039L1.02533 20.5699C0.514632 22.2802 1.79563 23.9996 3.58051 23.9996H28.4206C30.2055 23.9996 31.4865 22.2802 30.9758 20.5699L27.7908 9.90391C27.4535 8.77431 26.4145 8.00024 25.2356 8.00024H6.7655ZM22.9655 14.9077C22.9655 15.4394 22.7543 15.9494 22.3782 16.3254C22.7543 16.7014 22.9655 17.2114 22.9655 17.7432C22.9655 18.2749 22.7543 18.7849 22.3782 19.1609C22.0022 19.5369 21.4923 19.7481 20.9605 19.7481C20.4287 19.7481 19.9188 19.5369 19.5428 19.1609C19.1696 18.7838 18.9603 18.2743 18.9622 17.7432H13.0359C13.037 18.006 12.9863 18.2665 12.8866 18.5098C12.787 18.753 12.6405 18.9743 12.4554 19.1609C12.0793 19.5369 11.5694 19.7481 11.0376 19.7481C10.5059 19.7481 9.99588 19.5369 9.61987 19.1609C9.24386 18.7849 9.03262 18.2749 9.03262 17.7432C9.03262 17.2114 9.24386 16.7014 9.61987 16.3254C9.24386 15.9494 9.03262 15.4394 9.03262 14.9077C9.03262 14.3759 9.24386 13.8659 9.61987 13.4899C9.99588 13.1139 10.5059 12.9027 11.0376 12.9027C11.5694 12.9027 12.0793 13.1139 12.4554 13.4899C12.6405 13.6765 12.787 13.8978 12.8866 14.141C12.9863 14.3843 13.037 14.6448 13.0359 14.9077H18.9622C18.9603 14.3765 19.1696 13.8671 19.5428 13.4899C19.9188 13.1139 20.4287 12.9027 20.9605 12.9027C21.4923 12.9027 22.0022 13.1139 22.3782 13.4899C22.7543 13.8659 22.9655 14.3759 22.9655 14.9077Z" fill="#7486FF"/>
</svg>
