<svg width="68" height="89" viewBox="0 0 68 89" fill="none" xmlns="http://www.w3.org/2000/svg">
<path d="M67.2968 28.546C67.2968 22.7616 63.4405 17.9647 58.2675 16.8361C57.1858 11.3808 52.6711 7.28935 47.2159 7.28935C46.0872 7.28935 45.0055 7.52449 43.9709 7.85369C42.372 3.29197 38.2805 0 33.3896 0C28.4987 0 24.5483 3.15088 22.9023 7.57152C22.1499 7.38341 21.3504 7.28935 20.5039 7.28935C15.0016 7.28935 10.4399 11.4278 9.40528 16.9301C4.4203 18.1999 0.705078 22.9027 0.705078 28.546C0.705078 31.6029 1.83375 34.3305 3.62082 36.4468C3.19757 37.7165 2.9154 39.0803 2.9154 40.4912C2.9154 47.0751 7.99444 52.4363 14.2021 52.4363C14.3432 52.4363 14.4373 52.4363 14.5313 52.4363L10.5339 63.3468C9.82853 67.8615 13.1205 72 17.4941 72H49.191C53.3765 72 56.6215 68.1907 56.1982 63.8171L51.9657 52.4363C51.9657 52.4363 52.2949 52.4833 52.483 52.4833C58.7377 52.4833 63.7697 47.1221 63.7697 40.5382C63.7697 39.5036 63.5816 38.516 63.3465 37.5284C65.6979 35.3181 67.2498 32.1672 67.2498 28.5931L67.2968 28.546Z" fill="white"/>
<path d="M27.2085 26.1494C28.1175 26.1494 28.8545 25.4125 28.8545 24.5034C28.8545 23.5944 28.1175 22.8574 27.2085 22.8574C26.2994 22.8574 25.5625 23.5944 25.5625 24.5034C25.5625 25.4125 26.2994 26.1494 27.2085 26.1494Z" fill="black"/>
<path d="M39.105 26.1491C40.014 26.1491 40.751 25.4122 40.751 24.5032C40.751 23.5941 40.014 22.8572 39.105 22.8572C38.1959 22.8572 37.459 23.5941 37.459 24.5032C37.459 25.4122 38.1959 26.1491 39.105 26.1491Z" fill="black"/>
<path d="M33.2051 38.5C34.0335 38.5 34.7051 38.1046 34.7051 37C34.7051 35.8954 33.7051 35 33.2051 35C32.7051 35 31.7051 35.8954 31.7051 37C31.7051 38.1046 32.3767 38.5 33.2051 38.5Z" fill="black"/>
<path d="M38.2551 30.8982C38.2551 32.4971 34.634 33.8139 33.2701 33.8139C32.1885 33.8139 28.2852 32.4971 28.2852 30.8982C28.2852 29.2992 30.4955 27.9824 33.2701 27.9824C36.0448 27.9824 38.2551 29.2992 38.2551 30.8982Z" fill="black"/>
<path d="M23.56 28.4988C20.0329 27.6994 17.2582 28.6399 15.3301 28.3577C17.4934 26.5707 21.7259 26.4766 23.56 28.4988Z" fill="#EAEBED"/>
<path d="M52.228 28.3282C48.7009 27.5287 45.9262 28.4693 43.998 28.1871C46.1613 26.4 50.3939 26.306 52.228 28.3282Z" fill="#EAEBED"/>
<path d="M14.4378 52.3917C23.7494 52.2976 33.4372 52.3917 42.6547 52.1565C65.9336 50.8398 40.5854 57.7059 33.3431 57.0004C26.8062 56.9064 20.1752 55.9188 14.3438 52.862L14.4848 52.3917H14.4378Z" fill="#E6E9FF"/>
<path d="M22.2091 66.6891C22.5464 65.5595 23.5854 64.7854 24.7643 64.7854H43.2344C44.4133 64.7854 45.4523 65.5595 45.7896 66.6891L48.9746 77.3551C49.4853 79.0653 48.2043 80.7847 46.4194 80.7847H21.5793C19.7944 80.7847 18.5134 79.0653 19.0241 77.3551L22.2091 66.6891Z" fill="#7486FF"/>
<path d="M40.3792 73.0001C40.7552 72.6241 40.9664 72.1141 40.9664 71.5823C40.9664 71.0506 40.7552 70.5406 40.3792 70.1646C40.0032 69.7886 39.4932 69.5773 38.9614 69.5773C38.4297 69.5773 37.9197 69.7886 37.5437 70.1646C37.1705 70.5417 36.9612 71.0512 36.9632 71.5823H31.0368C31.0379 71.3195 30.9872 71.059 30.8876 70.8157C30.788 70.5725 30.6414 70.3512 30.4563 70.1646C30.0803 69.7886 29.5703 69.5773 29.0386 69.5773C28.5068 69.5773 27.9968 69.7886 27.6208 70.1646C27.2448 70.5406 27.0336 71.0506 27.0336 71.5823C27.0336 72.1141 27.2448 72.6241 27.6208 73.0001C27.2448 73.3761 27.0336 73.8861 27.0336 74.4178C27.0336 74.9496 27.2448 75.4596 27.6208 75.8356C27.9968 76.2116 28.5068 76.4228 29.0386 76.4228C29.5703 76.4228 30.0803 76.2116 30.4563 75.8356C30.6414 75.649 30.788 75.4277 30.8876 75.1844C30.9872 74.9412 31.0379 74.6807 31.0368 74.4178H36.9632C36.9612 74.949 37.1705 75.4584 37.5437 75.8356C37.9197 76.2116 38.4297 76.4228 38.9614 76.4228C39.4932 76.4228 40.0032 76.2116 40.3792 75.8356C40.7552 75.4596 40.9664 74.9496 40.9664 74.4178C40.9664 73.8861 40.7552 73.3761 40.3792 73.0001Z" fill="white"/>
</svg>
