<svg width="19" height="18" viewBox="0 0 19 18" fill="none" xmlns="http://www.w3.org/2000/svg">
<path d="M6.54267 9.37981C6.54267 9.62527 6.74165 9.82425 6.98711 9.82425C7.23257 9.82425 7.43156 9.62527 7.43156 9.37981V7.36813C7.43156 6.81279 7.63422 6.33738 8.03956 5.94188C8.33707 5.65115 8.67894 5.46728 9.06516 5.39026C9.30212 5.34301 9.5 5.15275 9.5 4.91113C9.5 4.6695 9.30321 4.46999 9.06369 4.5018C8.4313 4.58579 7.87926 4.85756 7.40756 5.31713C6.83096 5.87888 6.54267 6.56254 6.54267 7.36813V9.37981ZM2.5 16C1.94772 16 1.5 15.5523 1.5 15V12.8438C1.5 12.2915 1.94772 11.8438 2.5 11.8438H4.01289V7.36813C4.01289 5.87246 4.54533 4.60371 5.61022 3.56188C6.67511 2.52004 7.9717 1.99942 9.5 2C11.0283 2.00058 12.3249 2.5215 13.3898 3.56275C14.4547 4.604 14.9871 5.87246 14.9871 7.36813V11.8438H16.5C17.0523 11.8438 17.5 12.2915 17.5 12.8438V15C17.5 15.5523 17.0523 16 16.5 16H2.5Z" fill="#FF3E5B"/>
</svg>
