<svg width="148" height="160" viewBox="0 0 148 160" fill="none" xmlns="http://www.w3.org/2000/svg">
<path d="M147.546 63.249C147.546 50.4325 139.002 39.8041 127.54 37.3034C125.143 25.2162 115.14 16.1509 103.053 16.1509C100.552 16.1509 98.1558 16.6719 95.8634 17.4013C92.3206 7.29395 83.2553 0 72.4185 0C61.5818 0 52.829 6.98135 49.1821 16.7761C47.5149 16.3593 45.7435 16.1509 43.8679 16.1509C31.6766 16.1509 21.5693 25.3204 19.2769 37.5118C8.23175 40.3251 0 50.7451 0 63.249C0 70.0219 2.50078 76.0655 6.46036 80.7545C5.52256 83.5679 4.89737 86.5896 4.89737 89.7156C4.89737 104.304 16.1509 116.182 29.9052 116.182C30.2178 116.182 30.4262 116.182 30.6346 116.182L21.7777 140.356C20.2147 150.36 27.5086 159.529 37.1992 159.529H107.429C116.703 159.529 123.893 151.089 122.955 141.398L113.577 116.182C113.577 116.182 114.307 116.286 114.723 116.286C128.582 116.286 139.731 104.408 139.731 89.8198C139.731 87.5274 139.314 85.3392 138.793 83.1511C144.003 78.2537 147.442 71.2723 147.442 63.3532L147.546 63.249Z" fill="#F7F8FA"/>
<path d="M58.7241 57.9385C60.7383 57.9385 62.3711 56.3057 62.3711 54.2915C62.3711 52.2773 60.7383 50.6445 58.7241 50.6445C56.71 50.6445 55.0771 52.2773 55.0771 54.2915C55.0771 56.3057 56.71 57.9385 58.7241 57.9385Z" fill="black"/>
<path d="M85.0845 57.9385C87.0986 57.9385 88.7315 56.3057 88.7315 54.2915C88.7315 52.2773 87.0986 50.6445 85.0845 50.6445C83.0703 50.6445 81.4375 52.2773 81.4375 54.2915C81.4375 56.3057 83.0703 57.9385 85.0845 57.9385Z" fill="black"/>
<path d="M83.1972 68.4604C83.1972 72.0031 75.1739 74.9207 72.1521 74.9207C69.7555 74.9207 61.1069 72.0031 61.1069 68.4604C61.1069 64.9176 66.0043 62 72.1521 62C78.2998 62 83.1972 64.9176 83.1972 68.4604Z" fill="black"/>
<path d="M50.6392 63.1437C42.8242 61.3723 36.6765 63.4563 32.4043 62.8311C37.1975 58.8716 46.5754 58.6632 50.6392 63.1437Z" fill="#EAEBED"/>
<path d="M114.157 62.7668C106.342 60.9954 100.194 63.0794 95.9219 62.4542C100.715 58.4946 110.093 58.2862 114.157 62.7668Z" fill="#EAEBED"/>
<path d="M30.4262 116.083C51.0576 115.875 72.5227 116.083 92.9458 115.562C144.524 112.645 88.361 127.858 72.3143 126.295C57.8306 126.086 43.1385 123.898 30.2178 117.125L30.5304 116.083H30.4262Z" fill="#E6E9FF"/>
<path d="M77.4761 82.2871C77.4761 82.2871 78.7684 84.4289 79.9866 85.536C82.0863 87.4442 84.1592 88.0226 86.522 87.875C88.4418 87.7273 89.9681 86.0656 89.9681 83.9981C89.9681 82.3737 88.6256 82.3609 87.2965 81.8441C86.2628 81.4749 85.3029 81.1057 84.4168 80.515C84.2691 80.4412 82.7924 79.2598 82.7185 79.2598L77.4761 82.2871Z" fill="#FFD8DE"/>
<path d="M60.2461 79.2598C60.2461 79.2598 71.6171 87.0127 83.7265 79.2598" stroke="black" stroke-width="1.84594" stroke-linecap="round" stroke-linejoin="round"/>
</svg>
