<svg width="24" height="24" viewBox="0 0 24 24" fill="none" xmlns="http://www.w3.org/2000/svg">
<path d="M17.0911 14.1742C18.45 12.8282 19.2004 11.0352 19.2004 9.13177C19.2004 7.22578 18.4525 5.4353 17.0911 4.08931C15.7322 2.74331 13.9221 2 12.0004 2C10.0787 2 8.2685 2.7408 6.90961 4.08931C5.55072 5.43781 4.80029 7.22578 4.80029 9.13177C4.80029 10.7339 5.33016 12.2557 6.30622 13.4987C6.4913 13.7348 6.69158 13.9583 6.90708 14.1742C7.12257 14.3877 7.35074 14.5861 7.58652 14.7694C8.59047 15.5428 9.77443 16.035 11.037 16.2008V17.6252H8.14681C8.03526 17.6252 7.94399 17.7156 7.94399 17.8261V19.3328C7.94399 19.4433 8.03526 19.5337 8.14681 19.5337H11.037V21.7993C11.037 21.9098 11.1282 22.0002 11.2398 22.0002H12.7609C12.8725 22.0002 12.9638 21.9098 12.9638 21.7993V19.5337H15.8539C15.9655 19.5337 16.0567 19.4433 16.0567 19.3328V17.8261C16.0567 17.7156 15.9655 17.6252 15.8539 17.6252H12.9638V16.2008C14.5229 15.9948 15.9604 15.2942 17.0911 14.1742ZM12.0004 14.355C10.5908 14.355 9.26992 13.8126 8.27103 12.8257C7.27468 11.8388 6.72707 10.528 6.72707 9.13177C6.72707 7.73555 7.27468 6.42722 8.27103 5.43781C9.26738 4.44841 10.5908 3.9085 12.0004 3.9085C13.41 3.9085 14.7308 4.45092 15.7297 5.43781C16.726 6.42471 17.2737 7.73555 17.2737 9.13177C17.2737 10.528 16.726 11.8363 15.7297 12.8257C14.7308 13.8126 13.41 14.355 12.0004 14.355Z" fill="#7486FF"/>
</svg>
