<svg width="24" height="24" viewBox="0 0 24 24" fill="none" xmlns="http://www.w3.org/2000/svg">
<path d="M14.4158 8.24559L17.7647 4.89474H13.421V3H21V10.579H19.1053V6.23432L15.7544 9.58517C16.8475 11.0181 17.3553 12.8129 17.1749 14.6061C16.9944 16.3993 16.1393 18.0569 14.7826 19.2433C13.4259 20.4297 11.6691 21.0563 9.86781 20.996C8.06655 20.9358 6.35549 20.1933 5.08109 18.9189C3.8067 17.6445 3.06421 15.9335 3.00397 14.1322C2.94374 12.3309 3.57026 10.5741 4.75667 9.2174C5.94308 7.86072 7.60072 7.00558 9.39393 6.82514C11.1871 6.64471 12.9819 7.15246 14.4148 8.24559H14.4158ZM10.1052 19.1053C11.4872 19.1053 12.8125 18.5563 13.7896 17.5792C14.7668 16.602 15.3158 15.2767 15.3158 13.8948C15.3158 12.5128 14.7668 11.1875 13.7896 10.2104C12.8125 9.23319 11.4872 8.68422 10.1052 8.68422C8.72332 8.68422 7.398 9.23319 6.42084 10.2104C5.44367 11.1875 4.89471 12.5128 4.89471 13.8948C4.89471 15.2767 5.44367 16.602 6.42084 17.5792C7.398 18.5563 8.72332 19.1053 10.1052 19.1053Z" fill="currentColor"/>
</svg>
