<svg width="146" height="150" viewBox="0 0 146 150" fill="none" xmlns="http://www.w3.org/2000/svg">
<path d="M33.1367 109.524C31.6625 113.332 23.1862 113.578 14.2185 110.261C5.25074 106.944 0.336914 97.2397 0.336914 97.2397C0.336914 97.2397 10.0417 93.5543 19.2551 96.5026C29.5742 99.8194 34.488 105.716 33.1367 109.524Z" fill="#E6E9FF"/>
<path d="M30.4316 108.664C25.5178 102.276 17.1643 103.136 10.1621 101.416C10.1621 98.5904 19.7441 99.3275 21.8324 100.802C25.5178 102.399 28.9575 104.733 31.0459 108.172L30.4316 108.541V108.664Z" fill="#B4BEFF"/>
<path d="M112.864 109.524C114.338 113.332 122.815 113.578 131.782 110.261C140.75 106.944 145.664 97.2397 145.664 97.2397C145.664 97.2397 135.959 93.5543 126.746 96.5026C116.427 99.8194 111.513 105.716 112.864 109.524Z" fill="#E6E9FF"/>
<path d="M114.826 108.171C119.126 101.66 128.339 97.2375 135.833 100.554V101.291C128.831 103.011 120.477 102.151 115.563 108.539L114.949 108.171H114.826Z" fill="#B4BEFF"/>
<path d="M117.166 0.800781H28.9626C21.3462 0.800781 15.0811 7.06591 15.0811 14.6823V27.3354C15.0811 30.038 17.2923 32.2493 19.9949 32.2493H26.3828C29.0855 32.2493 33.5079 28.8096 33.7536 26.107L20.4863 139.248C19.872 144.53 24.0488 149.198 29.3311 149.198H116.674C121.957 149.198 126.133 144.53 125.519 139.248L112.252 26.107C112.498 28.8096 116.92 32.2493 119.623 32.2493H126.011C128.713 32.2493 130.924 30.038 130.924 27.3354V14.6823C130.924 7.06591 124.659 0.800781 117.043 0.800781L117.166 0.800781Z" fill="#F7F8FA"/>
<path d="M111.759 22.912C109.056 19.8409 104.634 11.9787 106.476 8.53906C109.67 12.4701 112.496 17.9982 111.759 22.912Z" fill="#F7F8FA"/>
<path d="M34.2402 23.0374C34.2402 18.9835 36.3286 10.1386 40.014 8.91016C39.7683 13.9468 38.1713 19.9663 34.2402 23.0374Z" fill="#F7F8FA"/>
<path d="M59.3045 36.5474C61.6791 36.5474 63.6041 34.6224 63.6041 32.2478C63.6041 29.8732 61.6791 27.9482 59.3045 27.9482C56.9299 27.9482 55.0049 29.8732 55.0049 32.2478C55.0049 34.6224 56.9299 36.5474 59.3045 36.5474Z" fill="black"/>
<path d="M86.825 36.5474C89.1996 36.5474 91.1246 34.6224 91.1246 32.2478C91.1246 29.8732 89.1996 27.9482 86.825 27.9482C84.4504 27.9482 82.5254 29.8732 82.5254 32.2478C82.5254 34.6224 84.4504 36.5474 86.825 36.5474Z" fill="black"/>
<path d="M81.6632 47.6089C81.6632 50.4344 75.3981 52.6456 73.064 52.6456C71.2214 52.6456 64.4648 50.4344 64.4648 47.6089C64.4648 44.7835 68.2731 42.5723 73.064 42.5723C77.855 42.5723 81.6632 44.7835 81.6632 47.6089Z" fill="black"/>
<path d="M23.8033 111.731C48.1267 111.486 73.4329 111.731 97.5107 111.117C158.319 107.678 92.1055 125.613 73.1872 123.77C56.1117 123.525 38.7905 120.945 23.5576 112.96L23.9262 111.731H23.8033Z" fill="#E6E9FF"/>
<path d="M61.8799 40.9736C67.8993 36.1826 77.3584 36.0598 83.5007 40.8508L83.255 41.465C76.0071 39.7452 69.0049 40.7279 61.8799 41.0965V40.9736Z" fill="#F7F8FA"/>
<path d="M99 50.1432C99 53.8201 96.0899 56.8008 92.5 56.8008C88.9101 56.8008 86 53.8201 86 50.1432C86 46.4664 91.537 38.8008 92.5 38.8008C93.463 38.8008 99 46.4664 99 50.1432Z" fill="#B4BEFF"/>
</svg>
