<svg width="40" height="40" viewBox="0 0 40 40" fill="none" xmlns="http://www.w3.org/2000/svg">
<path fill-rule="evenodd" clip-rule="evenodd" d="M20 40C31.0457 40 40 31.0457 40 20C40 8.9543 31.0457 0 20 0C8.9543 0 0 8.9543 0 20C0 31.0457 8.9543 40 20 40ZM23.3333 12.8889H26.4444V14.6667H14V12.8889H17.1111L18 12H22.4444L23.3333 12.8889ZM15.4096 27.4793C15.0762 27.1459 14.8889 26.6937 14.8889 26.2222V15.5556H25.5556V26.2222C25.5556 26.6937 25.3683 27.1459 25.0349 27.4793C24.7015 27.8127 24.2493 28 23.7778 28H16.6667C16.1952 28 15.743 27.8127 15.4096 27.4793Z" fill="#7486FF"/>
</svg>
