<svg width="56" height="56" viewBox="0 0 56 56" fill="none" xmlns="http://www.w3.org/2000/svg">
<rect x="0.5" y="0.5" width="55" height="55" rx="27.5" fill="white"/>
<rect x="0.5" y="0.5" width="55" height="55" rx="27.5" stroke="#EAEBED"/>
<path d="M24.0799 29.6799L26.8799 33.0399L30.7999 27.9999L35.8399 34.7199H20.1599M38.0799 35.8399V20.1599C38.0799 19.5658 37.8439 18.9961 37.4238 18.576C37.0038 18.1559 36.434 17.9199 35.8399 17.9199H20.1599C19.5658 17.9199 18.9961 18.1559 18.576 18.576C18.1559 18.9961 17.9199 19.5658 17.9199 20.1599V35.8399C17.9199 36.434 18.1559 37.0038 18.576 37.4238C18.9961 37.8439 19.5658 38.0799 20.1599 38.0799H35.8399C36.434 38.0799 37.0038 37.8439 37.4238 37.4238C37.8439 37.0038 38.0799 36.434 38.0799 35.8399Z" fill="#9FA4A8"/>
</svg>
