<svg width="32" height="32" viewBox="0 0 32 32" fill="none" xmlns="http://www.w3.org/2000/svg">
<path d="M15.4903 14.1893C18.3819 13.894 18.8063 16.04 20.5351 17.7354C21.7746 18.9511 23.5063 19.5553 24.3452 21.209C25.418 23.3238 24.3308 25.7947 21.9937 25.9765C19.8777 26.1411 17.5559 25.3775 15.3746 25.452C12.9949 25.5333 8.17479 27.3099 7.37894 23.7394C6.63304 20.3934 9.7482 19.4631 11.5022 17.7354C12.7353 16.5207 13.6266 14.3795 15.4903 14.1893Z" fill="currentColor"/>
<path d="M12.3289 6.02592C16.2211 5.50713 16.4882 12.9482 12.7117 13.0342C9.22605 13.1133 8.93076 6.47907 12.3289 6.02592Z" fill="currentColor"/>
<path d="M18.9941 6.02755C22.2275 5.61606 23.2277 11.1112 20.4869 12.6941C18.4857 13.8499 16.6649 11.8446 16.5373 9.78143C16.4394 8.198 17.3668 6.23485 18.9941 6.02755Z" fill="currentColor"/>
<path d="M23.538 11.851C27.0044 11.5661 27.6484 16.9612 24.2913 17.6347C20.4664 18.4014 19.716 12.1651 23.538 11.851Z" fill="currentColor"/>
<path d="M7.9858 11.8505C11.4472 11.5129 12.1713 16.9711 8.74852 17.6441C4.98341 18.3847 4.18508 12.2213 7.9858 11.8505Z" fill="currentColor"/>
</svg>
