<svg width="75" height="48" viewBox="0 0 75 48" fill="none" xmlns="http://www.w3.org/2000/svg">
<path fill-rule="evenodd" clip-rule="evenodd" d="M31.5 8.5C29.2909 8.5 27.5 10.2909 27.5 12.5V24.5H39.5C43.9183 24.5 47.5 20.9183 47.5 16.5V15.5C47.5 11.634 44.366 8.5 40.5 8.5H31.5ZM34.7727 12.6193C34.7727 13.0464 35.1189 13.3926 35.546 13.3926C35.973 13.3926 36.3192 13.0464 36.3192 12.6193C36.3192 12.1923 35.973 11.8461 35.546 11.8461C35.1189 11.8461 34.7727 12.1923 34.7727 12.6193ZM39.5669 12.7738C39.1398 12.7738 38.7936 12.4276 38.7936 12.0005C38.7936 11.5735 39.1398 11.2273 39.5669 11.2273C39.994 11.2273 40.3402 11.5735 40.3402 12.0005C40.3402 12.4276 39.994 12.7738 39.5669 12.7738ZM41.6047 14.118C40.8414 14.1905 40.2814 14.8681 40.3539 15.6314C40.4264 16.3948 41.104 16.9548 41.8674 16.8823L42.7231 16.801C43.4865 16.7284 44.0465 16.0508 43.974 15.2875C43.9014 14.5242 43.2238 13.9642 42.4605 14.0367L41.6047 14.118Z" fill="currentColor"/>
<path d="M31.5698 34.76V35.13C31.5698 35.7433 31.4931 36.3367 31.3398 36.91C31.1931 37.4767 30.9698 37.9867 30.6698 38.44C30.3698 38.8933 29.9998 39.2467 29.5598 39.5L28.9998 38.76C29.3931 38.5333 29.7264 38.2267 29.9998 37.84C30.2731 37.4467 30.4764 37.02 30.6098 36.56C30.7498 36.0933 30.8198 35.6167 30.8198 35.13V34.76H31.5698ZM31.7598 34.76V35.13C31.7598 35.6033 31.8264 36.0633 31.9598 36.51C32.0998 36.95 32.3064 37.35 32.5798 37.71C32.8598 38.07 33.1964 38.3567 33.5898 38.57L33.0298 39.3C32.5964 39.0667 32.2264 38.7367 31.9198 38.31C31.6198 37.8767 31.3931 37.3867 31.2398 36.84C31.0864 36.2933 31.0098 35.7233 31.0098 35.13V34.76H31.7598ZM33.3198 34.02V34.82H29.2498V34.02H33.3198ZM31.7598 32.73V34.63H30.8198V32.73H31.7598ZM36.6998 32.43V41.28H35.7598V32.43H36.6998ZM36.0998 35.94V36.74H34.4898V35.94H36.0998ZM34.7698 32.61V40.85H33.8398V32.61H34.7698ZM39.09 36.55C40.0967 36.55 40.8967 36.5333 41.49 36.5C42.0833 36.4667 42.6733 36.4033 43.26 36.31L43.35 37.09C42.7567 37.19 42.1533 37.2567 41.54 37.29C40.9333 37.3167 40.1167 37.33 39.09 37.33H38.36V36.55H39.09ZM42.58 33.07V33.85H39.33V36.9H38.36V33.07H42.58ZM42.33 34.79V35.56H39.02V34.79H42.33ZM45.15 32.44V37.86H44.16V32.44H45.15ZM42.2 37.99C43.1267 37.99 43.8567 38.1367 44.39 38.43C44.9233 38.7167 45.19 39.1167 45.19 39.63C45.19 40.1567 44.9233 40.56 44.39 40.84C43.8633 41.1267 43.1333 41.27 42.2 41.27C41.26 41.27 40.5233 41.1267 39.99 40.84C39.4633 40.56 39.2 40.1567 39.2 39.63C39.2 39.1167 39.4667 38.7167 40 38.43C40.5333 38.1367 41.2667 37.99 42.2 37.99ZM42.2 38.75C41.7733 38.75 41.41 38.7867 41.11 38.86C40.81 38.9267 40.58 39.0267 40.42 39.16C40.2667 39.2867 40.19 39.44 40.19 39.62C40.19 39.9067 40.3633 40.1267 40.71 40.28C41.0633 40.4333 41.56 40.51 42.2 40.51C42.84 40.51 43.3333 40.4333 43.68 40.28C44.0333 40.1267 44.21 39.9067 44.21 39.62C44.21 39.44 44.13 39.2867 43.97 39.16C43.81 39.0267 43.58 38.9267 43.28 38.86C42.98 38.7867 42.62 38.75 42.2 38.75Z" fill="currentColor"/>
</svg>
