<svg width="75" height="48" viewBox="0 0 75 48" fill="none" xmlns="http://www.w3.org/2000/svg">
<path d="M37.0153 14.8704C39.7694 14.6046 40.1736 16.536 41.8201 18.0618C43.0007 19.156 44.6501 19.6997 45.4491 21.1881C46.4709 23.0913 45.4354 25.3152 43.2094 25.4788C41.194 25.6269 38.9826 24.9397 36.905 25.0067C34.6385 25.0799 30.0476 26.6789 29.2896 23.4654C28.5791 20.454 31.5462 19.6168 33.2167 18.0618C34.3912 16.9687 35.2401 15.0415 37.0153 14.8704Z" fill="currentColor"/>
<path d="M34.004 7.52332C37.7111 7.05642 37.9655 13.7533 34.3686 13.8307C31.0487 13.9019 30.7675 7.93116 34.004 7.52332Z" fill="currentColor"/>
<path d="M40.3531 7.52462C43.4327 7.15429 44.3853 12.0999 41.7749 13.5245C39.8688 14.5647 38.1346 12.7599 38.0131 10.9031C37.9198 9.47801 38.8031 7.7112 40.3531 7.52462Z" fill="currentColor"/>
<path d="M44.6795 12.7657C47.981 12.5092 48.5944 17.3648 45.397 17.9709C41.7539 18.661 41.0392 13.0483 44.6795 12.7657Z" fill="currentColor"/>
<path d="M29.8676 12.7655C33.1644 12.4617 33.8541 17.374 30.5941 17.9796C27.008 18.6462 26.2476 13.0992 29.8676 12.7655Z" fill="currentColor"/>
<path d="M40.5099 38.62V41.17H34.4499V38.62H40.5099ZM35.4099 39.36V40.43H39.5499V39.36H35.4099ZM41.0399 33.12V33.87H33.8899V33.12H41.0399ZM37.4899 34.17C38.4232 34.17 39.1365 34.28 39.6299 34.5C40.1299 34.7133 40.3799 35.02 40.3799 35.42C40.3799 35.8333 40.1299 36.15 39.6299 36.37C39.1365 36.5833 38.4232 36.69 37.4899 36.69C36.5565 36.69 35.8399 36.5833 35.3399 36.37C34.8399 36.15 34.5899 35.8333 34.5899 35.42C34.5899 35.0133 34.8399 34.7033 35.3399 34.49C35.8399 34.2767 36.5565 34.17 37.4899 34.17ZM37.4899 34.84C36.8765 34.84 36.4132 34.89 36.0999 34.99C35.7865 35.09 35.6299 35.2367 35.6299 35.43C35.6299 35.6167 35.7865 35.76 36.0999 35.86C36.4132 35.96 36.8765 36.01 37.4899 36.01C38.0965 36.01 38.5565 35.96 38.8699 35.86C39.1832 35.76 39.3399 35.6167 39.3399 35.43C39.3399 35.2367 39.1832 35.09 38.8699 34.99C38.5565 34.89 38.0965 34.84 37.4899 34.84ZM37.9799 32.32V33.63H36.9999V32.32H37.9799ZM41.4799 37.26V38.03H33.4899V37.26H41.4799ZM37.9799 36.45V37.67H36.9999V36.45H37.9799Z" fill="currentColor"/>
</svg>
