<svg width="75" height="48" viewBox="0 0 75 48" fill="none" xmlns="http://www.w3.org/2000/svg">
<path d="M34.342 13.8158C35.7954 13.8158 36.9736 12.402 36.9736 10.6579C36.9736 8.91384 35.7954 7.5 34.342 7.5C32.8886 7.5 31.7104 8.91384 31.7104 10.6579C31.7104 12.402 32.8886 13.8158 34.342 13.8158Z" fill="currentColor"/>
<path d="M40.6579 13.8158C42.1113 13.8158 43.2895 12.402 43.2895 10.6579C43.2895 8.91384 42.1113 7.5 40.6579 7.5C39.2046 7.5 38.0264 8.91384 38.0264 10.6579C38.0264 12.402 39.2046 13.8158 40.6579 13.8158Z" fill="currentColor"/>
<path d="M30.1316 18.0268C31.585 18.0268 32.7632 16.8486 32.7632 15.3953C32.7632 13.9419 31.585 12.7637 30.1316 12.7637C28.6782 12.7637 27.5 13.9419 27.5 15.3953C27.5 16.8486 28.6782 18.0268 30.1316 18.0268Z" fill="currentColor"/>
<path d="M44.8684 18.0268C46.3218 18.0268 47.5 16.8486 47.5 15.3953C47.5 13.9419 46.3218 12.7637 44.8684 12.7637C43.415 12.7637 42.2368 13.9419 42.2368 15.3953C42.2368 16.8486 43.415 18.0268 44.8684 18.0268Z" fill="currentColor"/>
<path d="M38.4107 15.4655L38.4107 15.4656L38.4194 15.4686C38.9699 15.6573 39.4694 16.0966 39.8942 16.5933C41.0199 18.0736 41.6568 18.7463 43.0749 19.6229C44.5967 20.5636 45.5014 21.6786 45.2751 23.1677C45.1317 24.1115 44.3564 24.9862 42.9635 24.9994C41.9962 25.0085 41.2775 24.9026 40.4893 24.7864L40.4393 24.7791C39.7396 24.676 38.99 24.5684 38.002 24.5405V15.3812C38.0623 15.3858 38.1203 15.3921 38.1763 15.4009C38.2527 15.4151 38.3308 15.4364 38.4107 15.4655Z" fill="currentColor" stroke="currentColor"/>
<path d="M36.6337 15.4655L36.6337 15.4656L36.625 15.4686C36.0746 15.6573 35.5751 16.0966 35.1502 16.5933C34.0245 18.0736 33.3876 18.7463 31.9695 19.6229C30.4478 20.5636 29.543 21.6786 29.7693 23.1677C29.9127 24.1115 30.688 24.9862 32.0809 24.9994C33.0482 25.0085 33.767 24.9026 34.5551 24.7864L34.6052 24.7791C35.3048 24.676 36.0544 24.5684 37.0425 24.5405V15.3812C36.9821 15.3858 36.9241 15.3921 36.8681 15.4009C36.7918 15.4151 36.7137 15.4364 36.6337 15.4655Z" fill="currentColor" stroke="currentColor"/>
<path d="M40.5099 38.62V41.17H34.4499V38.62H40.5099ZM35.4099 39.36V40.43H39.5499V39.36H35.4099ZM41.0399 33.12V33.87H33.8899V33.12H41.0399ZM37.4899 34.17C38.4232 34.17 39.1365 34.28 39.6299 34.5C40.1299 34.7133 40.3799 35.02 40.3799 35.42C40.3799 35.8333 40.1299 36.15 39.6299 36.37C39.1365 36.5833 38.4232 36.69 37.4899 36.69C36.5565 36.69 35.8399 36.5833 35.3399 36.37C34.8399 36.15 34.5899 35.8333 34.5899 35.42C34.5899 35.0133 34.8399 34.7033 35.3399 34.49C35.8399 34.2767 36.5565 34.17 37.4899 34.17ZM37.4899 34.84C36.8765 34.84 36.4132 34.89 36.0999 34.99C35.7865 35.09 35.6299 35.2367 35.6299 35.43C35.6299 35.6167 35.7865 35.76 36.0999 35.86C36.4132 35.96 36.8765 36.01 37.4899 36.01C38.0965 36.01 38.5565 35.96 38.8699 35.86C39.1832 35.76 39.3399 35.6167 39.3399 35.43C39.3399 35.2367 39.1832 35.09 38.8699 34.99C38.5565 34.89 38.0965 34.84 37.4899 34.84ZM37.9799 32.32V33.63H36.9999V32.32H37.9799ZM41.4799 37.26V38.03H33.4899V37.26H41.4799ZM37.9799 36.45V37.67H36.9999V36.45H37.9799Z" fill="currentColor"/>
</svg>
