<svg width="75" height="48" viewBox="0 0 75 48" fill="none" xmlns="http://www.w3.org/2000/svg">
<path d="M27.5 13.6374C27.5 18.5004 31.52 21.0914 34.462 23.4114C35.5 24.2294 36.5 25.0004 37.5 25.0004C38.5 25.0004 39.5 24.2304 40.538 23.4104C43.481 21.0924 47.5 18.5004 47.5 13.6384C47.5 8.77638 42 5.32538 37.5 10.0014C33 5.32538 27.5 8.77438 27.5 13.6374Z" fill="currentColor"/>
<path d="M36.6598 32.43V41.28H35.7298V32.43H36.6598ZM36.0598 35.89V36.69H34.4498V35.89H36.0598ZM34.6998 32.61V40.85H33.7698V32.61H34.6998ZM32.8298 33.41V38.97H29.4198V33.41H32.8298ZM30.3298 34.18V38.2H31.9098V34.18H30.3298ZM40.96 33.9V34.26C40.96 34.78 40.86 35.2667 40.66 35.72C40.46 36.1733 40.17 36.5667 39.79 36.9C39.4167 37.2333 38.97 37.48 38.45 37.64L37.98 36.87C38.4333 36.7367 38.8233 36.5367 39.15 36.27C39.4767 36.0033 39.7267 35.6967 39.9 35.35C40.0733 35.0033 40.16 34.64 40.16 34.26V33.9H40.96ZM41.14 33.9V34.26C41.14 34.6133 41.2267 34.95 41.4 35.27C41.58 35.59 41.8367 35.8733 42.17 36.12C42.5033 36.36 42.89 36.54 43.33 36.66L42.88 37.44C42.36 37.2867 41.9067 37.0567 41.52 36.75C41.14 36.4367 40.8467 36.0667 40.64 35.64C40.44 35.2133 40.34 34.7533 40.34 34.26V33.9H41.14ZM43.05 33.45V34.24H38.23V33.45H43.05ZM41.14 32.43V33.8H40.16V32.43H41.14ZM45.14 32.44V37.83H44.15V32.44H45.14ZM42.18 37.99C43.1067 37.99 43.8367 38.1367 44.37 38.43C44.91 38.7167 45.18 39.1167 45.18 39.63C45.18 40.1433 44.91 40.5433 44.37 40.83C43.8367 41.1233 43.1067 41.27 42.18 41.27C41.2467 41.27 40.5167 41.1233 39.99 40.83C39.4633 40.5433 39.2 40.1433 39.2 39.63C39.2 39.1167 39.4633 38.7167 39.99 38.43C40.5167 38.1367 41.2467 37.99 42.18 37.99ZM42.18 38.75C41.76 38.75 41.4 38.7867 41.1 38.86C40.8 38.9267 40.57 39.0267 40.41 39.16C40.2567 39.2867 40.18 39.44 40.18 39.62C40.18 39.9067 40.3533 40.1267 40.7 40.28C41.0467 40.4333 41.54 40.51 42.18 40.51C42.82 40.51 43.3167 40.4333 43.67 40.28C44.0233 40.1267 44.2 39.9067 44.2 39.62C44.2 39.44 44.12 39.2867 43.96 39.16C43.8 39.0267 43.5667 38.9267 43.26 38.86C42.96 38.7867 42.6 38.75 42.18 38.75Z" fill="currentColor"/>
</svg>
