<svg width="75" height="48" viewBox="0 0 75 48" fill="none" xmlns="http://www.w3.org/2000/svg">
<path d="M44.4229 9.57714C44.4229 8.76103 44.0987 7.97835 43.5216 7.40127C42.9445 6.8242 42.1618 6.5 41.3457 6.5C40.5296 6.5 39.7469 6.8242 39.1698 7.40127C38.5928 7.97835 38.2686 8.76103 38.2686 9.57714C38.2729 10.3914 38.5986 11.1714 39.1771 11.7457L32.7457 18.1771C32.4616 17.8907 32.1239 17.663 31.7518 17.5071C31.3797 17.3512 30.9806 17.2702 30.5771 17.2686C29.761 17.2686 28.9784 17.5928 28.4013 18.1698C27.8242 18.7469 27.5 19.5296 27.5 20.3457C27.5 21.1618 27.8242 21.9445 28.4013 22.5216C28.9784 23.0987 29.761 23.4229 30.5771 23.4229C30.5771 24.239 30.9013 25.0217 31.4784 25.5987C32.0555 26.1758 32.8382 26.5 33.6543 26.5C34.4704 26.5 35.2531 26.1758 35.8302 25.5987C36.4072 25.0217 36.7314 24.239 36.7314 23.4229C36.7298 23.0194 36.6488 22.6203 36.4929 22.2482C36.337 21.8761 36.1093 21.5384 35.8229 21.2543L42.2543 14.8229C42.8286 15.4014 43.6086 15.7271 44.4229 15.7314C45.239 15.7314 46.0217 15.4072 46.5987 14.8302C47.1758 14.2531 47.5 13.4704 47.5 12.6543C47.5 11.8382 47.1758 11.0555 46.5987 10.4784C46.0217 9.90134 45.239 9.57714 44.4229 9.57714Z" fill="currentColor"/>
<path d="M22.8771 37.63V38.41H14.8571V37.63H22.8771ZM19.3271 38V41.28H18.3471V38H19.3271ZM16.7971 32.79V33.92H20.9071V32.79H21.8671V36.65H15.8271V32.79H16.7971ZM16.7971 35.85H20.9071V34.7H16.7971V35.85ZM24.6773 36.58C25.604 36.58 26.3506 36.5633 26.9173 36.53C27.484 36.4967 28.0473 36.43 28.6073 36.33L28.7073 37.12C28.134 37.22 27.5573 37.2867 26.9773 37.32C26.3973 37.3533 25.6306 37.37 24.6773 37.37H23.9773V36.58H24.6773ZM28.0573 33.02V33.81H24.9573V36.86H23.9773V33.02H28.0573ZM27.8973 34.79V35.56H24.6473V34.79H27.8973ZM30.5073 32.43V37.78H29.5273V32.43H30.5073ZM31.7573 34.71V35.52H30.2373V34.71H31.7573ZM30.5073 38.2V41.28H29.5273V38.99H24.6973V38.2H30.5073ZM36.6475 33.88V34.66H32.3175V33.88H36.6475ZM34.4875 35.19C34.8609 35.19 35.1909 35.2767 35.4775 35.45C35.7709 35.6233 35.9975 35.8667 36.1575 36.18C36.3242 36.4867 36.4075 36.8367 36.4075 37.23C36.4075 37.6367 36.3242 37.9967 36.1575 38.31C35.9975 38.6167 35.7709 38.8567 35.4775 39.03C35.1909 39.2033 34.8609 39.29 34.4875 39.29C34.1275 39.29 33.8009 39.2033 33.5075 39.03C33.2209 38.8567 32.9942 38.6167 32.8275 38.31C32.6609 37.9967 32.5775 37.6367 32.5775 37.23C32.5775 36.8367 32.6609 36.4867 32.8275 36.18C32.9942 35.8667 33.2209 35.6233 33.5075 35.45C33.8009 35.2767 34.1275 35.19 34.4875 35.19ZM34.4875 36C34.2875 36 34.1075 36.0533 33.9475 36.16C33.7942 36.26 33.6709 36.4033 33.5775 36.59C33.4909 36.7767 33.4475 36.99 33.4475 37.23C33.4475 37.4767 33.4909 37.6933 33.5775 37.88C33.6709 38.06 33.7942 38.2033 33.9475 38.31C34.1075 38.41 34.2875 38.46 34.4875 38.46C34.6942 38.46 34.8742 38.41 35.0275 38.31C35.1875 38.2033 35.3109 38.06 35.3975 37.88C35.4909 37.6933 35.5375 37.48 35.5375 37.24C35.5375 36.9933 35.4909 36.7767 35.3975 36.59C35.3109 36.4033 35.1875 36.26 35.0275 36.16C34.8675 36.0533 34.6875 36 34.4875 36ZM39.8575 32.43V41.28H38.9275V32.43H39.8575ZM39.2375 36.11V36.91H37.6375V36.11H39.2375ZM37.9675 32.62V40.86H37.0375V32.62H37.9675ZM34.9775 32.67V34.37H34.0075V32.67H34.9775ZM50.7025 32.43V37.65H49.7225V32.43H50.7025ZM49.9425 34.61V35.4H47.6125V34.61H49.9425ZM47.8625 33.08V37.06H43.7725V33.08H47.8625ZM44.7325 33.87V36.28H46.9025V33.87H44.7325ZM47.7525 37.89C48.6791 37.89 49.4091 38.04 49.9425 38.34C50.4758 38.64 50.7425 39.0567 50.7425 39.59C50.7425 40.1233 50.4758 40.5367 49.9425 40.83C49.4091 41.13 48.6791 41.28 47.7525 41.28C46.8258 41.28 46.0958 41.13 45.5625 40.83C45.0358 40.5367 44.7725 40.1233 44.7725 39.59C44.7725 39.0567 45.0391 38.64 45.5725 38.34C46.1058 38.04 46.8325 37.89 47.7525 37.89ZM47.7625 38.67C47.3358 38.67 46.9725 38.7067 46.6725 38.78C46.3791 38.8467 46.1525 38.95 45.9925 39.09C45.8391 39.2233 45.7625 39.39 45.7625 39.59C45.7625 39.7833 45.8391 39.95 45.9925 40.09C46.1525 40.23 46.3791 40.3367 46.6725 40.41C46.9725 40.4833 47.3358 40.52 47.7625 40.52C48.1825 40.52 48.5391 40.4833 48.8325 40.41C49.1325 40.3367 49.3625 40.23 49.5225 40.09C49.6825 39.95 49.7625 39.7833 49.7625 39.59C49.7625 39.39 49.6825 39.2233 49.5225 39.09C49.3625 38.95 49.1325 38.8467 48.8325 38.78C48.5391 38.7067 48.1825 38.67 47.7625 38.67ZM59.4427 32.43V37.65H58.4627V32.43H59.4427ZM58.6827 34.61V35.4H56.3527V34.61H58.6827ZM56.6027 33.08V37.06H52.5127V33.08H56.6027ZM53.4727 33.87V36.28H55.6427V33.87H53.4727ZM56.4927 37.89C57.4194 37.89 58.1494 38.04 58.6827 38.34C59.216 38.64 59.4827 39.0567 59.4827 39.59C59.4827 40.1233 59.216 40.5367 58.6827 40.83C58.1494 41.13 57.4194 41.28 56.4927 41.28C55.566 41.28 54.836 41.13 54.3027 40.83C53.776 40.5367 53.5127 40.1233 53.5127 39.59C53.5127 39.0567 53.7794 38.64 54.3127 38.34C54.846 38.04 55.5727 37.89 56.4927 37.89ZM56.5027 38.67C56.076 38.67 55.7127 38.7067 55.4127 38.78C55.1194 38.8467 54.8927 38.95 54.7327 39.09C54.5794 39.2233 54.5027 39.39 54.5027 39.59C54.5027 39.7833 54.5794 39.95 54.7327 40.09C54.8927 40.23 55.1194 40.3367 55.4127 40.41C55.7127 40.4833 56.076 40.52 56.5027 40.52C56.9227 40.52 57.2794 40.4833 57.5727 40.41C57.8727 40.3367 58.1027 40.23 58.2627 40.09C58.4227 39.95 58.5027 39.7833 58.5027 39.59C58.5027 39.39 58.4227 39.2233 58.2627 39.09C58.1027 38.95 57.8727 38.8467 57.5727 38.78C57.2794 38.7067 56.9227 38.67 56.5027 38.67Z" fill="currentColor"/>
</svg>
