<svg width="75" height="48" viewBox="0 0 75 48" fill="none" xmlns="http://www.w3.org/2000/svg">
<path fill-rule="evenodd" clip-rule="evenodd" d="M31.8604 11.0297C32.0916 9.57264 33.348 8.5 34.8233 8.5H40.1767C41.652 8.5 42.9083 9.57264 43.1396 11.0297L44.6428 20.5H45.5C46.6046 20.5 47.5 21.3954 47.5 22.5C47.5 23.6046 46.6046 24.5 45.5 24.5H29.5C28.3954 24.5 27.5 23.6046 27.5 22.5C27.5 21.3954 28.3954 20.5 29.5 20.5H30.3571L31.8604 11.0297ZM41.5384 12.612C41.149 12.6737 40.8787 13.04 40.9348 13.4303L41.6371 18.3236C41.6932 18.7139 42.0543 18.9803 42.4437 18.9187C42.8331 18.857 43.1034 18.4907 43.0474 18.1004L42.345 13.2071C42.289 12.8168 41.9279 12.5504 41.5384 12.612Z" fill="currentColor"/>
<path d="M21.9771 36.49V37.28H15.8471V36.49H21.9771ZM22.8771 39.39V40.2H14.8571V39.39H22.8771ZM19.3371 36.83V39.69H18.3671V36.83H19.3371ZM21.8871 33.09V33.89H16.8271V36.84H15.8471V33.09H21.8871ZM26.7273 36.91V39.01H25.7473V36.91H26.7273ZM26.2273 32.98C26.6806 32.98 27.084 33.07 27.4373 33.25C27.7973 33.43 28.0773 33.6833 28.2773 34.01C28.484 34.33 28.5873 34.6933 28.5873 35.1C28.5873 35.5067 28.484 35.8733 28.2773 36.2C28.0773 36.52 27.7973 36.77 27.4373 36.95C27.084 37.13 26.6806 37.22 26.2273 37.22C25.7806 37.22 25.374 37.13 25.0073 36.95C24.6473 36.77 24.364 36.52 24.1573 36.2C23.9573 35.8733 23.8573 35.5067 23.8573 35.1C23.8573 34.6933 23.9573 34.33 24.1573 34.01C24.364 33.6833 24.6473 33.43 25.0073 33.25C25.374 33.07 25.7806 32.98 26.2273 32.98ZM26.2273 33.82C25.9606 33.82 25.7173 33.8733 25.4973 33.98C25.284 34.0867 25.1173 34.2367 24.9973 34.43C24.8773 34.6233 24.8173 34.8467 24.8173 35.1C24.8173 35.3533 24.8773 35.5767 24.9973 35.77C25.1173 35.9633 25.284 36.1133 25.4973 36.22C25.7173 36.3267 25.9606 36.38 26.2273 36.38C26.5006 36.38 26.7406 36.3267 26.9473 36.22C27.1606 36.1133 27.3273 35.9633 27.4473 35.77C27.5673 35.5767 27.6273 35.3533 27.6273 35.1C27.6273 34.8467 27.5673 34.6233 27.4473 34.43C27.3273 34.2367 27.1606 34.0867 26.9473 33.98C26.7406 33.8733 26.5006 33.82 26.2273 33.82ZM30.4573 32.43V41.28H29.4773V32.43H30.4573ZM31.7773 36.01V36.83H30.1773V36.01H31.7773ZM23.4973 38.62C24.604 38.62 25.594 38.6067 26.4673 38.58C27.3473 38.5467 28.1773 38.4767 28.9573 38.37L29.0373 39.09C28.2173 39.2367 27.3673 39.33 26.4873 39.37C25.614 39.41 24.664 39.4267 23.6373 39.42L23.4973 38.62ZM35.4775 33.41V33.91C35.4775 34.3233 35.3742 34.7033 35.1675 35.05C34.9609 35.39 34.6642 35.6833 34.2775 35.93C33.8975 36.1767 33.4442 36.3533 32.9175 36.46L32.5275 35.71C32.9675 35.6233 33.3475 35.49 33.6675 35.31C33.9942 35.13 34.2409 34.92 34.4075 34.68C34.5809 34.44 34.6675 34.1833 34.6675 33.91V33.41H35.4775ZM35.6575 33.41V33.91C35.6575 34.1633 35.7442 34.4067 35.9175 34.64C36.0909 34.8667 36.3342 35.0633 36.6475 35.23C36.9675 35.3967 37.3375 35.5167 37.7575 35.59L37.3575 36.34C36.5909 36.1933 35.9842 35.9 35.5375 35.46C35.0909 35.02 34.8675 34.5033 34.8675 33.91V33.41H35.6575ZM37.4975 33.04V33.83H32.8375V33.04H37.4975ZM35.6075 37.39V41.01H34.6275V37.39H35.6075ZM39.6775 32.43V41.29H38.6975V32.43H39.6775ZM32.2975 37.11C33.3975 37.11 34.4175 37.0933 35.3575 37.06C36.3042 37.02 37.2042 36.9367 38.0575 36.81L38.1075 37.53C37.2342 37.6833 36.3342 37.7867 35.4075 37.84C34.4809 37.8867 33.4842 37.91 32.4175 37.91L32.2975 37.11ZM38.9175 38.48V39.25H36.7775V38.48H38.9175ZM50.7025 32.43V37.65H49.7225V32.43H50.7025ZM49.9425 34.61V35.4H47.6125V34.61H49.9425ZM47.8625 33.08V37.06H43.7725V33.08H47.8625ZM44.7325 33.87V36.28H46.9025V33.87H44.7325ZM47.7525 37.89C48.6791 37.89 49.4091 38.04 49.9425 38.34C50.4758 38.64 50.7425 39.0567 50.7425 39.59C50.7425 40.1233 50.4758 40.5367 49.9425 40.83C49.4091 41.13 48.6791 41.28 47.7525 41.28C46.8258 41.28 46.0958 41.13 45.5625 40.83C45.0358 40.5367 44.7725 40.1233 44.7725 39.59C44.7725 39.0567 45.0391 38.64 45.5725 38.34C46.1058 38.04 46.8325 37.89 47.7525 37.89ZM47.7625 38.67C47.3358 38.67 46.9725 38.7067 46.6725 38.78C46.3791 38.8467 46.1525 38.95 45.9925 39.09C45.8391 39.2233 45.7625 39.39 45.7625 39.59C45.7625 39.7833 45.8391 39.95 45.9925 40.09C46.1525 40.23 46.3791 40.3367 46.6725 40.41C46.9725 40.4833 47.3358 40.52 47.7625 40.52C48.1825 40.52 48.5391 40.4833 48.8325 40.41C49.1325 40.3367 49.3625 40.23 49.5225 40.09C49.6825 39.95 49.7625 39.7833 49.7625 39.59C49.7625 39.39 49.6825 39.2233 49.5225 39.09C49.3625 38.95 49.1325 38.8467 48.8325 38.78C48.5391 38.7067 48.1825 38.67 47.7625 38.67ZM59.4427 32.43V37.65H58.4627V32.43H59.4427ZM58.6827 34.61V35.4H56.3527V34.61H58.6827ZM56.6027 33.08V37.06H52.5127V33.08H56.6027ZM53.4727 33.87V36.28H55.6427V33.87H53.4727ZM56.4927 37.89C57.4194 37.89 58.1494 38.04 58.6827 38.34C59.216 38.64 59.4827 39.0567 59.4827 39.59C59.4827 40.1233 59.216 40.5367 58.6827 40.83C58.1494 41.13 57.4194 41.28 56.4927 41.28C55.566 41.28 54.836 41.13 54.3027 40.83C53.776 40.5367 53.5127 40.1233 53.5127 39.59C53.5127 39.0567 53.7794 38.64 54.3127 38.34C54.846 38.04 55.5727 37.89 56.4927 37.89ZM56.5027 38.67C56.076 38.67 55.7127 38.7067 55.4127 38.78C55.1194 38.8467 54.8927 38.95 54.7327 39.09C54.5794 39.2233 54.5027 39.39 54.5027 39.59C54.5027 39.7833 54.5794 39.95 54.7327 40.09C54.8927 40.23 55.1194 40.3367 55.4127 40.41C55.7127 40.4833 56.076 40.52 56.5027 40.52C56.9227 40.52 57.2794 40.4833 57.5727 40.41C57.8727 40.3367 58.1027 40.23 58.2627 40.09C58.4227 39.95 58.5027 39.7833 58.5027 39.59C58.5027 39.39 58.4227 39.2233 58.2627 39.09C58.1027 38.95 57.8727 38.8467 57.5727 38.78C57.2794 38.7067 56.9227 38.67 56.5027 38.67Z" fill="currentColor"/>
</svg>
