<svg width="102" height="18" viewBox="0 0 102 18" fill="none" xmlns="http://www.w3.org/2000/svg">
<g clip-path="url(#clip0_8393_716)">
<path fill-rule="evenodd" clip-rule="evenodd" d="M8.9714 1.53174C7.59249 0.842305 5.502 0.855688 4.56993 0.861655C4.49368 0.862144 4.42518 0.862582 4.36545 0.862582H0V17.1174H4.29964L4.47514 12.2695C5.8791 12.2695 7.30501 12.1598 8.46766 11.8746C9.6742 11.5894 10.7052 10.7997 11.2975 9.70291C11.846 8.69384 12.1969 7.50928 12.1969 6.03955C12.1969 3.51687 10.4639 2.26651 8.99415 1.54261L8.9714 1.53174ZM8.96107 7.82984C8.77884 7.90273 8.58704 7.95639 8.39092 7.96417C6.3366 8.0457 5.6171 6.15878 6.97775 5.6613L7.97458 5.23411C9.39646 4.58782 10.4663 6.05342 9.69313 7.28795C9.5281 7.55145 9.24975 7.71437 8.96107 7.82984ZM3.84854 5.57545C3.42468 5.59783 3.06292 5.27237 3.04053 4.84852C3.01815 4.42466 3.34361 4.06291 3.76748 4.04053C4.19135 4.01814 4.55311 4.3436 4.5755 4.76746C4.59788 5.19132 4.27241 5.55307 3.84854 5.57545ZM6.82942 4.00827C6.84601 4.32241 7.11413 4.56363 7.42828 4.54704C7.74243 4.53045 7.98365 4.26234 7.96706 3.9482C7.95047 3.63406 7.68235 3.39284 7.3682 3.40943C7.05405 3.42602 6.81283 3.69413 6.82942 4.00827Z" fill="currentColor"/>
<path d="M24.7424 0.839844L14.0811 0.905653V16.9411L16.7793 17.0727H24.523L24.5011 13.1242L18.8414 12.5977L18.7317 11.0622L24.4572 10.7331V7.26718L18.4684 6.87233L18.4026 5.38066L24.4353 5.07355L24.7424 0.839844Z" fill="currentColor"/>
<path d="M25.9072 5.18278L30.2727 5.42408L30.2069 17.0942L35.1866 17.1381L35.2962 5.29246H39.552L39.5959 0.861328H26.1485L25.9072 5.18278Z" fill="currentColor"/>
<path d="M54.4015 0.861328L49.8605 7.5519L44.6176 0.861328L40.9541 0.905201L41.1954 17.1819L45.517 17.0942L46.0873 9.61391L49.6631 14.2644L53.5898 9.67972L54.0943 17.1819L58.394 17.0942L58.3501 0.905201L54.4015 0.861328Z" fill="currentColor"/>
<path d="M64.3825 0.861328L59.3809 17.1161H63.7682L65.0625 13.4528L69.4499 13.4966L70.8758 17.0942H75.4826L70.13 0.861328H64.4044H64.3825ZM65.7864 9.39455C65.7864 9.39455 65.6987 9.19712 65.6987 9.06551C65.6987 8.73646 65.7864 8.42935 65.9181 8.12224C66.1374 7.52996 66.4884 6.89381 66.971 6.45509C67.0369 6.38928 67.1246 6.32347 67.2343 6.30153C67.4975 6.25766 67.7169 6.45509 67.8705 6.65251C68.1118 6.93768 68.2653 7.26673 68.375 7.61771C68.6163 8.29774 68.8357 9.30681 68.024 9.67972C67.5195 9.92102 66.9272 9.94296 66.3787 9.7894C66.1374 9.7236 65.9181 9.59198 65.7864 9.37261V9.39455Z" fill="currentColor"/>
<path d="M73.7697 5.31485L77.6525 5.20517L77.7622 17.1824L82.8735 17.0727L82.8077 5.02968L86.7125 4.92L86.8222 0.86178L73.5723 0.839844L73.7697 5.31485Z" fill="currentColor"/>
<g clip-path="url(#clip1_8393_716)">
<path d="M93.444 5.08041L87.769 4.85958L89.6018 0.818359H100.51L95.0339 12.7433L101.923 12.8979L99.5385 17.182H88.1223L93.444 5.08041Z" fill="currentColor"/>
</g>
</g>
<defs>
<clipPath id="clip0_8393_716">
<rect width="101.901" height="18" fill="white"/>
</clipPath>
<clipPath id="clip1_8393_716">
<rect width="14.1322" height="16.3636" fill="white" transform="translate(87.769 0.818359)"/>
</clipPath>
</defs>
</svg>
