<svg width="24" height="24" viewBox="0 0 24 24" fill="none" xmlns="http://www.w3.org/2000/svg">
<path d="M4.43195 18.169H19.4628C20.3639 18.169 20.8952 17.7045 20.8952 17.0215C20.8952 16.0731 19.937 15.2198 19.112 14.3757C18.486 13.7215 18.3153 12.3749 18.2489 11.2844C18.1733 7.64284 17.2155 5.12974 14.6834 4.21935C14.3326 2.98647 13.3462 2 11.9522 2C10.5482 2 9.57185 2.98647 9.21133 4.21935C6.68893 5.12974 5.72148 7.64244 5.65512 11.284C5.57946 12.3749 5.41801 13.7215 4.78276 14.3757C3.96704 15.2198 3 16.0731 3 17.022C3 17.7045 3.54057 18.169 4.43195 18.169ZM9.0596 19.459C9.1737 20.8436 10.3398 22 11.9522 22C13.5545 22 14.7211 20.8436 14.8445 19.459H9.0596Z" fill="currentColor"/>
</svg>
