<svg width="24" height="24" viewBox="0 0 24 24" fill="none" xmlns="http://www.w3.org/2000/svg">
<path d="M11.7778 11.6296C13.0547 11.6296 14.2794 11.1224 15.1824 10.2194C16.0853 9.31645 16.5926 8.09178 16.5926 6.81481C16.5926 5.53785 16.0853 4.31318 15.1824 3.41023C14.2794 2.50727 13.0547 2 11.7778 2C10.5008 2 9.27614 2.50727 8.37319 3.41023C7.47024 4.31318 6.96296 5.53785 6.96296 6.81481C6.96296 8.09178 7.47024 9.31645 8.37319 10.2194C9.27614 11.1224 10.5008 11.6296 11.7778 11.6296ZM4 16.0741C4 15.2882 4.31217 14.5346 4.86783 13.9789C5.42349 13.4233 6.17714 13.1111 6.96296 13.1111H16.5926C17.3784 13.1111 18.1321 13.4233 18.6877 13.9789C19.2434 14.5346 19.5556 15.2882 19.5556 16.0741C19.5556 16.0741 19.5556 22 11.7778 22C4 22 4 16.0741 4 16.0741Z" fill="currentColor"/>
</svg>
