<svg width="48" height="49" viewBox="0 0 48 49" fill="none" xmlns="http://www.w3.org/2000/svg">
<path fill-rule="evenodd" clip-rule="evenodd" d="M4 24.8008C4 13.7608 12.94 4.80078 23.98 4.80078C35.04 4.80078 44 13.7608 44 24.8008C44 35.8408 35.04 44.8008 23.98 44.8008C12.94 44.8008 4 35.8408 4 24.8008ZM32.6864 21.4415C33.295 20.7721 33.295 19.6866 32.6864 19.0172C32.0778 18.3477 31.091 18.3477 30.4824 19.0172L22.2338 28.0907L18.6604 24.16C18.0518 23.4906 17.0651 23.4906 16.4565 24.16C15.8478 24.8295 15.8478 25.9149 16.4565 26.5844L21.1318 31.7273C21.7404 32.3967 22.7271 32.3967 23.3358 31.7273L32.6864 21.4415Z" fill="#7486FF"/>
</svg>
