<?xml version="1.0" encoding="utf-8"?><!-- Uploaded to: SVG Repo, www.svgrepo.com, Generator: SVG Repo Mixer Tools -->
<svg fill="#FF1493" width="800px" height="800px" viewBox="0 0 256 256" id="Flat" xmlns="http://www.w3.org/2000/svg">
  <path
    d="M204,96a76,76,0,1,0-80,75.89355V204H88a4,4,0,0,0,0,8h36v28a4,4,0,0,0,8,0V212h36a4,4,0,0,0,0-8H132V171.89355A76.09456,76.09456,0,0,0,204,96ZM60,96a68,68,0,1,1,68,68A68.07728,68.07728,0,0,1,60,96Z"
    fill="#FF1493"
    stroke="#FF1493"
    stroke-width="2"
  />
</svg>